<?xml version="1.0" encoding="UTF-8" standalone="no"?>
<svg
   xmlns:dc="http://purl.org/dc/elements/1.1/"
   xmlns:cc="http://creativecommons.org/ns#"
   xmlns:rdf="http://www.w3.org/1999/02/22-rdf-syntax-ns#"
   xmlns:svg="http://www.w3.org/2000/svg"
   xmlns="http://www.w3.org/2000/svg"
   width="445"
   height="256"
   viewBox="0 0 445 256.00002"
   id="svg2"
   version="1.1">
  <defs
     id="defs4" />
  <metadata
     id="metadata7">
    <rdf:RDF>
      <cc:Work
         rdf:about="">
        <dc:format>image/svg+xml</dc:format>
        <dc:type
           rdf:resource="http://purl.org/dc/dcmitype/StillImage" />
        <dc:title></dc:title>
      </cc:Work>
    </rdf:RDF>
  </metadata>
  <path
     id="path4323"
     d="m -3.0517582e-5,-7.6293959e-6 0,256.0000476293959 445.000050517582,0 0,-256.0000476293959 z"
     style="color:#000000;clip-rule:nonzero;display:inline;overflow:visible;visibility:visible;opacity:1;isolation:auto;mix-blend-mode:normal;color-interpolation:sRGB;color-interpolation-filters:linearRGB;solid-color:#000000;solid-opacity:1;fill:#ffffff;fill-opacity:1;fill-rule:nonzero;stroke:none;stroke-width:1.00000012;stroke-linecap:butt;stroke-linejoin:miter;stroke-miterlimit:4;stroke-dasharray:none;stroke-dashoffset:0;stroke-opacity:1;marker:none;color-rendering:auto;image-rendering:auto;shape-rendering:auto;text-rendering:auto;enable-background:accumulate" />
  <path
     d="m 0.88867188,0.88867188 0,254.22265812 443.22265812,0 0,-254.22265812 -443.22265812,0 z"
     id="path4833"
     style="color:#000000;clip-rule:nonzero;display:inline;overflow:visible;visibility:visible;opacity:1;isolation:auto;mix-blend-mode:normal;color-interpolation:sRGB;color-interpolation-filters:linearRGB;solid-color:#000000;solid-opacity:1;fill:#231f20;fill-opacity:1;fill-rule:nonzero;stroke:none;stroke-width:1.00000012;stroke-linecap:butt;stroke-linejoin:miter;stroke-miterlimit:4;stroke-dasharray:none;stroke-dashoffset:0;stroke-opacity:1;marker:none;color-rendering:auto;image-rendering:auto;shape-rendering:auto;text-rendering:auto;enable-background:accumulate" />
  <g
     id="g4872">
    <g
       style="display:inline;stroke:#ffffff;stroke-width:2.00000024;stroke-miterlimit:4;stroke-dasharray:none;stroke-opacity:1"
       transform="translate(54.692904,-878.29923)"
       id="g4345">
      <path
         id="path4347"
         style="fill:#231f20;fill-opacity:1;fill-rule:nonzero;stroke:#ffffff;stroke-width:2.00000024;stroke-miterlimit:4;stroke-dasharray:none;stroke-opacity:1"
         d="m 5.11179,973.93364 c 0,-5.08875 4.12475,-9.21375 9.21387,-9.21375 l 109.47325,0 c 5.0885,0 9.21388,4.125 9.21388,9.21375 l 0,64.73126 c 0,5.0875 -4.12538,9.2137 -9.21388,9.2137 l -109.47325,0 c -5.08912,0 -9.21387,-4.1262 -9.21387,-9.2137 l 0,-64.73126 z" />
      <path
         d="m 75.49141,1026.2624 c 0.22763,-0.6863 0.34238,-1.435 0.34238,-2.2238 0,-2.8112 -1.34887,-5.5112 -6.97387,-7.4237 -14.96088,-5.0625 -22.16,-7.9875 -22.16,-20.81126 0,-12.15 8.54799,-18.33625 23.17262,-18.33625 17.09838,0 22.04888,8.32375 22.04888,17.09875 l 0,2.025 -16.19863,0 0,-1.12625 c 0,-5.28625 -2.1375,-6.74875 -5.96375,-6.74875 -4.83712,0 -6.186,2.3625 -6.186,5.625 0,10.79876 29.13575,3.6 29.13575,27.22376 0,0.5675 -0.0175,1.125 -0.0525,1.6712 l -17.16488,3.0263 z m -29.24312,-5.71 16.2005,0 c 0.11125,2.7 0.33638,5.0625 1.236,6.8625 0.17575,0.2925 0.37162,0.5687 0.59138,0.825 l -16.71563,2.9475 c -0.88812,-2.27 -1.31225,-4.915 -1.31225,-7.935 l 0,-2.7 z"
         style="fill:#ffffff;fill-opacity:1;fill-rule:evenodd;stroke:#ffffff;stroke-width:2.00000024;stroke-miterlimit:4;stroke-dasharray:none;stroke-opacity:1"
         id="path4349" />
    </g>
    <g
       transform="translate(-167.48071,-584.46108)"
       style="font-style:normal;font-variant:normal;font-weight:normal;font-stretch:normal;font-size:40px;line-height:125%;font-family:'Roboto Condensed';-inkscape-font-specification:'Roboto Condensed, ';letter-spacing:0px;word-spacing:0px;display:inline;fill:#ffffff;fill-opacity:1;stroke:none;stroke-width:1px;stroke-linecap:butt;stroke-linejoin:miter;stroke-opacity:1"
       id="g4351">
      <path
         d="m 380.24414,702.63059 q 0,-1.06445 -0.57617,-1.63086 -0.57617,-0.5664 -2.08008,-1.10351 -1.50391,-0.53711 -2.30469,-1.12305 -0.79101,-0.5957 -1.1914,-1.34766 -0.39063,-0.76172 -0.39063,-1.73828 0,-1.68945 1.12305,-2.7832 1.13281,-1.09375 2.95898,-1.09375 1.25,0 2.22657,0.56641 0.97656,0.55664 1.5039,1.55273 0.52735,0.99609 0.52735,2.1875 l -1.79688,0 q 0,-1.31836 -0.63477,-2.04102 -0.63476,-0.72265 -1.82617,-0.72265 -1.08398,0 -1.67968,0.60547 -0.59571,0.60547 -0.59571,1.69922 0,0.89843 0.64453,1.5039 0.64453,0.60547 1.99219,1.08399 2.09961,0.69336 2.99805,1.70898 0.9082,1.01563 0.9082,2.65625 0,1.72852 -1.12305,2.77344 -1.12304,1.03515 -3.05664,1.03515 -1.24023,0 -2.29492,-0.53711 -1.04492,-0.54687 -1.65039,-1.52343 -0.5957,-0.98633 -0.5957,-2.25586 l 1.79687,0 q 0,1.31836 0.73242,2.05078 0.74219,0.73242 2.01172,0.73242 1.18164,0 1.77735,-0.60547 0.5957,-0.60547 0.5957,-1.65039 z"
         style="font-style:normal;font-variant:normal;font-weight:normal;font-stretch:normal;font-size:20px;font-family:'Roboto Condensed';-inkscape-font-specification:'Roboto Condensed, ';fill:#ffffff;fill-opacity:1"
         id="path4353" />
      <path
         d="m 386.40625,693.09934 0,2.5586 1.5918,0 0,1.39648 -1.5918,0 0,6.55273 q 0,0.625 0.20508,0.94727 0.20508,0.32227 0.70312,0.32227 0.3418,0 0.69336,-0.11719 l -0.0195,1.46484 q -0.58594,0.19531 -1.20117,0.19531 -1.02539,0 -1.5625,-0.73242 -0.53711,-0.73242 -0.53711,-2.07031 l 0,-6.5625 -1.61133,0 0,-1.39648 1.61133,0 0,-2.5586 1.71875,0 z"
         style="font-style:normal;font-variant:normal;font-weight:normal;font-stretch:normal;font-size:20px;font-family:'Roboto Condensed';-inkscape-font-specification:'Roboto Condensed, ';fill:#ffffff;fill-opacity:1"
         id="path4355" />
      <path
         d="m 395.47852,706.22434 q -0.15625,-0.3418 -0.22461,-1.15234 -0.91797,1.34765 -2.34375,1.34765 -1.43555,0 -2.2461,-0.80078 -0.80078,-0.81054 -0.80078,-2.27539 0,-1.61133 1.09375,-2.55859 1.09375,-0.94727 2.99805,-0.9668 l 1.26953,0 0,-1.12305 q 0,-0.94726 -0.41992,-1.34765 -0.41992,-0.40039 -1.2793,-0.40039 -0.78125,0 -1.26953,0.46875 -0.48828,0.45898 -0.48828,1.17187 l -1.72852,0 q 0,-0.81054 0.47852,-1.54297 0.47851,-0.74218 1.28906,-1.16211 0.81055,-0.41992 1.80664,-0.41992 1.62109,0 2.46094,0.81055 0.84961,0.80078 0.86914,2.34375 l 0,5.33203 q 0.01,1.2207 0.33203,2.11914 l 0,0.15625 -1.79687,0 z m -2.30469,-1.37695 q 0.63476,0 1.21094,-0.35156 0.57617,-0.35157 0.83984,-0.87891 l 0,-2.51953 -0.97656,0 q -1.23047,0.0195 -1.94336,0.55664 -0.71289,0.52734 -0.71289,1.48437 0,0.89844 0.36132,1.3086 0.36133,0.40039 1.22071,0.40039 z"
         style="font-style:normal;font-variant:normal;font-weight:normal;font-stretch:normal;font-size:20px;font-family:'Roboto Condensed';-inkscape-font-specification:'Roboto Condensed, ';fill:#ffffff;fill-opacity:1"
         id="path4357" />
      <path
         d="m 403.97461,697.27903 q -0.36133,-0.0684 -0.78125,-0.0684 -1.32813,0 -1.85547,1.45508 l 0,7.55859 -1.72852,0 0,-10.5664 1.67969,0 0.0293,1.07421 q 0.69336,-1.26953 1.96289,-1.26953 0.41016,0 0.68359,0.13672 l 0.01,1.67969 z"
         style="font-style:normal;font-variant:normal;font-weight:normal;font-stretch:normal;font-size:20px;font-family:'Roboto Condensed';-inkscape-font-specification:'Roboto Condensed, ';fill:#ffffff;fill-opacity:1"
         id="path4359" />
      <path
         d="m 408.89648,703.59739 2.00196,-7.93945 1.75781,0 -3.13477,10.5664 -1.28906,0 -3.17383,-10.5664 1.75782,0 2.08007,7.93945 z"
         style="font-style:normal;font-variant:normal;font-weight:normal;font-stretch:normal;font-size:20px;font-family:'Roboto Condensed';-inkscape-font-specification:'Roboto Condensed, ';fill:#ffffff;fill-opacity:1"
         id="path4361" />
      <path
         d="m 416.31836,706.22434 -1.72852,0 0,-10.5664 1.72852,0 0,10.5664 z m 0.13672,-13.36914 q 0,0.43945 -0.24414,0.73242 -0.24414,0.29297 -0.74219,0.29297 -0.48828,0 -0.73242,-0.29297 -0.24414,-0.29297 -0.24414,-0.73242 0,-0.43945 0.24414,-0.74219 0.24414,-0.30273 0.73242,-0.30273 0.48828,0 0.73242,0.3125 0.25391,0.30273 0.25391,0.73242 z"
         style="font-style:normal;font-variant:normal;font-weight:normal;font-stretch:normal;font-size:20px;font-family:'Roboto Condensed';-inkscape-font-specification:'Roboto Condensed, ';fill:#ffffff;fill-opacity:1"
         id="path4363" />
      <path
         d="m 422.80273,706.41965 q -1.97265,0 -3.02734,-1.17187 -1.05469,-1.18164 -1.07422,-3.45703 l 0,-1.2793 q 0,-2.36328 1.02539,-3.70117 1.03516,-1.34766 2.88086,-1.34766 1.85547,0 2.77344,1.18164 0.91797,1.18164 0.9375,3.68164 l 0,1.13282 -5.89844,0 0,0.24414 q 0,1.69922 0.63477,2.4707 0.64453,0.77148 1.8457,0.77148 0.76172,0 1.33789,-0.2832 0.58594,-0.29297 1.09375,-0.91797 l 0.89844,1.09375 q -1.12305,1.58203 -3.42774,1.58203 z m -0.19531,-9.47265 q -1.07422,0 -1.5918,0.74219 -0.51757,0.73242 -0.58593,2.28515 l 4.16015,0 0,-0.23437 q -0.0684,-1.50391 -0.54687,-2.14844 -0.46875,-0.64453 -1.43555,-0.64453 z"
         style="font-style:normal;font-variant:normal;font-weight:normal;font-stretch:normal;font-size:20px;font-family:'Roboto Condensed';-inkscape-font-specification:'Roboto Condensed, ';fill:#ffffff;fill-opacity:1"
         id="path4365" />
      <path
         d="m 436.2793,703.18723 1.60156,-7.52929 1.70898,0 -2.58789,10.5664 -1.37695,0 -2.06055,-7.55859 -2.01172,7.55859 -1.38671,0 -2.56836,-10.5664 1.69921,0 1.64063,7.34375 1.96289,-7.34375 1.36719,0 2.01172,7.52929 z"
         style="font-style:normal;font-variant:normal;font-weight:normal;font-stretch:normal;font-size:20px;font-family:'Roboto Condensed';-inkscape-font-specification:'Roboto Condensed, ';fill:#ffffff;fill-opacity:1"
         id="path4367" />
      <path
         d="m 445.18555,706.41965 q -1.97266,0 -3.02735,-1.17187 -1.05468,-1.18164 -1.07422,-3.45703 l 0,-1.2793 q 0,-2.36328 1.02539,-3.70117 1.03516,-1.34766 2.88086,-1.34766 1.85547,0 2.77344,1.18164 0.91797,1.18164 0.9375,3.68164 l 0,1.13282 -5.89844,0 0,0.24414 q 0,1.69922 0.63477,2.4707 0.64453,0.77148 1.8457,0.77148 0.76172,0 1.33789,-0.2832 0.58594,-0.29297 1.09375,-0.91797 l 0.89844,1.09375 q -1.12305,1.58203 -3.42773,1.58203 z m -0.19532,-9.47265 q -1.07421,0 -1.59179,0.74219 -0.51758,0.73242 -0.58594,2.28515 l 4.16016,0 0,-0.23437 q -0.0684,-1.50391 -0.54688,-2.14844 -0.46875,-0.64453 -1.43555,-0.64453 z"
         style="font-style:normal;font-variant:normal;font-weight:normal;font-stretch:normal;font-size:20px;font-family:'Roboto Condensed';-inkscape-font-specification:'Roboto Condensed, ';fill:#ffffff;fill-opacity:1"
         id="path4369" />
      <path
         d="m 455.14648,697.27903 q -0.36132,-0.0684 -0.78125,-0.0684 -1.32812,0 -1.85546,1.45508 l 0,7.55859 -1.72852,0 0,-10.5664 1.67969,0 0.0293,1.07421 q 0.69336,-1.26953 1.96289,-1.26953 0.41016,0 0.6836,0.13672 l 0.01,1.67969 z"
         style="font-style:normal;font-variant:normal;font-weight:normal;font-stretch:normal;font-size:20px;font-family:'Roboto Condensed';-inkscape-font-specification:'Roboto Condensed, ';fill:#ffffff;fill-opacity:1"
         id="path4371" />
    </g>
    <g
       transform="translate(-167.48071,-560.46108)"
       style="font-style:normal;font-variant:normal;font-weight:normal;font-stretch:normal;font-size:40px;line-height:125%;font-family:'Roboto Condensed';-inkscape-font-specification:'Roboto Condensed, ';letter-spacing:0px;word-spacing:0px;display:inline;fill:#ffffff;fill-opacity:1;stroke:none;stroke-width:1px;stroke-linecap:butt;stroke-linejoin:miter;stroke-opacity:1"
       id="g4373">
      <path
         d="m 375.6543,692.00559 4.30664,12.50977 4.32617,-12.50977 1.47461,0 0,14.21875 -1.11328,0 0,-6.16211 0.0976,-6.20117 -4.35547,12.36328 -0.85937,0 -4.33594,-12.30469 0.0977,6.10352 0,6.20117 -1.11328,0 0,-14.21875 1.47461,0 z"
         style="font-style:normal;font-variant:normal;font-weight:300;font-stretch:normal;font-size:20px;font-family:'Roboto Condensed';-inkscape-font-specification:'Roboto Condensed, Light';letter-spacing:-0.88px;fill:#ffffff;fill-opacity:1"
         id="path4375" />
      <path
         d="m 391.51258,706.41965 q -1.86524,0 -2.91992,-1.2207 -1.05469,-1.2207 -1.07422,-3.47656 l 0,-1.28906 q 0,-2.32422 1.01562,-3.64258 1.01563,-1.32813 2.79297,-1.32813 1.71875,0 2.61719,1.12305 0.9082,1.12305 0.92773,3.4375 l 0,1.01562 -6.27929,0 0,0.59571 q 0,1.8164 0.77148,2.80273 0.78125,0.98633 2.19727,0.98633 1.5625,0 2.52929,-1.14258 l 0.56641,0.72266 q -1.03516,1.41601 -3.14453,1.41601 z m -0.18555,-9.9414 q -1.2793,0 -1.97266,0.9082 -0.68359,0.89844 -0.75195,2.63672 l 5.18555,0 0,-0.2832 q -0.0781,-3.26172 -2.46094,-3.26172 z"
         style="font-style:normal;font-variant:normal;font-weight:300;font-stretch:normal;font-size:20px;font-family:'Roboto Condensed';-inkscape-font-specification:'Roboto Condensed, Light';letter-spacing:-0.88px;fill:#ffffff;fill-opacity:1"
         id="path4377" />
      <path
         d="m 395.89625,700.45286 q 0,-2.48047 0.86914,-3.73047 0.86914,-1.25977 2.57813,-1.25977 1.79687,0 2.68554,1.61133 l 0,-5.84961 1.08399,0 0,15 -1.01563,0 -0.0488,-1.35742 q -0.88867,1.55273 -2.71484,1.55273 -1.66992,0 -2.54883,-1.26953 -0.86914,-1.26953 -0.88867,-3.60351 l 0,-1.09375 z m 1.10352,0.98633 q 0,2.03125 0.60546,2.98828 0.61524,0.95703 1.94336,0.95703 1.70899,0 2.48047,-1.63086 l 0,-5.47852 q -0.73242,-1.76758 -2.4707,-1.76758 -1.32813,0 -1.94336,0.94727 -0.60547,0.94727 -0.61523,2.92969 l 0,1.05469 z"
         style="font-style:normal;font-variant:normal;font-weight:300;font-stretch:normal;font-size:20px;font-family:'Roboto Condensed';-inkscape-font-specification:'Roboto Condensed, Light';letter-spacing:-0.88px;fill:#ffffff;fill-opacity:1"
         id="path4379" />
      <path
         d="m 406.38344,706.22434 -1.09375,0 0,-10.5664 1.09375,0 0,10.5664 z m -1.25,-13.61328 q 0,-0.33203 0.18554,-0.56641 0.18555,-0.23437 0.52735,-0.23437 0.3418,0 0.52734,0.23437 0.19531,0.23438 0.19531,0.56641 0,0.33203 -0.19531,0.56641 -0.18554,0.22461 -0.52734,0.22461 -0.3418,0 -0.52735,-0.22461 -0.18554,-0.23438 -0.18554,-0.56641 z"
         style="font-style:normal;font-variant:normal;font-weight:300;font-stretch:normal;font-size:20px;font-family:'Roboto Condensed';-inkscape-font-specification:'Roboto Condensed, Light';letter-spacing:-0.88px;fill:#ffffff;fill-opacity:1"
         id="path4381" />
      <path
         d="m 411.85109,705.41379 q 1.13282,0 1.73828,-0.63476 0.60547,-0.63477 0.6543,-1.82617 l 1.04492,0 q -0.0781,1.62109 -1.03515,2.54883 -0.95703,0.91796 -2.40235,0.91796 -1.88476,0 -2.85156,-1.20117 -0.95703,-1.21094 -0.97656,-3.58398 l 0,-1.28906 q 0,-2.42188 0.95703,-3.65235 0.9668,-1.23047 2.86133,-1.23047 1.57226,0 2.48047,0.9961 0.9082,0.98632 0.96679,2.76367 l -1.04492,0 q -0.0488,-1.3086 -0.66406,-2.02149 -0.61524,-0.72265 -1.73828,-0.72265 -1.40625,0 -2.07031,0.94726 -0.6543,0.94727 -0.6543,2.91016 l 0,1.20117 q 0,2.03125 0.66406,2.95899 0.66406,0.91796 2.07031,0.91796 z"
         style="font-style:normal;font-variant:normal;font-weight:300;font-stretch:normal;font-size:20px;font-family:'Roboto Condensed';-inkscape-font-specification:'Roboto Condensed, Light';letter-spacing:-0.88px;fill:#ffffff;fill-opacity:1"
         id="path4383" />
      <path
         d="m 422.27969,706.22434 q -0.14649,-0.50781 -0.19532,-1.46484 -0.48828,0.79101 -1.25976,1.23047 -0.76172,0.42968 -1.66016,0.42968 -1.36719,0 -2.1289,-0.77148 -0.76172,-0.77148 -0.76172,-2.19727 0,-1.55273 1.05468,-2.46093 1.06446,-0.90821 2.92969,-0.91797 l 1.81641,0 0,-1.47461 q 0,-1.13281 -0.56641,-1.6211 -0.55664,-0.49804 -1.64062,-0.49804 -1.00586,0 -1.65039,0.58594 -0.64454,0.58593 -0.64454,1.51367 l -1.08398,-0.01 q 0,-1.29883 0.97656,-2.19726 0.97657,-0.90821 2.45117,-0.90821 1.5918,0 2.41211,0.80078 0.82032,0.80079 0.82032,2.33399 l 0,5.18555 q 0,1.55273 0.2832,2.32421 l 0,0.11719 -1.15234,0 z m -2.97852,-0.84961 q 0.95703,0 1.68945,-0.49804 0.74219,-0.49805 1.08399,-1.32813 l 0,-2.56836 -1.71875,0 q -1.48438,0.0195 -2.23633,0.66406 -0.75195,0.63477 -0.75195,1.71875 0,2.01172 1.93359,2.01172 z"
         style="font-style:normal;font-variant:normal;font-weight:300;font-stretch:normal;font-size:20px;font-family:'Roboto Condensed';-inkscape-font-specification:'Roboto Condensed, Light';letter-spacing:-0.88px;fill:#ffffff;fill-opacity:1"
         id="path4385" />
      <path
         d="m 426.43875,706.22434 -1.09375,0 0,-15 1.09375,0 0,15 z"
         style="font-style:normal;font-variant:normal;font-weight:300;font-stretch:normal;font-size:20px;font-family:'Roboto Condensed';-inkscape-font-specification:'Roboto Condensed, Light';letter-spacing:-0.88px;fill:#ffffff;fill-opacity:1"
         id="path4387" />
      <path
         d="m 433.73148,706.22434 -1.11328,0 0,-14.21875 1.11328,0 0,14.21875 z"
         style="font-style:normal;font-variant:normal;font-weight:300;font-stretch:normal;font-size:20px;font-family:'Roboto Condensed';-inkscape-font-specification:'Roboto Condensed, Light';letter-spacing:-0.88px;fill:#ffffff;fill-opacity:1"
         id="path4389" />
      <path
         d="m 437.17766,695.65794 0.0293,1.58203 q 0.98633,-1.77735 2.83204,-1.77735 2.04101,0 2.63671,1.94336 0.49805,-0.96679 1.2793,-1.45508 0.79102,-0.48828 1.71875,-0.48828 2.85156,0 2.91992,3.67188 l 0,7.08984 -1.08398,0 0,-7.02148 q -0.0195,-1.36719 -0.50781,-2.03125 -0.48828,-0.67383 -1.60157,-0.67383 -1.00586,0.0195 -1.69921,0.78125 -0.69336,0.76172 -0.79102,1.91406 l 0,7.03125 -1.09375,0 0,-6.99219 q 0,-1.38671 -0.51758,-2.06054 -0.50781,-0.67383 -1.5918,-0.67383 -0.88867,0 -1.54296,0.61523 -0.64454,0.61524 -0.9375,1.75782 l 0,7.35351 -1.08399,0 0,-10.5664 1.03516,0 z"
         style="font-style:normal;font-variant:normal;font-weight:300;font-stretch:normal;font-size:20px;font-family:'Roboto Condensed';-inkscape-font-specification:'Roboto Condensed, Light';letter-spacing:-0.88px;fill:#ffffff;fill-opacity:1"
         id="path4391" />
      <path
         d="m 456.12187,706.22434 q -0.14648,-0.50781 -0.19531,-1.46484 -0.48828,0.79101 -1.25977,1.23047 -0.76171,0.42968 -1.66015,0.42968 -1.36719,0 -2.12891,-0.77148 -0.76172,-0.77148 -0.76172,-2.19727 0,-1.55273 1.05469,-2.46093 1.06445,-0.90821 2.92969,-0.91797 l 1.8164,0 0,-1.47461 q 0,-1.13281 -0.5664,-1.6211 -0.55664,-0.49804 -1.64063,-0.49804 -1.00586,0 -1.65039,0.58594 -0.64453,0.58593 -0.64453,1.51367 l -1.08398,-0.01 q 0,-1.29883 0.97656,-2.19726 0.97656,-0.90821 2.45117,-0.90821 1.5918,0 2.41211,0.80078 0.82031,0.80079 0.82031,2.33399 l 0,5.18555 q 0,1.55273 0.28321,2.32421 l 0,0.11719 -1.15235,0 z m -2.97851,-0.84961 q 0.95703,0 1.68945,-0.49804 0.74219,-0.49805 1.08398,-1.32813 l 0,-2.56836 -1.71875,0 q -1.48437,0.0195 -2.23632,0.66406 -0.75196,0.63477 -0.75196,1.71875 0,2.01172 1.9336,2.01172 z"
         style="font-style:normal;font-variant:normal;font-weight:300;font-stretch:normal;font-size:20px;font-family:'Roboto Condensed';-inkscape-font-specification:'Roboto Condensed, Light';letter-spacing:-0.88px;fill:#ffffff;fill-opacity:1"
         id="path4393" />
      <path
         d="m 458.68914,700.45286 q 0,-2.5 0.85938,-3.74024 0.85937,-1.25 2.57812,-1.25 1.82617,0 2.71484,1.66992 l 0.0586,-1.4746 1.00586,0 0,10.86914 q -0.01,1.91406 -0.91797,2.91015 -0.89844,0.9961 -2.62695,0.9961 -0.86915,0 -1.75782,-0.42969 -0.8789,-0.41992 -1.33789,-1.03516 l 0.50781,-0.78125 q 1.08399,1.24024 2.50977,1.24024 1.31836,0 1.91406,-0.70313 0.60547,-0.70312 0.61524,-2.13867 l 0,-1.67969 q -0.88867,1.51367 -2.69532,1.51367 -1.65039,0 -2.52929,-1.24023 -0.86914,-1.24023 -0.89844,-3.58398 l 0,-1.14258 z m 1.09375,0.98633 q 0,2.03125 0.61523,2.98828 0.61524,0.95703 1.9336,0.95703 1.75781,0 2.48047,-1.66992 l 0,-5.40039 q -0.73242,-1.80665 -2.46094,-1.80665 -1.32813,0 -1.94336,0.94727 -0.61523,0.94727 -0.625,2.92969 l 0,1.05469 z"
         style="font-style:normal;font-variant:normal;font-weight:300;font-stretch:normal;font-size:20px;font-family:'Roboto Condensed';-inkscape-font-specification:'Roboto Condensed, Light';letter-spacing:-0.88px;fill:#ffffff;fill-opacity:1"
         id="path4395" />
      <path
         d="m 469.1275,706.22434 -1.09375,0 0,-10.5664 1.09375,0 0,10.5664 z m -1.25,-13.61328 q 0,-0.33203 0.18555,-0.56641 0.18555,-0.23437 0.52734,-0.23437 0.3418,0 0.52735,0.23437 0.19531,0.23438 0.19531,0.56641 0,0.33203 -0.19531,0.56641 -0.18555,0.22461 -0.52735,0.22461 -0.34179,0 -0.52734,-0.22461 -0.18555,-0.23438 -0.18555,-0.56641 z"
         style="font-style:normal;font-variant:normal;font-weight:300;font-stretch:normal;font-size:20px;font-family:'Roboto Condensed';-inkscape-font-specification:'Roboto Condensed, Light';letter-spacing:-0.88px;fill:#ffffff;fill-opacity:1"
         id="path4397" />
      <path
         d="m 472.29047,695.65794 0.0293,1.67968 q 0.46875,-0.85937 1.19141,-1.36718 0.73242,-0.50782 1.66016,-0.50782 2.76367,0 2.83203,3.68164 l 0,7.08008 -1.07422,0 0,-6.96289 q -0.01,-1.41601 -0.49805,-2.08984 -0.48828,-0.67383 -1.5332,-0.67383 -0.84961,0 -1.5332,0.64453 -0.67383,0.63477 -1.0254,1.74805 l 0,7.33398 -1.08398,0 0,-10.5664 1.03516,0 z"
         style="font-style:normal;font-variant:normal;font-weight:300;font-stretch:normal;font-size:20px;font-family:'Roboto Condensed';-inkscape-font-specification:'Roboto Condensed, Light';letter-spacing:-0.88px;fill:#ffffff;fill-opacity:1"
         id="path4399" />
      <path
         d="m 479.64289,700.45286 q 0,-2.5 0.85938,-3.74024 0.85937,-1.25 2.57812,-1.25 1.82617,0 2.71484,1.66992 l 0.0586,-1.4746 1.00586,0 0,10.86914 q -0.01,1.91406 -0.91797,2.91015 -0.89844,0.9961 -2.62695,0.9961 -0.86914,0 -1.75782,-0.42969 -0.8789,-0.41992 -1.33789,-1.03516 l 0.50782,-0.78125 q 1.08398,1.24024 2.50976,1.24024 1.31836,0 1.91406,-0.70313 0.60547,-0.70312 0.61524,-2.13867 l 0,-1.67969 q -0.88867,1.51367 -2.69531,1.51367 -1.6504,0 -2.5293,-1.24023 -0.86914,-1.24023 -0.89844,-3.58398 l 0,-1.14258 z m 1.09375,0.98633 q 0,2.03125 0.61524,2.98828 0.61523,0.95703 1.93359,0.95703 1.75781,0 2.48047,-1.66992 l 0,-5.40039 q -0.73242,-1.80665 -2.46094,-1.80665 -1.32812,0 -1.94336,0.94727 -0.61523,0.94727 -0.625,2.92969 l 0,1.05469 z"
         style="font-style:normal;font-variant:normal;font-weight:300;font-stretch:normal;font-size:20px;font-family:'Roboto Condensed';-inkscape-font-specification:'Roboto Condensed, Light';letter-spacing:-0.88px;fill:#ffffff;fill-opacity:1"
         id="path4401" />
      <path
         d="m 499.39656,702.72825 q 0,-1.19141 -0.68359,-1.875 -0.67383,-0.6836 -2.5293,-1.3086 -1.85547,-0.625 -2.72461,-1.39648 -1.14258,-1.00586 -1.14258,-2.65625 0,-1.63086 1.12305,-2.65625 1.12305,-1.02539 2.90039,-1.02539 1.81641,0 2.96875,1.19141 1.15234,1.1914 1.15234,3.0664 l -1.12304,0 q 0,-1.43555 -0.81055,-2.31445 -0.80078,-0.88867 -2.1875,-0.88867 -1.34766,0 -2.12891,0.73242 -0.77148,0.72265 -0.77148,1.875 0,1.07422 0.73242,1.75781 0.73242,0.68359 2.33399,1.2207 1.60156,0.52735 2.42187,1.10352 0.82031,0.56641 1.21094,1.33789 0.39062,0.77148 0.39062,1.81641 0,1.66992 -1.13281,2.69531 -1.12305,1.01562 -2.97851,1.01562 -1.25,0 -2.28516,-0.50781 -1.02539,-0.51758 -1.61133,-1.47461 -0.57617,-0.96679 -0.57617,-2.27539 l 1.11328,0 q 0,1.50391 0.9082,2.36328 0.90821,0.85938 2.45118,0.85938 1.34765,0 2.1582,-0.72266 0.82031,-0.72265 0.82031,-1.93359 z"
         style="font-style:normal;font-variant:normal;font-weight:300;font-stretch:normal;font-size:20px;font-family:'Roboto Condensed';-inkscape-font-specification:'Roboto Condensed, Light';letter-spacing:-0.88px;fill:#ffffff;fill-opacity:1"
         id="path4403" />
      <path
         d="m 501.5439,700.40403 q 0,-2.28516 1.03516,-3.61328 1.03515,-1.32813 2.82226,-1.32813 1.79688,0 2.82227,1.3086 1.03515,1.30859 1.04492,3.60351 l 0,1.12305 q 0,2.32422 -1.04492,3.62305 -1.03516,1.29882 -2.80274,1.29882 -1.76758,0 -2.80273,-1.26953 -1.03516,-1.26953 -1.07422,-3.49609 l 0,-1.25 z m 1.09375,1.09375 q 0,1.82617 0.73242,2.87109 0.74219,1.04492 2.05078,1.04492 1.33789,0 2.04102,-1.00585 0.71289,-1.00586 0.72265,-2.88086 l 0,-1.12305 q 0,-1.82617 -0.74218,-2.87109 -0.74219,-1.05469 -2.04102,-1.05469 -1.25976,0 -2.00195,1.02539 -0.74219,1.02539 -0.76172,2.82226 l 0,1.17188 z"
         style="font-style:normal;font-variant:normal;font-weight:300;font-stretch:normal;font-size:20px;font-family:'Roboto Condensed';-inkscape-font-specification:'Roboto Condensed, Light';letter-spacing:-0.88px;fill:#ffffff;fill-opacity:1"
         id="path4405" />
      <path
         d="m 511.59164,706.22434 0,-9.58984 -1.45507,0 0,-0.97656 1.45507,0 0,-1.38672 q 0.0195,-1.57227 0.72266,-2.41211 0.71289,-0.83985 1.96289,-0.83985 0.56641,0 1.04492,0.16602 l -0.0781,0.99609 q -0.42969,-0.10742 -0.87891,-0.10742 -0.79101,0 -1.24023,0.5957 -0.43946,0.58594 -0.43946,1.68946 l 0,1.29883 2.07032,0 0,0.97656 -2.07032,0 0,9.58984 -1.09375,0 z"
         style="font-style:normal;font-variant:normal;font-weight:300;font-stretch:normal;font-size:20px;font-family:'Roboto Condensed';-inkscape-font-specification:'Roboto Condensed, Light';letter-spacing:-0.88px;fill:#ffffff;fill-opacity:1"
         id="path4407" />
      <path
         d="m 517.64523,692.96262 0,2.69532 1.80664,0 0,0.97656 -1.80664,0 0,7.02148 q 0,0.86914 0.25391,1.29883 0.26367,0.41992 0.86914,0.41992 0.26367,0 0.78125,-0.0977 l 0.0293,0.97656 q -0.3711,0.16601 -1.06446,0.16601 -1.90429,0 -1.95312,-2.61718 l 0,-7.16797 -1.63086,0 0,-0.97656 1.63086,0 0,-2.69532 1.08398,0 z"
         style="font-style:normal;font-variant:normal;font-weight:300;font-stretch:normal;font-size:20px;font-family:'Roboto Condensed';-inkscape-font-specification:'Roboto Condensed, Light';letter-spacing:-0.88px;fill:#ffffff;fill-opacity:1"
         id="path4409" />
      <path
         d="m 523.18124,703.822 0.0879,0.58594 0.11719,-0.63477 2.15821,-8.11523 0.9082,0 2.13867,8.04687 0.15625,0.83008 0.12695,-0.74219 1.82618,-8.13476 1.11328,0 -2.58789,10.5664 -0.90821,0 -2.29492,-8.39844 -0.0488,-0.2539 -0.0391,0.26367 -2.25586,8.38867 -0.91797,0 -2.56836,-10.5664 1.10352,0 1.88476,8.16406 z"
         style="font-style:normal;font-variant:normal;font-weight:300;font-stretch:normal;font-size:20px;font-family:'Roboto Condensed';-inkscape-font-specification:'Roboto Condensed, Light';letter-spacing:-0.88px;fill:#ffffff;fill-opacity:1"
         id="path4411" />
      <path
         d="m 538.7075,706.22434 q -0.14648,-0.50781 -0.19531,-1.46484 -0.48828,0.79101 -1.25976,1.23047 -0.76172,0.42968 -1.66016,0.42968 -1.36719,0 -2.12891,-0.77148 -0.76172,-0.77148 -0.76172,-2.19727 0,-1.55273 1.05469,-2.46093 1.06446,-0.90821 2.92969,-0.91797 l 1.81641,0 0,-1.47461 q 0,-1.13281 -0.56641,-1.6211 -0.55664,-0.49804 -1.64063,-0.49804 -1.00585,0 -1.65039,0.58594 -0.64453,0.58593 -0.64453,1.51367 l -1.08398,-0.01 q 0,-1.29883 0.97656,-2.19726 0.97656,-0.90821 2.45117,-0.90821 1.5918,0 2.41211,0.80078 0.82031,0.80079 0.82031,2.33399 l 0,5.18555 q 0,1.55273 0.28321,2.32421 l 0,0.11719 -1.15235,0 z m -2.97851,-0.84961 q 0.95703,0 1.68945,-0.49804 0.74219,-0.49805 1.08399,-1.32813 l 0,-2.56836 -1.71875,0 q -1.48438,0.0195 -2.23633,0.66406 -0.75196,0.63477 -0.75196,1.71875 0,2.01172 1.9336,2.01172 z"
         style="font-style:normal;font-variant:normal;font-weight:300;font-stretch:normal;font-size:20px;font-family:'Roboto Condensed';-inkscape-font-specification:'Roboto Condensed, Light';letter-spacing:-0.88px;fill:#ffffff;fill-opacity:1"
         id="path4413" />
      <path
         d="m 545.79625,696.67356 q -0.39063,-0.0684 -0.68359,-0.0684 -0.89844,0 -1.51368,0.61524 -0.60546,0.61523 -0.85937,1.70898 l 0,7.29492 -1.08399,0 0,-10.5664 1.06446,0 0.0195,1.58203 q 0.77148,-1.77735 2.42187,-1.77735 0.42969,0 0.6543,0.12696 l -0.0195,1.08398 z"
         style="font-style:normal;font-variant:normal;font-weight:300;font-stretch:normal;font-size:20px;font-family:'Roboto Condensed';-inkscape-font-specification:'Roboto Condensed, Light';letter-spacing:-0.88px;fill:#ffffff;fill-opacity:1"
         id="path4415" />
      <path
         d="m 550.31664,706.41965 q -1.86524,0 -2.91993,-1.2207 -1.05468,-1.2207 -1.07422,-3.47656 l 0,-1.28906 q 0,-2.32422 1.01563,-3.64258 1.01562,-1.32813 2.79297,-1.32813 1.71875,0 2.61719,1.12305 0.9082,1.12305 0.92773,3.4375 l 0,1.01562 -6.2793,0 0,0.59571 q 0,1.8164 0.77149,2.80273 0.78125,0.98633 2.19726,0.98633 1.5625,0 2.5293,-1.14258 l 0.56641,0.72266 q -1.03516,1.41601 -3.14453,1.41601 z m -0.18555,-9.9414 q -1.2793,0 -1.97266,0.9082 -0.68359,0.89844 -0.75195,2.63672 l 5.18555,0 0,-0.2832 q -0.0781,-3.26172 -2.46094,-3.26172 z"
         style="font-style:normal;font-variant:normal;font-weight:300;font-stretch:normal;font-size:20px;font-family:'Roboto Condensed';-inkscape-font-specification:'Roboto Condensed, Light';letter-spacing:-0.88px;fill:#ffffff;fill-opacity:1"
         id="path4417" />
    </g>
  </g>
  <g
     transform="translate(0,-796.36222)"
     style="display:inline"
     id="g4341" />
  <g
     style="display:none"
     id="g4315">
    <path
       id="path4317"
       transform="translate(-3.0517582e-5,-7.6293959e-6)"
       d="M 442,3.921875 3,81.074219 3,250.93945 442,173.78516 442,3.921875 Z"
       style="color:#000000;clip-rule:nonzero;display:inline;overflow:visible;visibility:visible;opacity:1;isolation:auto;mix-blend-mode:normal;color-interpolation:sRGB;color-interpolation-filters:linearRGB;solid-color:#000000;solid-opacity:1;fill:#231f20;fill-opacity:1;fill-rule:nonzero;stroke:none;stroke-width:1.00000012;stroke-linecap:butt;stroke-linejoin:miter;stroke-miterlimit:4;stroke-dasharray:none;stroke-dashoffset:0;stroke-opacity:1;marker:none;color-rendering:auto;image-rendering:auto;shape-rendering:auto;text-rendering:auto;enable-background:accumulate" />
  </g>
  <g
     id="g4309"
     style="display:none">
    <path
       id="path4311"
       transform="translate(-3.0517582e-5,-7.6293959e-6)"
       d="M 3,3 3,253 215.36328,253 442,213.16992 442,3 3,3 Z"
       style="color:#000000;clip-rule:nonzero;display:inline;overflow:visible;visibility:visible;opacity:1;isolation:auto;mix-blend-mode:normal;color-interpolation:sRGB;color-interpolation-filters:linearRGB;solid-color:#000000;solid-opacity:1;fill:#231f20;fill-opacity:1;fill-rule:nonzero;stroke:none;stroke-width:1.00000012;stroke-linecap:butt;stroke-linejoin:miter;stroke-miterlimit:4;stroke-dasharray:none;stroke-dashoffset:0;stroke-opacity:1;marker:none;color-rendering:auto;image-rendering:auto;shape-rendering:auto;text-rendering:auto;enable-background:accumulate" />
  </g>
  <g
     style="display:none"
     id="g4303">
    <rect
       y="2.9999924"
       x="2.9999654"
       height="250.00005"
       width="439.00006"
       id="rect4305"
       style="color:#000000;clip-rule:nonzero;display:inline;overflow:visible;visibility:visible;opacity:1;isolation:auto;mix-blend-mode:normal;color-interpolation:sRGB;color-interpolation-filters:linearRGB;solid-color:#000000;solid-opacity:1;fill:#231f20;fill-opacity:1;fill-rule:nonzero;stroke:none;stroke-width:1.00000012;stroke-linecap:butt;stroke-linejoin:miter;stroke-miterlimit:4;stroke-dasharray:none;stroke-dashoffset:0;stroke-opacity:1;marker:none;color-rendering:auto;image-rendering:auto;shape-rendering:auto;text-rendering:auto;enable-background:accumulate" />
  </g>
  <g
     style="display:none"
     id="g4279">
    <path
       style="color:#000000;clip-rule:nonzero;display:inline;overflow:visible;visibility:visible;opacity:1;isolation:auto;mix-blend-mode:normal;color-interpolation:sRGB;color-interpolation-filters:linearRGB;solid-color:#000000;solid-opacity:1;fill:#231f20;fill-opacity:1;fill-rule:nonzero;stroke:none;stroke-width:1.00000012;stroke-linecap:butt;stroke-linejoin:miter;stroke-miterlimit:4;stroke-dasharray:none;stroke-dashoffset:0;stroke-opacity:1;marker:none;color-rendering:auto;image-rendering:auto;shape-rendering:auto;text-rendering:auto;enable-background:accumulate"
       d="M 3,3 3,253 215.36328,253 442,213.16992 442,3 3,3 Z"
       transform="translate(-3.0517582e-5,-7.6293959e-6)"
       id="rect4281" />
    <path
       d="m 157.49924,219.92725 c 1.26244,-3.80628 1.89884,-7.95856 1.89884,-12.33331 0,-15.59089 -7.48084,-30.56512 -38.67716,-41.17184 C 37.747864,138.34545 -2.1785014,122.12337 -2.1785014,51.002453 c 0,-67.384016 47.4071964,-101.693 128.5154214,-101.693 94.82775,0 122.28324,46.1635674 122.28324,94.829815 l 0,11.230657 -89.83769,0 0,-6.24619 c 0,-29.317626 -11.85458,-37.428655 -33.07502,-37.428655 -26.826703,0 -34.30759,13.102439 -34.30759,31.196345 0,59.890245 161.58706,19.965669 161.58706,150.983395 0,3.14735 -0.0969,6.23926 -0.29117,9.26851 l -95.19651,16.78392 z m -162.1824804,-31.66777 89.8480154,0 c 0.61699,14.97426 1.865558,28.07668 6.854847,38.05951 0.974714,1.62219 2.061011,3.15396 3.279801,4.57537 L 2.5944986,247.2413 c -4.925504,-12.58945 -7.277739,-27.25868 -7.277739,-44.00756 l 0,-14.97426 z"
       style="display:inline;opacity:0.11400003;fill:#ffffff;fill-opacity:1;fill-rule:evenodd;stroke:#ffffff;stroke-width:11.09200954;stroke-miterlimit:4;stroke-dasharray:none;stroke-opacity:1"
       id="path4283" />
  </g>
  <g
     id="layer1"
     style="display:none">
    <rect
       style="color:#000000;clip-rule:nonzero;display:inline;overflow:visible;visibility:visible;opacity:1;isolation:auto;mix-blend-mode:normal;color-interpolation:sRGB;color-interpolation-filters:linearRGB;solid-color:#000000;solid-opacity:1;fill:#231f20;fill-opacity:1;fill-rule:nonzero;stroke:none;stroke-width:1.00000012;stroke-linecap:butt;stroke-linejoin:miter;stroke-miterlimit:4;stroke-dasharray:none;stroke-dashoffset:0;stroke-opacity:1;marker:none;color-rendering:auto;image-rendering:auto;shape-rendering:auto;text-rendering:auto;enable-background:accumulate"
       id="rect4172"
       width="439.00006"
       height="250.00005"
       x="2.9999654"
       y="2.9999924" />
    <path
       id="path5100-3"
       style="display:inline;opacity:0.11400003;fill:#ffffff;fill-opacity:1;fill-rule:evenodd;stroke:#ffffff;stroke-width:11.09200954;stroke-miterlimit:4;stroke-dasharray:none;stroke-opacity:1"
       d="m 157.49924,219.92725 c 1.26244,-3.80628 1.89884,-7.95856 1.89884,-12.33331 0,-15.59089 -7.48084,-30.56512 -38.67716,-41.17184 C 37.747864,138.34545 -2.1785014,122.12337 -2.1785014,51.002453 c 0,-67.384016 47.4071964,-101.693 128.5154214,-101.693 94.82775,0 122.28324,46.1635674 122.28324,94.829815 l 0,11.230657 -89.83769,0 0,-6.24619 c 0,-29.317626 -11.85458,-37.428655 -33.07502,-37.428655 -26.826703,0 -34.30759,13.102439 -34.30759,31.196345 0,59.890245 161.58706,19.965669 161.58706,150.983395 0,3.14735 -0.0969,6.23926 -0.29117,9.26851 l -95.19651,16.78392 z m -162.1824804,-31.66777 89.8480154,0 c 0.61699,14.97426 1.865558,28.07668 6.854847,38.05951 0.974714,1.62219 2.061011,3.15396 3.279801,4.57537 L 2.5944986,247.2413 c -4.925504,-12.58945 -7.277739,-27.25868 -7.277739,-44.00756 l 0,-14.97426 z" />
  </g>
  <g
     id="g4240"
     style="display:none">
    <path
       style="color:#000000;clip-rule:nonzero;display:inline;overflow:visible;visibility:visible;opacity:1;isolation:auto;mix-blend-mode:normal;color-interpolation:sRGB;color-interpolation-filters:linearRGB;solid-color:#000000;solid-opacity:1;fill:#231f20;fill-opacity:1;fill-rule:nonzero;stroke:none;stroke-width:1.00000012;stroke-linecap:butt;stroke-linejoin:miter;stroke-miterlimit:4;stroke-dasharray:none;stroke-dashoffset:0;stroke-opacity:1;marker:none;color-rendering:auto;image-rendering:auto;shape-rendering:auto;text-rendering:auto;enable-background:accumulate"
       d="M 442,3.921875 3,81.074219 3,250.93945 442,173.78516 442,3.921875 Z"
       transform="translate(-3.0517582e-5,-7.6293959e-6)"
       id="rect4242" />
    <path
       style="display:inline;opacity:0.11400003;fill:#ffffff;fill-opacity:1;fill-rule:evenodd;stroke:#ffffff;stroke-width:11.09200954;stroke-miterlimit:4;stroke-dasharray:none;stroke-opacity:1"
       d="m 248.44727,37.9375 -89.66407,15.759766 0,1.671875 89.83789,0 0,-11.230469 c 0,-2.0741 -0.071,-4.139544 -0.17382,-6.201172 z M 101.05078,63.84375 0.96289062,81.433594 C 11.842683,127.66434 51.144904,142.87862 120.7207,166.42188 c 31.19632,10.6067 38.67774,25.58098 38.67774,41.17187 0,4.37475 -0.636,8.52772 -1.89844,12.33398 l 95.19531,-16.78515 c 0.19427,-3.02925 0.29102,-6.12023 0.29102,-9.26758 0,-111.563126 -117.14114,-99.191644 -151.93555,-130.03125 z m -105.7343738,124.41602 0,14.97461 c 0,16.74886 2.351841,31.41836 7.2773438,44.00781 l 92.705078,-16.34766 c -1.21879,-1.42141 -2.304583,-2.95398 -3.279297,-4.57617 -4.989287,-9.98283 -6.238479,-23.08435 -6.855469,-38.05859 l -89.8476558,0 z"
       transform="translate(-3.0517582e-5,-7.6293959e-6)"
       id="path4244" />
  </g>
  <g
     id="layer3"
     style="display:none"
     transform="translate(0,-796.36222)">
    <path
       id="path5096"
       style="fill:#ffffff;fill-opacity:1;fill-rule:evenodd;stroke:none"
       d="m 129.68431,944.32541 c 0.22763,-0.6863 0.34238,-1.435 0.34238,-2.2238 0,-2.8112 -1.34887,-5.5112 -6.97387,-7.4237 -14.96088,-5.0625 -22.16,-7.9875 -22.16,-20.81126 0,-12.15 8.54799,-18.33625 23.17262,-18.33625 17.09838,0 22.04888,8.32375 22.04888,17.09875 l 0,2.025 -16.19863,0 0,-1.12625 c 0,-5.28625 -2.1375,-6.74875 -5.96375,-6.74875 -4.83712,0 -6.186,2.3625 -6.186,5.625 0,10.79876 29.13575,3.6 29.13575,27.22376 0,0.5675 -0.0175,1.125 -0.0525,1.6712 l -17.16488,3.0263 z m -29.24312,-5.71 16.2005,0 c 0.11125,2.7 0.33638,5.0625 1.236,6.8625 0.17575,0.2925 0.37162,0.5687 0.59138,0.825 l -16.71563,2.9475 c -0.88812,-2.27 -1.31225,-4.915 -1.31225,-7.935 l 0,-2.7 z" />
    <g
       id="g4208"
       transform="translate(54.192901,-81.93701)"
       style="stroke:#ffffff;stroke-width:2.00000024;stroke-miterlimit:4;stroke-dasharray:none;stroke-opacity:1">
      <path
         d="m 5.11179,973.93364 c 0,-5.08875 4.12475,-9.21375 9.21387,-9.21375 l 109.47325,0 c 5.0885,0 9.21388,4.125 9.21388,9.21375 l 0,64.73126 c 0,5.0875 -4.12538,9.2137 -9.21388,9.2137 l -109.47325,0 c -5.08912,0 -9.21387,-4.1262 -9.21387,-9.2137 l 0,-64.73126 z"
         style="fill:#231f20;fill-opacity:1;fill-rule:nonzero;stroke:#ffffff;stroke-width:2.00000024;stroke-miterlimit:4;stroke-dasharray:none;stroke-opacity:1"
         id="path5094" />
      <path
         id="path5100"
         style="fill:#ffffff;fill-opacity:1;fill-rule:evenodd;stroke:#ffffff;stroke-width:2.00000024;stroke-miterlimit:4;stroke-dasharray:none;stroke-opacity:1"
         d="m 75.49141,1026.2624 c 0.22763,-0.6863 0.34238,-1.435 0.34238,-2.2238 0,-2.8112 -1.34887,-5.5112 -6.97387,-7.4237 -14.96088,-5.0625 -22.16,-7.9875 -22.16,-20.81126 0,-12.15 8.54799,-18.33625 23.17262,-18.33625 17.09838,0 22.04888,8.32375 22.04888,17.09875 l 0,2.025 -16.19863,0 0,-1.12625 c 0,-5.28625 -2.1375,-6.74875 -5.96375,-6.74875 -4.83712,0 -6.186,2.3625 -6.186,5.625 0,10.79876 29.13575,3.6 29.13575,27.22376 0,0.5675 -0.0175,1.125 -0.0525,1.6712 l -17.16488,3.0263 z m -29.24312,-5.71 16.2005,0 c 0.11125,2.7 0.33638,5.0625 1.236,6.8625 0.17575,0.2925 0.37162,0.5687 0.59138,0.825 l -16.71563,2.9475 c -0.88812,-2.27 -1.31225,-4.915 -1.31225,-7.935 l 0,-2.7 z" />
    </g>
    <g
       id="flowRoot5102"
       style="font-style:normal;font-variant:normal;font-weight:normal;font-stretch:normal;font-size:40px;line-height:125%;font-family:'Roboto Condensed';-inkscape-font-specification:'Roboto Condensed, ';letter-spacing:0px;word-spacing:0px;display:inline;fill:#ffffff;fill-opacity:1;stroke:none;stroke-width:1px;stroke-linecap:butt;stroke-linejoin:miter;stroke-opacity:1"
       transform="translate(-167.98071,211.90114)">
      <path
         id="path5216"
         style="font-style:normal;font-variant:normal;font-weight:normal;font-stretch:normal;font-size:20px;font-family:'Roboto Condensed';-inkscape-font-specification:'Roboto Condensed, ';fill:#ffffff;fill-opacity:1"
         d="m 380.24414,702.63059 q 0,-1.06445 -0.57617,-1.63086 -0.57617,-0.5664 -2.08008,-1.10351 -1.50391,-0.53711 -2.30469,-1.12305 -0.79101,-0.5957 -1.1914,-1.34766 -0.39063,-0.76172 -0.39063,-1.73828 0,-1.68945 1.12305,-2.7832 1.13281,-1.09375 2.95898,-1.09375 1.25,0 2.22657,0.56641 0.97656,0.55664 1.5039,1.55273 0.52735,0.99609 0.52735,2.1875 l -1.79688,0 q 0,-1.31836 -0.63477,-2.04102 -0.63476,-0.72265 -1.82617,-0.72265 -1.08398,0 -1.67968,0.60547 -0.59571,0.60547 -0.59571,1.69922 0,0.89843 0.64453,1.5039 0.64453,0.60547 1.99219,1.08399 2.09961,0.69336 2.99805,1.70898 0.9082,1.01563 0.9082,2.65625 0,1.72852 -1.12305,2.77344 -1.12304,1.03515 -3.05664,1.03515 -1.24023,0 -2.29492,-0.53711 -1.04492,-0.54687 -1.65039,-1.52343 -0.5957,-0.98633 -0.5957,-2.25586 l 1.79687,0 q 0,1.31836 0.73242,2.05078 0.74219,0.73242 2.01172,0.73242 1.18164,0 1.77735,-0.60547 0.5957,-0.60547 0.5957,-1.65039 z" />
      <path
         id="path5218"
         style="font-style:normal;font-variant:normal;font-weight:normal;font-stretch:normal;font-size:20px;font-family:'Roboto Condensed';-inkscape-font-specification:'Roboto Condensed, ';fill:#ffffff;fill-opacity:1"
         d="m 386.40625,693.09934 0,2.5586 1.5918,0 0,1.39648 -1.5918,0 0,6.55273 q 0,0.625 0.20508,0.94727 0.20508,0.32227 0.70312,0.32227 0.3418,0 0.69336,-0.11719 l -0.0195,1.46484 q -0.58594,0.19531 -1.20117,0.19531 -1.02539,0 -1.5625,-0.73242 -0.53711,-0.73242 -0.53711,-2.07031 l 0,-6.5625 -1.61133,0 0,-1.39648 1.61133,0 0,-2.5586 1.71875,0 z" />
      <path
         id="path5220"
         style="font-style:normal;font-variant:normal;font-weight:normal;font-stretch:normal;font-size:20px;font-family:'Roboto Condensed';-inkscape-font-specification:'Roboto Condensed, ';fill:#ffffff;fill-opacity:1"
         d="m 395.47852,706.22434 q -0.15625,-0.3418 -0.22461,-1.15234 -0.91797,1.34765 -2.34375,1.34765 -1.43555,0 -2.2461,-0.80078 -0.80078,-0.81054 -0.80078,-2.27539 0,-1.61133 1.09375,-2.55859 1.09375,-0.94727 2.99805,-0.9668 l 1.26953,0 0,-1.12305 q 0,-0.94726 -0.41992,-1.34765 -0.41992,-0.40039 -1.2793,-0.40039 -0.78125,0 -1.26953,0.46875 -0.48828,0.45898 -0.48828,1.17187 l -1.72852,0 q 0,-0.81054 0.47852,-1.54297 0.47851,-0.74218 1.28906,-1.16211 0.81055,-0.41992 1.80664,-0.41992 1.62109,0 2.46094,0.81055 0.84961,0.80078 0.86914,2.34375 l 0,5.33203 q 0.01,1.2207 0.33203,2.11914 l 0,0.15625 -1.79687,0 z m -2.30469,-1.37695 q 0.63476,0 1.21094,-0.35156 0.57617,-0.35157 0.83984,-0.87891 l 0,-2.51953 -0.97656,0 q -1.23047,0.0195 -1.94336,0.55664 -0.71289,0.52734 -0.71289,1.48437 0,0.89844 0.36132,1.3086 0.36133,0.40039 1.22071,0.40039 z" />
      <path
         id="path5222"
         style="font-style:normal;font-variant:normal;font-weight:normal;font-stretch:normal;font-size:20px;font-family:'Roboto Condensed';-inkscape-font-specification:'Roboto Condensed, ';fill:#ffffff;fill-opacity:1"
         d="m 403.97461,697.27903 q -0.36133,-0.0684 -0.78125,-0.0684 -1.32813,0 -1.85547,1.45508 l 0,7.55859 -1.72852,0 0,-10.5664 1.67969,0 0.0293,1.07421 q 0.69336,-1.26953 1.96289,-1.26953 0.41016,0 0.68359,0.13672 l 0.01,1.67969 z" />
      <path
         id="path5224"
         style="font-style:normal;font-variant:normal;font-weight:normal;font-stretch:normal;font-size:20px;font-family:'Roboto Condensed';-inkscape-font-specification:'Roboto Condensed, ';fill:#ffffff;fill-opacity:1"
         d="m 408.89648,703.59739 2.00196,-7.93945 1.75781,0 -3.13477,10.5664 -1.28906,0 -3.17383,-10.5664 1.75782,0 2.08007,7.93945 z" />
      <path
         id="path5226"
         style="font-style:normal;font-variant:normal;font-weight:normal;font-stretch:normal;font-size:20px;font-family:'Roboto Condensed';-inkscape-font-specification:'Roboto Condensed, ';fill:#ffffff;fill-opacity:1"
         d="m 416.31836,706.22434 -1.72852,0 0,-10.5664 1.72852,0 0,10.5664 z m 0.13672,-13.36914 q 0,0.43945 -0.24414,0.73242 -0.24414,0.29297 -0.74219,0.29297 -0.48828,0 -0.73242,-0.29297 -0.24414,-0.29297 -0.24414,-0.73242 0,-0.43945 0.24414,-0.74219 0.24414,-0.30273 0.73242,-0.30273 0.48828,0 0.73242,0.3125 0.25391,0.30273 0.25391,0.73242 z" />
      <path
         id="path5228"
         style="font-style:normal;font-variant:normal;font-weight:normal;font-stretch:normal;font-size:20px;font-family:'Roboto Condensed';-inkscape-font-specification:'Roboto Condensed, ';fill:#ffffff;fill-opacity:1"
         d="m 422.80273,706.41965 q -1.97265,0 -3.02734,-1.17187 -1.05469,-1.18164 -1.07422,-3.45703 l 0,-1.2793 q 0,-2.36328 1.02539,-3.70117 1.03516,-1.34766 2.88086,-1.34766 1.85547,0 2.77344,1.18164 0.91797,1.18164 0.9375,3.68164 l 0,1.13282 -5.89844,0 0,0.24414 q 0,1.69922 0.63477,2.4707 0.64453,0.77148 1.8457,0.77148 0.76172,0 1.33789,-0.2832 0.58594,-0.29297 1.09375,-0.91797 l 0.89844,1.09375 q -1.12305,1.58203 -3.42774,1.58203 z m -0.19531,-9.47265 q -1.07422,0 -1.5918,0.74219 -0.51757,0.73242 -0.58593,2.28515 l 4.16015,0 0,-0.23437 q -0.0684,-1.50391 -0.54687,-2.14844 -0.46875,-0.64453 -1.43555,-0.64453 z" />
      <path
         id="path5230"
         style="font-style:normal;font-variant:normal;font-weight:normal;font-stretch:normal;font-size:20px;font-family:'Roboto Condensed';-inkscape-font-specification:'Roboto Condensed, ';fill:#ffffff;fill-opacity:1"
         d="m 436.2793,703.18723 1.60156,-7.52929 1.70898,0 -2.58789,10.5664 -1.37695,0 -2.06055,-7.55859 -2.01172,7.55859 -1.38671,0 -2.56836,-10.5664 1.69921,0 1.64063,7.34375 1.96289,-7.34375 1.36719,0 2.01172,7.52929 z" />
      <path
         id="path5232"
         style="font-style:normal;font-variant:normal;font-weight:normal;font-stretch:normal;font-size:20px;font-family:'Roboto Condensed';-inkscape-font-specification:'Roboto Condensed, ';fill:#ffffff;fill-opacity:1"
         d="m 445.18555,706.41965 q -1.97266,0 -3.02735,-1.17187 -1.05468,-1.18164 -1.07422,-3.45703 l 0,-1.2793 q 0,-2.36328 1.02539,-3.70117 1.03516,-1.34766 2.88086,-1.34766 1.85547,0 2.77344,1.18164 0.91797,1.18164 0.9375,3.68164 l 0,1.13282 -5.89844,0 0,0.24414 q 0,1.69922 0.63477,2.4707 0.64453,0.77148 1.8457,0.77148 0.76172,0 1.33789,-0.2832 0.58594,-0.29297 1.09375,-0.91797 l 0.89844,1.09375 q -1.12305,1.58203 -3.42773,1.58203 z m -0.19532,-9.47265 q -1.07421,0 -1.59179,0.74219 -0.51758,0.73242 -0.58594,2.28515 l 4.16016,0 0,-0.23437 q -0.0684,-1.50391 -0.54688,-2.14844 -0.46875,-0.64453 -1.43555,-0.64453 z" />
      <path
         id="path5234"
         style="font-style:normal;font-variant:normal;font-weight:normal;font-stretch:normal;font-size:20px;font-family:'Roboto Condensed';-inkscape-font-specification:'Roboto Condensed, ';fill:#ffffff;fill-opacity:1"
         d="m 455.14648,697.27903 q -0.36132,-0.0684 -0.78125,-0.0684 -1.32812,0 -1.85546,1.45508 l 0,7.55859 -1.72852,0 0,-10.5664 1.67969,0 0.0293,1.07421 q 0.69336,-1.26953 1.96289,-1.26953 0.41016,0 0.6836,0.13672 l 0.01,1.67969 z" />
    </g>
    <g
       id="flowRoot5110"
       style="font-style:normal;font-variant:normal;font-weight:normal;font-stretch:normal;font-size:40px;line-height:125%;font-family:'Roboto Condensed';-inkscape-font-specification:'Roboto Condensed, ';letter-spacing:0px;word-spacing:0px;display:inline;fill:#ffffff;fill-opacity:1;stroke:none;stroke-width:1px;stroke-linecap:butt;stroke-linejoin:miter;stroke-opacity:1"
       transform="translate(-167.98071,235.90114)">
      <path
         id="path5171"
         style="font-style:normal;font-variant:normal;font-weight:300;font-stretch:normal;font-size:20px;font-family:'Roboto Condensed';-inkscape-font-specification:'Roboto Condensed, Light';letter-spacing:-0.88px;fill:#ffffff;fill-opacity:1"
         d="m 375.6543,692.00559 4.30664,12.50977 4.32617,-12.50977 1.47461,0 0,14.21875 -1.11328,0 0,-6.16211 0.0976,-6.20117 -4.35547,12.36328 -0.85937,0 -4.33594,-12.30469 0.0977,6.10352 0,6.20117 -1.11328,0 0,-14.21875 1.47461,0 z" />
      <path
         id="path5173"
         style="font-style:normal;font-variant:normal;font-weight:300;font-stretch:normal;font-size:20px;font-family:'Roboto Condensed';-inkscape-font-specification:'Roboto Condensed, Light';letter-spacing:-0.88px;fill:#ffffff;fill-opacity:1"
         d="m 391.51258,706.41965 q -1.86524,0 -2.91992,-1.2207 -1.05469,-1.2207 -1.07422,-3.47656 l 0,-1.28906 q 0,-2.32422 1.01562,-3.64258 1.01563,-1.32813 2.79297,-1.32813 1.71875,0 2.61719,1.12305 0.9082,1.12305 0.92773,3.4375 l 0,1.01562 -6.27929,0 0,0.59571 q 0,1.8164 0.77148,2.80273 0.78125,0.98633 2.19727,0.98633 1.5625,0 2.52929,-1.14258 l 0.56641,0.72266 q -1.03516,1.41601 -3.14453,1.41601 z m -0.18555,-9.9414 q -1.2793,0 -1.97266,0.9082 -0.68359,0.89844 -0.75195,2.63672 l 5.18555,0 0,-0.2832 q -0.0781,-3.26172 -2.46094,-3.26172 z" />
      <path
         id="path5175"
         style="font-style:normal;font-variant:normal;font-weight:300;font-stretch:normal;font-size:20px;font-family:'Roboto Condensed';-inkscape-font-specification:'Roboto Condensed, Light';letter-spacing:-0.88px;fill:#ffffff;fill-opacity:1"
         d="m 395.89625,700.45286 q 0,-2.48047 0.86914,-3.73047 0.86914,-1.25977 2.57813,-1.25977 1.79687,0 2.68554,1.61133 l 0,-5.84961 1.08399,0 0,15 -1.01563,0 -0.0488,-1.35742 q -0.88867,1.55273 -2.71484,1.55273 -1.66992,0 -2.54883,-1.26953 -0.86914,-1.26953 -0.88867,-3.60351 l 0,-1.09375 z m 1.10352,0.98633 q 0,2.03125 0.60546,2.98828 0.61524,0.95703 1.94336,0.95703 1.70899,0 2.48047,-1.63086 l 0,-5.47852 q -0.73242,-1.76758 -2.4707,-1.76758 -1.32813,0 -1.94336,0.94727 -0.60547,0.94727 -0.61523,2.92969 l 0,1.05469 z" />
      <path
         id="path5177"
         style="font-style:normal;font-variant:normal;font-weight:300;font-stretch:normal;font-size:20px;font-family:'Roboto Condensed';-inkscape-font-specification:'Roboto Condensed, Light';letter-spacing:-0.88px;fill:#ffffff;fill-opacity:1"
         d="m 406.38344,706.22434 -1.09375,0 0,-10.5664 1.09375,0 0,10.5664 z m -1.25,-13.61328 q 0,-0.33203 0.18554,-0.56641 0.18555,-0.23437 0.52735,-0.23437 0.3418,0 0.52734,0.23437 0.19531,0.23438 0.19531,0.56641 0,0.33203 -0.19531,0.56641 -0.18554,0.22461 -0.52734,0.22461 -0.3418,0 -0.52735,-0.22461 -0.18554,-0.23438 -0.18554,-0.56641 z" />
      <path
         id="path5179"
         style="font-style:normal;font-variant:normal;font-weight:300;font-stretch:normal;font-size:20px;font-family:'Roboto Condensed';-inkscape-font-specification:'Roboto Condensed, Light';letter-spacing:-0.88px;fill:#ffffff;fill-opacity:1"
         d="m 411.85109,705.41379 q 1.13282,0 1.73828,-0.63476 0.60547,-0.63477 0.6543,-1.82617 l 1.04492,0 q -0.0781,1.62109 -1.03515,2.54883 -0.95703,0.91796 -2.40235,0.91796 -1.88476,0 -2.85156,-1.20117 -0.95703,-1.21094 -0.97656,-3.58398 l 0,-1.28906 q 0,-2.42188 0.95703,-3.65235 0.9668,-1.23047 2.86133,-1.23047 1.57226,0 2.48047,0.9961 0.9082,0.98632 0.96679,2.76367 l -1.04492,0 q -0.0488,-1.3086 -0.66406,-2.02149 -0.61524,-0.72265 -1.73828,-0.72265 -1.40625,0 -2.07031,0.94726 -0.6543,0.94727 -0.6543,2.91016 l 0,1.20117 q 0,2.03125 0.66406,2.95899 0.66406,0.91796 2.07031,0.91796 z" />
      <path
         id="path5181"
         style="font-style:normal;font-variant:normal;font-weight:300;font-stretch:normal;font-size:20px;font-family:'Roboto Condensed';-inkscape-font-specification:'Roboto Condensed, Light';letter-spacing:-0.88px;fill:#ffffff;fill-opacity:1"
         d="m 422.27969,706.22434 q -0.14649,-0.50781 -0.19532,-1.46484 -0.48828,0.79101 -1.25976,1.23047 -0.76172,0.42968 -1.66016,0.42968 -1.36719,0 -2.1289,-0.77148 -0.76172,-0.77148 -0.76172,-2.19727 0,-1.55273 1.05468,-2.46093 1.06446,-0.90821 2.92969,-0.91797 l 1.81641,0 0,-1.47461 q 0,-1.13281 -0.56641,-1.6211 -0.55664,-0.49804 -1.64062,-0.49804 -1.00586,0 -1.65039,0.58594 -0.64454,0.58593 -0.64454,1.51367 l -1.08398,-0.01 q 0,-1.29883 0.97656,-2.19726 0.97657,-0.90821 2.45117,-0.90821 1.5918,0 2.41211,0.80078 0.82032,0.80079 0.82032,2.33399 l 0,5.18555 q 0,1.55273 0.2832,2.32421 l 0,0.11719 -1.15234,0 z m -2.97852,-0.84961 q 0.95703,0 1.68945,-0.49804 0.74219,-0.49805 1.08399,-1.32813 l 0,-2.56836 -1.71875,0 q -1.48438,0.0195 -2.23633,0.66406 -0.75195,0.63477 -0.75195,1.71875 0,2.01172 1.93359,2.01172 z" />
      <path
         id="path5183"
         style="font-style:normal;font-variant:normal;font-weight:300;font-stretch:normal;font-size:20px;font-family:'Roboto Condensed';-inkscape-font-specification:'Roboto Condensed, Light';letter-spacing:-0.88px;fill:#ffffff;fill-opacity:1"
         d="m 426.43875,706.22434 -1.09375,0 0,-15 1.09375,0 0,15 z" />
      <path
         id="path5185"
         style="font-style:normal;font-variant:normal;font-weight:300;font-stretch:normal;font-size:20px;font-family:'Roboto Condensed';-inkscape-font-specification:'Roboto Condensed, Light';letter-spacing:-0.88px;fill:#ffffff;fill-opacity:1"
         d="m 433.73148,706.22434 -1.11328,0 0,-14.21875 1.11328,0 0,14.21875 z" />
      <path
         id="path5187"
         style="font-style:normal;font-variant:normal;font-weight:300;font-stretch:normal;font-size:20px;font-family:'Roboto Condensed';-inkscape-font-specification:'Roboto Condensed, Light';letter-spacing:-0.88px;fill:#ffffff;fill-opacity:1"
         d="m 437.17766,695.65794 0.0293,1.58203 q 0.98633,-1.77735 2.83204,-1.77735 2.04101,0 2.63671,1.94336 0.49805,-0.96679 1.2793,-1.45508 0.79102,-0.48828 1.71875,-0.48828 2.85156,0 2.91992,3.67188 l 0,7.08984 -1.08398,0 0,-7.02148 q -0.0195,-1.36719 -0.50781,-2.03125 -0.48828,-0.67383 -1.60157,-0.67383 -1.00586,0.0195 -1.69921,0.78125 -0.69336,0.76172 -0.79102,1.91406 l 0,7.03125 -1.09375,0 0,-6.99219 q 0,-1.38671 -0.51758,-2.06054 -0.50781,-0.67383 -1.5918,-0.67383 -0.88867,0 -1.54296,0.61523 -0.64454,0.61524 -0.9375,1.75782 l 0,7.35351 -1.08399,0 0,-10.5664 1.03516,0 z" />
      <path
         id="path5189"
         style="font-style:normal;font-variant:normal;font-weight:300;font-stretch:normal;font-size:20px;font-family:'Roboto Condensed';-inkscape-font-specification:'Roboto Condensed, Light';letter-spacing:-0.88px;fill:#ffffff;fill-opacity:1"
         d="m 456.12187,706.22434 q -0.14648,-0.50781 -0.19531,-1.46484 -0.48828,0.79101 -1.25977,1.23047 -0.76171,0.42968 -1.66015,0.42968 -1.36719,0 -2.12891,-0.77148 -0.76172,-0.77148 -0.76172,-2.19727 0,-1.55273 1.05469,-2.46093 1.06445,-0.90821 2.92969,-0.91797 l 1.8164,0 0,-1.47461 q 0,-1.13281 -0.5664,-1.6211 -0.55664,-0.49804 -1.64063,-0.49804 -1.00586,0 -1.65039,0.58594 -0.64453,0.58593 -0.64453,1.51367 l -1.08398,-0.01 q 0,-1.29883 0.97656,-2.19726 0.97656,-0.90821 2.45117,-0.90821 1.5918,0 2.41211,0.80078 0.82031,0.80079 0.82031,2.33399 l 0,5.18555 q 0,1.55273 0.28321,2.32421 l 0,0.11719 -1.15235,0 z m -2.97851,-0.84961 q 0.95703,0 1.68945,-0.49804 0.74219,-0.49805 1.08398,-1.32813 l 0,-2.56836 -1.71875,0 q -1.48437,0.0195 -2.23632,0.66406 -0.75196,0.63477 -0.75196,1.71875 0,2.01172 1.9336,2.01172 z" />
      <path
         id="path5191"
         style="font-style:normal;font-variant:normal;font-weight:300;font-stretch:normal;font-size:20px;font-family:'Roboto Condensed';-inkscape-font-specification:'Roboto Condensed, Light';letter-spacing:-0.88px;fill:#ffffff;fill-opacity:1"
         d="m 458.68914,700.45286 q 0,-2.5 0.85938,-3.74024 0.85937,-1.25 2.57812,-1.25 1.82617,0 2.71484,1.66992 l 0.0586,-1.4746 1.00586,0 0,10.86914 q -0.01,1.91406 -0.91797,2.91015 -0.89844,0.9961 -2.62695,0.9961 -0.86915,0 -1.75782,-0.42969 -0.8789,-0.41992 -1.33789,-1.03516 l 0.50781,-0.78125 q 1.08399,1.24024 2.50977,1.24024 1.31836,0 1.91406,-0.70313 0.60547,-0.70312 0.61524,-2.13867 l 0,-1.67969 q -0.88867,1.51367 -2.69532,1.51367 -1.65039,0 -2.52929,-1.24023 -0.86914,-1.24023 -0.89844,-3.58398 l 0,-1.14258 z m 1.09375,0.98633 q 0,2.03125 0.61523,2.98828 0.61524,0.95703 1.9336,0.95703 1.75781,0 2.48047,-1.66992 l 0,-5.40039 q -0.73242,-1.80665 -2.46094,-1.80665 -1.32813,0 -1.94336,0.94727 -0.61523,0.94727 -0.625,2.92969 l 0,1.05469 z" />
      <path
         id="path5193"
         style="font-style:normal;font-variant:normal;font-weight:300;font-stretch:normal;font-size:20px;font-family:'Roboto Condensed';-inkscape-font-specification:'Roboto Condensed, Light';letter-spacing:-0.88px;fill:#ffffff;fill-opacity:1"
         d="m 469.1275,706.22434 -1.09375,0 0,-10.5664 1.09375,0 0,10.5664 z m -1.25,-13.61328 q 0,-0.33203 0.18555,-0.56641 0.18555,-0.23437 0.52734,-0.23437 0.3418,0 0.52735,0.23437 0.19531,0.23438 0.19531,0.56641 0,0.33203 -0.19531,0.56641 -0.18555,0.22461 -0.52735,0.22461 -0.34179,0 -0.52734,-0.22461 -0.18555,-0.23438 -0.18555,-0.56641 z" />
      <path
         id="path5195"
         style="font-style:normal;font-variant:normal;font-weight:300;font-stretch:normal;font-size:20px;font-family:'Roboto Condensed';-inkscape-font-specification:'Roboto Condensed, Light';letter-spacing:-0.88px;fill:#ffffff;fill-opacity:1"
         d="m 472.29047,695.65794 0.0293,1.67968 q 0.46875,-0.85937 1.19141,-1.36718 0.73242,-0.50782 1.66016,-0.50782 2.76367,0 2.83203,3.68164 l 0,7.08008 -1.07422,0 0,-6.96289 q -0.01,-1.41601 -0.49805,-2.08984 -0.48828,-0.67383 -1.5332,-0.67383 -0.84961,0 -1.5332,0.64453 -0.67383,0.63477 -1.0254,1.74805 l 0,7.33398 -1.08398,0 0,-10.5664 1.03516,0 z" />
      <path
         id="path5197"
         style="font-style:normal;font-variant:normal;font-weight:300;font-stretch:normal;font-size:20px;font-family:'Roboto Condensed';-inkscape-font-specification:'Roboto Condensed, Light';letter-spacing:-0.88px;fill:#ffffff;fill-opacity:1"
         d="m 479.64289,700.45286 q 0,-2.5 0.85938,-3.74024 0.85937,-1.25 2.57812,-1.25 1.82617,0 2.71484,1.66992 l 0.0586,-1.4746 1.00586,0 0,10.86914 q -0.01,1.91406 -0.91797,2.91015 -0.89844,0.9961 -2.62695,0.9961 -0.86914,0 -1.75782,-0.42969 -0.8789,-0.41992 -1.33789,-1.03516 l 0.50782,-0.78125 q 1.08398,1.24024 2.50976,1.24024 1.31836,0 1.91406,-0.70313 0.60547,-0.70312 0.61524,-2.13867 l 0,-1.67969 q -0.88867,1.51367 -2.69531,1.51367 -1.6504,0 -2.5293,-1.24023 -0.86914,-1.24023 -0.89844,-3.58398 l 0,-1.14258 z m 1.09375,0.98633 q 0,2.03125 0.61524,2.98828 0.61523,0.95703 1.93359,0.95703 1.75781,0 2.48047,-1.66992 l 0,-5.40039 q -0.73242,-1.80665 -2.46094,-1.80665 -1.32812,0 -1.94336,0.94727 -0.61523,0.94727 -0.625,2.92969 l 0,1.05469 z" />
      <path
         id="path5199"
         style="font-style:normal;font-variant:normal;font-weight:300;font-stretch:normal;font-size:20px;font-family:'Roboto Condensed';-inkscape-font-specification:'Roboto Condensed, Light';letter-spacing:-0.88px;fill:#ffffff;fill-opacity:1"
         d="m 499.39656,702.72825 q 0,-1.19141 -0.68359,-1.875 -0.67383,-0.6836 -2.5293,-1.3086 -1.85547,-0.625 -2.72461,-1.39648 -1.14258,-1.00586 -1.14258,-2.65625 0,-1.63086 1.12305,-2.65625 1.12305,-1.02539 2.90039,-1.02539 1.81641,0 2.96875,1.19141 1.15234,1.1914 1.15234,3.0664 l -1.12304,0 q 0,-1.43555 -0.81055,-2.31445 -0.80078,-0.88867 -2.1875,-0.88867 -1.34766,0 -2.12891,0.73242 -0.77148,0.72265 -0.77148,1.875 0,1.07422 0.73242,1.75781 0.73242,0.68359 2.33399,1.2207 1.60156,0.52735 2.42187,1.10352 0.82031,0.56641 1.21094,1.33789 0.39062,0.77148 0.39062,1.81641 0,1.66992 -1.13281,2.69531 -1.12305,1.01562 -2.97851,1.01562 -1.25,0 -2.28516,-0.50781 -1.02539,-0.51758 -1.61133,-1.47461 -0.57617,-0.96679 -0.57617,-2.27539 l 1.11328,0 q 0,1.50391 0.9082,2.36328 0.90821,0.85938 2.45118,0.85938 1.34765,0 2.1582,-0.72266 0.82031,-0.72265 0.82031,-1.93359 z" />
      <path
         id="path5201"
         style="font-style:normal;font-variant:normal;font-weight:300;font-stretch:normal;font-size:20px;font-family:'Roboto Condensed';-inkscape-font-specification:'Roboto Condensed, Light';letter-spacing:-0.88px;fill:#ffffff;fill-opacity:1"
         d="m 501.5439,700.40403 q 0,-2.28516 1.03516,-3.61328 1.03515,-1.32813 2.82226,-1.32813 1.79688,0 2.82227,1.3086 1.03515,1.30859 1.04492,3.60351 l 0,1.12305 q 0,2.32422 -1.04492,3.62305 -1.03516,1.29882 -2.80274,1.29882 -1.76758,0 -2.80273,-1.26953 -1.03516,-1.26953 -1.07422,-3.49609 l 0,-1.25 z m 1.09375,1.09375 q 0,1.82617 0.73242,2.87109 0.74219,1.04492 2.05078,1.04492 1.33789,0 2.04102,-1.00585 0.71289,-1.00586 0.72265,-2.88086 l 0,-1.12305 q 0,-1.82617 -0.74218,-2.87109 -0.74219,-1.05469 -2.04102,-1.05469 -1.25976,0 -2.00195,1.02539 -0.74219,1.02539 -0.76172,2.82226 l 0,1.17188 z" />
      <path
         id="path5203"
         style="font-style:normal;font-variant:normal;font-weight:300;font-stretch:normal;font-size:20px;font-family:'Roboto Condensed';-inkscape-font-specification:'Roboto Condensed, Light';letter-spacing:-0.88px;fill:#ffffff;fill-opacity:1"
         d="m 511.59164,706.22434 0,-9.58984 -1.45507,0 0,-0.97656 1.45507,0 0,-1.38672 q 0.0195,-1.57227 0.72266,-2.41211 0.71289,-0.83985 1.96289,-0.83985 0.56641,0 1.04492,0.16602 l -0.0781,0.99609 q -0.42969,-0.10742 -0.87891,-0.10742 -0.79101,0 -1.24023,0.5957 -0.43946,0.58594 -0.43946,1.68946 l 0,1.29883 2.07032,0 0,0.97656 -2.07032,0 0,9.58984 -1.09375,0 z" />
      <path
         id="path5205"
         style="font-style:normal;font-variant:normal;font-weight:300;font-stretch:normal;font-size:20px;font-family:'Roboto Condensed';-inkscape-font-specification:'Roboto Condensed, Light';letter-spacing:-0.88px;fill:#ffffff;fill-opacity:1"
         d="m 517.64523,692.96262 0,2.69532 1.80664,0 0,0.97656 -1.80664,0 0,7.02148 q 0,0.86914 0.25391,1.29883 0.26367,0.41992 0.86914,0.41992 0.26367,0 0.78125,-0.0977 l 0.0293,0.97656 q -0.3711,0.16601 -1.06446,0.16601 -1.90429,0 -1.95312,-2.61718 l 0,-7.16797 -1.63086,0 0,-0.97656 1.63086,0 0,-2.69532 1.08398,0 z" />
      <path
         id="path5207"
         style="font-style:normal;font-variant:normal;font-weight:300;font-stretch:normal;font-size:20px;font-family:'Roboto Condensed';-inkscape-font-specification:'Roboto Condensed, Light';letter-spacing:-0.88px;fill:#ffffff;fill-opacity:1"
         d="m 523.18124,703.822 0.0879,0.58594 0.11719,-0.63477 2.15821,-8.11523 0.9082,0 2.13867,8.04687 0.15625,0.83008 0.12695,-0.74219 1.82618,-8.13476 1.11328,0 -2.58789,10.5664 -0.90821,0 -2.29492,-8.39844 -0.0488,-0.2539 -0.0391,0.26367 -2.25586,8.38867 -0.91797,0 -2.56836,-10.5664 1.10352,0 1.88476,8.16406 z" />
      <path
         id="path5209"
         style="font-style:normal;font-variant:normal;font-weight:300;font-stretch:normal;font-size:20px;font-family:'Roboto Condensed';-inkscape-font-specification:'Roboto Condensed, Light';letter-spacing:-0.88px;fill:#ffffff;fill-opacity:1"
         d="m 538.7075,706.22434 q -0.14648,-0.50781 -0.19531,-1.46484 -0.48828,0.79101 -1.25976,1.23047 -0.76172,0.42968 -1.66016,0.42968 -1.36719,0 -2.12891,-0.77148 -0.76172,-0.77148 -0.76172,-2.19727 0,-1.55273 1.05469,-2.46093 1.06446,-0.90821 2.92969,-0.91797 l 1.81641,0 0,-1.47461 q 0,-1.13281 -0.56641,-1.6211 -0.55664,-0.49804 -1.64063,-0.49804 -1.00585,0 -1.65039,0.58594 -0.64453,0.58593 -0.64453,1.51367 l -1.08398,-0.01 q 0,-1.29883 0.97656,-2.19726 0.97656,-0.90821 2.45117,-0.90821 1.5918,0 2.41211,0.80078 0.82031,0.80079 0.82031,2.33399 l 0,5.18555 q 0,1.55273 0.28321,2.32421 l 0,0.11719 -1.15235,0 z m -2.97851,-0.84961 q 0.95703,0 1.68945,-0.49804 0.74219,-0.49805 1.08399,-1.32813 l 0,-2.56836 -1.71875,0 q -1.48438,0.0195 -2.23633,0.66406 -0.75196,0.63477 -0.75196,1.71875 0,2.01172 1.9336,2.01172 z" />
      <path
         id="path5211"
         style="font-style:normal;font-variant:normal;font-weight:300;font-stretch:normal;font-size:20px;font-family:'Roboto Condensed';-inkscape-font-specification:'Roboto Condensed, Light';letter-spacing:-0.88px;fill:#ffffff;fill-opacity:1"
         d="m 545.79625,696.67356 q -0.39063,-0.0684 -0.68359,-0.0684 -0.89844,0 -1.51368,0.61524 -0.60546,0.61523 -0.85937,1.70898 l 0,7.29492 -1.08399,0 0,-10.5664 1.06446,0 0.0195,1.58203 q 0.77148,-1.77735 2.42187,-1.77735 0.42969,0 0.6543,0.12696 l -0.0195,1.08398 z" />
      <path
         id="path5213"
         style="font-style:normal;font-variant:normal;font-weight:300;font-stretch:normal;font-size:20px;font-family:'Roboto Condensed';-inkscape-font-specification:'Roboto Condensed, Light';letter-spacing:-0.88px;fill:#ffffff;fill-opacity:1"
         d="m 550.31664,706.41965 q -1.86524,0 -2.91993,-1.2207 -1.05468,-1.2207 -1.07422,-3.47656 l 0,-1.28906 q 0,-2.32422 1.01563,-3.64258 1.01562,-1.32813 2.79297,-1.32813 1.71875,0 2.61719,1.12305 0.9082,1.12305 0.92773,3.4375 l 0,1.01562 -6.2793,0 0,0.59571 q 0,1.8164 0.77149,2.80273 0.78125,0.98633 2.19726,0.98633 1.5625,0 2.5293,-1.14258 l 0.56641,0.72266 q -1.03516,1.41601 -3.14453,1.41601 z m -0.18555,-9.9414 q -1.2793,0 -1.97266,0.9082 -0.68359,0.89844 -0.75195,2.63672 l 5.18555,0 0,-0.2832 q -0.0781,-3.26172 -2.46094,-3.26172 z" />
    </g>
  </g>
  <g
     id="text4968"
     style="font-style:normal;font-weight:normal;font-size:7.5px;line-height:125%;font-family:sans-serif;letter-spacing:0px;word-spacing:0px;fill:#000000;fill-opacity:1;stroke:none;stroke-width:1px;stroke-linecap:butt;stroke-linejoin:miter;stroke-opacity:1">
    <path
       id="path4991"
       style="font-style:italic;font-variant:normal;font-weight:300;font-stretch:normal;font-size:18.75000191px;font-family:'Roboto Condensed';-inkscape-font-specification:'Roboto Condensed, Light Italic';fill:#ffffff"
       d="m 296.02066,120.72193 5.33753,0 -0.17395,0.97046 -6.37208,0 2.30713,-13.33008 1.05286,0 -2.15149,12.35962 z" />
    <path
       id="path4993"
       style="font-style:italic;font-variant:normal;font-weight:300;font-stretch:normal;font-size:18.75000191px;font-family:'Roboto Condensed';-inkscape-font-specification:'Roboto Condensed, Light Italic';fill:#ffffff"
       d="m 304.25125,121.69239 -1.01623,0 1.72119,-9.90601 1.01623,0 -1.72119,9.90601 z m 1.05286,-12.76245 q 0.0458,-0.60425 0.70496,-0.75989 0.67749,0.11902 0.62255,0.75989 -0.0366,0.58594 -0.70495,0.75073 -0.65918,-0.11902 -0.62256,-0.75073 z" />
    <path
       id="path4995"
       style="font-style:italic;font-variant:normal;font-weight:300;font-stretch:normal;font-size:18.75000191px;font-family:'Roboto Condensed';-inkscape-font-specification:'Roboto Condensed, Light Italic';fill:#ffffff"
       d="m 310.71488,109.25953 -0.43946,2.52685 1.6388,0 -0.15564,0.91553 -1.6388,0 -1.09863,6.5918 -0.0366,0.48523 q -0.0366,1.07117 0.71411,1.08948 l 0.71411,-0.0641 -0.0641,0.91553 q -0.43946,0.15564 -0.91553,0.13733 -0.67749,-0.009 -1.03455,-0.45777 -0.35705,-0.45776 -0.39367,-1.26343 -0.0183,-0.4486 0.0183,-0.86059 l 1.08032,-6.57349 -1.48316,0 0.15564,-0.91553 1.48316,0 0.44861,-2.52685 1.00708,0 z" />
    <path
       id="path4997"
       style="font-style:italic;font-variant:normal;font-weight:300;font-stretch:normal;font-size:18.75000191px;font-family:'Roboto Condensed';-inkscape-font-specification:'Roboto Condensed, Light Italic';fill:#ffffff"
       d="m 315.83267,121.8755 q -1.60217,-0.0275 -2.38952,-1.24512 -0.78736,-1.22681 -0.55847,-3.24097 l 0.10986,-0.91553 q 0.28381,-2.32544 1.40076,-3.61633 1.11694,-1.30005 2.80151,-1.25427 1.19934,0.0366 1.86768,0.78735 0.67749,0.74158 0.75988,2.05078 0.0458,0.7782 -0.0458,1.51978 l -0.11902,0.86975 -5.66712,0 -0.0915,0.56763 q -0.0824,0.58593 -0.0458,1.19934 0.0458,1.05285 0.58593,1.68457 0.54016,0.63171 1.474,0.65918 0.74158,0.0183 1.32752,-0.27466 0.59509,-0.29297 1.11694,-0.78735 l 0.47607,0.6958 q -1.13525,1.33667 -3.00293,1.30005 z m 1.30005,-9.32923 q -1.14441,-0.0458 -1.9226,0.78735 -0.7782,0.82398 -1.14441,2.54517 l 4.71496,0 0.0458,-0.27466 q 0.0641,-0.50354 0.0366,-1.03454 -0.0458,-0.91553 -0.49438,-1.44654 -0.44861,-0.54016 -1.23597,-0.57678 z" />
  </g>
</svg>
