<?xml version="1.0" encoding="UTF-8" standalone="no"?>
<svg
   xmlns:dc="http://purl.org/dc/elements/1.1/"
   xmlns:cc="http://creativecommons.org/ns#"
   xmlns:rdf="http://www.w3.org/1999/02/22-rdf-syntax-ns#"
   xmlns:svg="http://www.w3.org/2000/svg"
   xmlns="http://www.w3.org/2000/svg"
   width="128"
   height="128"
   viewBox="0 0 128 128"
   id="svg2"
   version="1.1">
  <defs
     id="defs4" />
  <metadata
     id="metadata7">
    <rdf:RDF>
      <cc:Work
         rdf:about="">
        <dc:format>image/svg+xml</dc:format>
        <dc:type
           rdf:resource="http://purl.org/dc/dcmitype/StillImage" />
        <dc:title></dc:title>
      </cc:Work>
    </rdf:RDF>
  </metadata>
  <path
     d="m 70.283308,83.510379 c 0.222528,-0.670855 0.334564,-1.402071 0.334564,-2.173551 0,-2.747144 -1.318281,-5.386084 -6.815698,-7.255235 C 49.18065,69.134081 42.144816,66.27542 42.144816,53.742299 c 0,-11.874033 8.3541,-17.920059 22.647021,-17.920059 16.710567,0 21.54877,8.134882 21.54877,16.710844 l 0,1.979009 -15.831198,0 0,-1.100192 c 0,-5.167216 -2.089035,-6.596125 -5.828497,-6.596125 -4.72741,0 -6.045696,2.309404 -6.045696,5.497615 0,10.553283 28.474917,3.518593 28.474917,26.605851 0,0.553413 -0.01794,1.099367 -0.05056,1.633526 L 70.2837,83.510379 Z m -28.579849,-5.580643 15.833055,0 c 0.10859,2.638958 0.328713,4.947511 1.207969,6.706824 0.171615,0.285123 0.363114,0.553413 0.578002,0.805109 l -16.336567,2.881258 c -0.867975,-2.218873 -1.28249,-4.804162 -1.28249,-7.755059 l 0,-2.638938 z"
     style="fill:#ffffff;fill-opacity:1;fill-rule:evenodd;stroke:none;stroke-width:3;stroke-miterlimit:4;stroke-dasharray:none"
     id="path5096" />
  <path
     d="m 1.4999936,32.368211 c 0,-4.972666 4.0311946,-9.004475 9.0048844,-9.004475 l 106.990242,0 c 4.97308,0 9.00489,4.031809 9.00489,9.004475 l 0,63.26356 c 0,4.971819 -4.03181,9.004489 -9.00489,9.004489 l -106.990241,0 c -4.9736903,0 -9.0048851,-4.03267 -9.0048851,-9.004489 l 0,-63.26356 z"
     style="fill:#231f20;fill-opacity:1;fill-rule:nonzero;stroke:#ffffff;stroke-width:3;stroke-miterlimit:4;stroke-dasharray:none;stroke-opacity:1"
     id="path5094" />
  <path
     id="path5100"
     style="fill:#ffffff;fill-opacity:1;fill-rule:evenodd;stroke:none;stroke-width:3;stroke-miterlimit:4;stroke-dasharray:none"
     d="m 70.283308,83.510379 c 0.222528,-0.670855 0.334564,-1.402071 0.334564,-2.173551 0,-2.747144 -1.318274,-5.386084 -6.815698,-7.255235 -14.62153,-4.947512 -21.657358,-7.806174 -21.657358,-20.339294 0,-11.874033 8.354102,-17.920059 22.647027,-17.920059 16.710561,0 21.548773,8.134882 21.548773,16.710844 l 0,1.979009 -15.831207,0 0,-1.101025 c 0,-5.166383 -2.089031,-6.595292 -5.828497,-6.595292 -4.72741,0 -6.045682,2.308568 -6.045682,5.497615 0,10.553283 28.474911,3.517764 28.474911,26.605851 0,0.553413 -0.01613,1.099367 -0.05057,1.633526 l -16.775702,2.957611 z m -28.579851,-5.580643 15.833047,0 c 0.108671,2.638958 0.328715,4.947511 1.207972,6.706824 0.171696,0.285123 0.363115,0.553413 0.578001,0.805109 l -16.33651,2.880412 C 42.117973,86.103208 41.703459,83.518765 41.703459,80.56702 l 0,-2.638938 z" />
</svg>
