<?xml version="1.0" encoding="UTF-8" standalone="no"?>
<svg
   xmlns:dc="http://purl.org/dc/elements/1.1/"
   xmlns:cc="http://creativecommons.org/ns#"
   xmlns:rdf="http://www.w3.org/1999/02/22-rdf-syntax-ns#"
   xmlns:svg="http://www.w3.org/2000/svg"
   xmlns="http://www.w3.org/2000/svg"
   width="24"
   height="24"
   viewBox="0 0 24 24.000001"
   id="svg2"
   version="1.1">
  <defs
     id="defs4" />
  <metadata
     id="metadata7">
    <rdf:RDF>
      <cc:Work
         rdf:about="">
        <dc:format>image/svg+xml</dc:format>
        <dc:type
           rdf:resource="http://purl.org/dc/dcmitype/StillImage" />
        <dc:title></dc:title>
      </cc:Work>
    </rdf:RDF>
  </metadata>
  <path
     d="m 13.15612,15.589886 c 0.04095,-0.123435 0.06156,-0.25798 0.06156,-0.39993 0,-0.50547 -0.242562,-0.991033 -1.25408,-1.334953 -2.6903416,-0.910337 -3.9849264,-1.436326 -3.9849264,-3.742405 0,-2.1848064 1.5371446,-3.297267 4.1670234,-3.297267 3.074723,0 3.964947,1.4968066 3.964947,3.0747739 l 0,0.3641351 -2.912921,0 0,-0.202434 c 0,-0.9507626 -0.384379,-1.2136783 -1.072435,-1.2136783 -0.869837,0 -1.112401,0.4249261 -1.112401,1.0115522 0,1.9417921 5.239349,0.6474181 5.239349,4.8954451 0,0.101827 -0.0033,0.202281 -0.0093,0.300566 l -3.086739,0.544195 z m -5.2586553,-1.026829 2.9132613,0 c 0.01999,0.485565 0.06049,0.910337 0.222266,1.234047 0.03159,0.05247 0.06682,0.101827 0.10635,0.148137 L 8.1334364,16.475389 C 7.9737296,16.067117 7.8974599,15.591429 7.8974599,15.048469 l 0,-0.485563 z"
     style="fill:#ffffff;fill-opacity:1;fill-rule:evenodd;stroke:none;stroke-width:1.00000012;stroke-miterlimit:4;stroke-dasharray:none"
     id="path5096" />
  <path
     d="m 0.50007857,6.1797931 c 0,-0.914965 0.74173473,-1.6568115 1.65688733,-1.6568115 l 19.6860651,0 c 0.915043,0 1.65689,0.7418465 1.65689,1.6568115 l 0,11.6404149 c 0,0.914811 -0.741847,1.656812 -1.65689,1.656812 l -19.6860651,0 c -0.9151526,0 -1.65688733,-0.742001 -1.65688733,-1.656812 l 0,-11.6404149 z"
     style="fill:#231f20;fill-opacity:1;fill-rule:nonzero;stroke:#ffffff;stroke-width:1.00015867;stroke-miterlimit:4;stroke-dasharray:none;stroke-opacity:1"
     id="path5094" />
  <path
     id="path5100"
     style="fill:#ffffff;fill-opacity:1;fill-rule:evenodd;stroke:none;stroke-width:1.00000012;stroke-miterlimit:4;stroke-dasharray:none"
     d="m 13.15612,15.589886 c 0.04095,-0.123435 0.06156,-0.25798 0.06156,-0.39993 0,-0.50547 -0.242561,-0.991033 -1.25408,-1.334953 -2.6903419,-0.910337 -3.9849263,-1.436326 -3.9849263,-3.742405 0,-2.1848061 1.5371454,-3.297267 4.1670243,-3.297267 3.074722,0 3.964947,1.4968069 3.964947,3.0747739 l 0,0.3641351 -2.912922,0 0,-0.202589 c 0,-0.9506076 -0.384378,-1.2135233 -1.072435,-1.2135233 -0.869837,0 -1.112399,0.4247718 -1.112399,1.0115522 0,1.9417921 5.239348,0.6472651 5.239348,4.8954451 0,0.101827 -0.0029,0.202281 -0.0093,0.300566 l -3.08671,0.544195 z m -5.2586555,-1.026829 2.9132605,0 c 0.02,0.485565 0.06049,0.910337 0.222266,1.234047 0.03159,0.05247 0.06682,0.101827 0.10635,0.148137 L 8.1334447,16.475234 C 7.9737345,16.066964 7.8974651,15.591429 7.8974651,15.048312 l 0,-0.485562 z" />
</svg>
