<?xml version="1.0" encoding="UTF-8" standalone="no"?>
<svg
   xmlns:dc="http://purl.org/dc/elements/1.1/"
   xmlns:cc="http://creativecommons.org/ns#"
   xmlns:rdf="http://www.w3.org/1999/02/22-rdf-syntax-ns#"
   xmlns:svg="http://www.w3.org/2000/svg"
   xmlns="http://www.w3.org/2000/svg"
   width="256"
   height="256"
   viewBox="0 0 256 256"
   id="svg2"
   version="1.1">
  <defs
     id="defs4" />
  <metadata
     id="metadata7">
    <rdf:RDF>
      <cc:Work
         rdf:about="">
        <dc:format>image/svg+xml</dc:format>
        <dc:type
           rdf:resource="http://purl.org/dc/dcmitype/StillImage" />
        <dc:title></dc:title>
      </cc:Work>
    </rdf:RDF>
  </metadata>
  <path
     d="m 140.56661,167.02076 c 0.44506,-1.34172 0.66913,-2.80414 0.66913,-4.3471 0,-5.4943 -2.63656,-10.77218 -13.63139,-14.51048 -29.243048,-9.89502 -43.314714,-15.61234 -43.314714,-40.67858 0,-23.748051 16.708204,-35.840113 45.294034,-35.840113 33.42113,0 43.09754,16.269762 43.09754,33.421673 l 0,3.95802 -31.66239,0 0,-2.20038 c 0,-10.33444 -4.17807,-13.19223 -11.657,-13.19223 -9.45481,0 -12.09139,4.61879 -12.09139,10.99521 0,21.10656 56.94983,7.03718 56.94983,53.2117 0,1.10684 -0.0359,2.19874 -0.10112,3.26706 l -33.55174,5.91522 z m -57.159688,-11.16128 31.666108,0 c 0.21718,5.2779 0.65743,9.89502 2.41594,13.41364 0.34323,0.57024 0.72623,1.10682 1.156,1.61022 l -32.673131,5.76251 C 84.23589,172.2081 83.40686,167.03752 83.40686,161.13574 l 0,-5.27788 z"
     style="fill:#ffffff;fill-opacity:1;fill-rule:evenodd;stroke:none;stroke-width:6;stroke-miterlimit:4;stroke-dasharray:none"
     id="path5096" />
  <path
     d="m 3.0000016,64.736429 c 0,-9.945339 8.0623874,-18.008938 18.0097664,-18.008938 l 213.980462,0 c 9.94616,0 18.00977,8.063599 18.00977,18.008938 l 0,126.527101 c 0,9.94364 -8.06361,18.00898 -18.00977,18.00898 l -213.98046,0 c -9.94738,0 -18.0097678,-8.06534 -18.0097678,-18.00898 l 0,-126.527101 z"
     style="fill:#231f20;fill-opacity:1;fill-rule:nonzero;stroke:#ffffff;stroke-width:6;stroke-miterlimit:4;stroke-dasharray:none;stroke-opacity:1"
     id="path5094" />
  <path
     id="path5100"
     style="fill:#ffffff;fill-opacity:1;fill-rule:evenodd;stroke:none;stroke-width:6;stroke-miterlimit:4;stroke-dasharray:none"
     d="m 140.56661,167.02076 c 0.44506,-1.34172 0.66913,-2.80414 0.66913,-4.3471 0,-5.4943 -2.63655,-10.77218 -13.63139,-14.51048 -29.24306,-9.89502 -43.314714,-15.61234 -43.314714,-40.67858 0,-23.748051 16.708204,-35.840113 45.294054,-35.840113 33.42111,0 43.09754,16.269762 43.09754,33.421673 l 0,3.95802 -31.66241,0 0,-2.20204 c 0,-10.332781 -4.17807,-13.190571 -11.657,-13.190571 -9.45481,0 -12.09136,4.61711 -12.09136,10.995211 0,21.10656 56.94982,7.03554 56.94982,53.2117 0,1.10684 -0.0323,2.19874 -0.10114,3.26706 l -33.5514,5.91522 z m -57.159692,-11.16128 31.666092,0 c 0.21734,5.2779 0.65743,9.89502 2.41594,13.41364 0.3434,0.57024 0.72623,1.10682 1.15601,1.61022 l -32.673023,5.76081 c -1.735987,-4.43773 -2.565015,-9.60663 -2.565015,-15.51011 l 0,-5.27788 z" />
</svg>
