<?xml version="1.0" encoding="UTF-8" standalone="no"?>
<svg
   xmlns:dc="http://purl.org/dc/elements/1.1/"
   xmlns:cc="http://creativecommons.org/ns#"
   xmlns:rdf="http://www.w3.org/1999/02/22-rdf-syntax-ns#"
   xmlns:svg="http://www.w3.org/2000/svg"
   xmlns="http://www.w3.org/2000/svg"
   width="32"
   height="32"
   viewBox="0 0 32 32.000001"
   id="svg2"
   version="1.1">
  <defs
     id="defs4" />
  <metadata
     id="metadata7">
    <rdf:RDF>
      <cc:Work
         rdf:about="">
        <dc:format>image/svg+xml</dc:format>
        <dc:type
           rdf:resource="http://purl.org/dc/dcmitype/StillImage" />
        <dc:title></dc:title>
      </cc:Work>
    </rdf:RDF>
  </metadata>
  <path
     d="m 17.558236,20.838497 c 0.05519,-0.166369 0.08297,-0.34771 0.08297,-0.539033 0,-0.681278 -0.326928,-1.335727 -1.690266,-1.799266 -3.626079,-1.226965 -5.370938,-1.935902 -5.370938,-5.044066 0,-2.944712 2.071783,-4.4441025 5.616371,-4.4441025 4.144154,0 5.344009,2.0174185 5.344009,4.1442235 l 0,0.490785 -3.926074,0 0,-0.272842 c 0,-1.28145 -0.518072,-1.635814 -1.445444,-1.635814 -1.172378,0 -1.499309,0.572723 -1.499309,1.363387 0,2.617172 7.061666,0.872598 7.061666,6.598147 0,0.137244 -0.0045,0.272636 -0.01254,0.405106 l -4.160348,0.733475 z m -7.087688,-1.383975 3.926534,0 c 0.02693,0.654451 0.08152,1.226964 0.299572,1.663265 0.04256,0.07071 0.09005,0.137243 0.143341,0.199661 l -4.051402,0.714541 C 10.573338,21.481716 10.47054,20.840575 10.47054,20.108767 l 0,-0.65445 z"
     style="fill:#ffffff;fill-opacity:1;fill-rule:evenodd;stroke:none;stroke-width:1;stroke-miterlimit:4;stroke-dasharray:none"
     id="path5096" />
  <path
     d="m 0.50024836,8.1554437 c 0,-1.2332021 0.99972014,-2.2330736 2.23317554,-2.2330736 l 26.5331511,0 c 1.233305,0 2.233177,0.9998715 2.233177,2.2330736 l 0,15.6891113 c 0,1.232995 -0.999872,2.233075 -2.233177,2.233075 l -26.533151,0 c -1.2334554,0 -2.23317564,-1.00008 -2.23317564,-2.233075 l 0,-15.6891113 z"
     style="fill:#231f20;fill-opacity:1;fill-rule:nonzero;stroke:#ffffff;stroke-width:1;stroke-miterlimit:4;stroke-dasharray:none;stroke-opacity:1"
     id="path5094" />
  <path
     id="path5100"
     style="fill:#ffffff;fill-opacity:1;fill-rule:evenodd;stroke:none;stroke-width:1;stroke-miterlimit:4;stroke-dasharray:none"
     d="m 17.558236,20.838497 c 0.05519,-0.166369 0.08297,-0.34771 0.08297,-0.539033 0,-0.681278 -0.326927,-1.335727 -1.690266,-1.799266 -3.62608,-1.226965 -5.370938,-1.935902 -5.370938,-5.044066 0,-2.944712 2.071784,-4.4441025 5.616372,-4.4441025 4.144153,0 5.34401,2.0174185 5.34401,4.1442235 l 0,0.490785 -3.926076,0 0,-0.27305 c 0,-1.281242 -0.518071,-1.635606 -1.445444,-1.635606 -1.172378,0 -1.499306,0.572515 -1.499306,1.363387 0,2.617172 7.061665,0.872391 7.061665,6.598147 0,0.137244 -0.004,0.272636 -0.01254,0.405106 l -4.160309,0.733475 z m -7.087689,-1.383975 3.926533,0 c 0.02695,0.654451 0.08152,1.226964 0.299573,1.663265 0.04258,0.07071 0.09005,0.137243 0.14334,0.199661 l -4.051389,0.714333 c -0.215259,-0.550272 -0.318056,-1.191206 -0.318056,-1.923225 l 0,-0.654447 z" />
</svg>
