<?xml version="1.0" encoding="UTF-8" standalone="no"?>
<svg
   xmlns:dc="http://purl.org/dc/elements/1.1/"
   xmlns:cc="http://creativecommons.org/ns#"
   xmlns:rdf="http://www.w3.org/1999/02/22-rdf-syntax-ns#"
   xmlns:svg="http://www.w3.org/2000/svg"
   xmlns="http://www.w3.org/2000/svg"
   width="64"
   height="64"
   viewBox="0 0 64 64.000001"
   id="svg2"
   version="1.1">
  <defs
     id="defs4" />
  <metadata
     id="metadata7">
    <rdf:RDF>
      <cc:Work
         rdf:about="">
        <dc:format>image/svg+xml</dc:format>
        <dc:type
           rdf:resource="http://purl.org/dc/dcmitype/StillImage" />
        <dc:title></dc:title>
      </cc:Work>
    </rdf:RDF>
  </metadata>
  <path
     d="m 35.11649,41.67705 c 0.110372,-0.33274 0.165941,-0.695424 0.165941,-1.078073 0,-1.362564 -0.65386,-2.671469 -3.380551,-3.598553 -7.252201,-2.453944 -10.741939,-3.871826 -10.741939,-10.08819 0,-5.88946 4.143591,-8.888258 11.232807,-8.888258 8.288356,0 10.68808,4.034861 10.68808,8.288494 l 0,0.981578 -7.852194,0 0,-0.545689 c 0,-2.562914 -1.03615,-3.271645 -2.890904,-3.271645 -2.344771,0 -2.998635,1.145453 -2.998635,2.726789 0,5.234375 14.123414,1.745204 14.123414,13.196371 0,0.274489 -0.0089,0.545275 -0.02508,0.810216 l -8.320747,1.46696 z m -14.17546,-2.767966 7.853115,0 c 0.05386,1.308909 0.16304,2.45394 0.599146,3.32655 0.08512,0.14142 0.180103,0.274489 0.286686,0.399323 l -8.102854,1.42909 c -0.430511,-1.100551 -0.636109,-2.382842 -0.636109,-3.846465 l 0,-1.308907 z"
     style="fill:#ffffff;fill-opacity:1;fill-rule:evenodd;stroke:none;stroke-width:2;stroke-miterlimit:4;stroke-dasharray:none"
     id="path5096" />
  <path
     d="m 1.0003153,16.310795 c 0,-2.466417 1.999452,-4.466173 4.4663772,-4.466173 l 53.0666115,0 c 2.466625,0 4.466381,1.999756 4.466381,4.466173 l 0,31.378408 c 0,2.466001 -1.999756,4.466175 -4.466381,4.466175 l -53.0666111,0 c -2.4669254,0 -4.4663775,-2.000174 -4.4663775,-4.466175 l 0,-31.378408 z"
     style="fill:#231f20;fill-opacity:1;fill-rule:nonzero;stroke:#ffffff;stroke-width:2;stroke-miterlimit:4;stroke-dasharray:none;stroke-opacity:1"
     id="path5094" />
  <path
     id="path5100"
     style="fill:#ffffff;fill-opacity:1;fill-rule:evenodd;stroke:none;stroke-width:2;stroke-miterlimit:4;stroke-dasharray:none"
     d="m 35.11649,41.67705 c 0.110372,-0.33274 0.165941,-0.695424 0.165941,-1.078073 0,-1.362564 -0.653857,-2.671469 -3.380551,-3.598553 -7.252204,-2.453944 -10.741939,-3.871826 -10.741939,-10.08819 0,-5.88946 4.143592,-8.888258 11.23281,-8.888258 8.288353,0 10.688081,4.034861 10.688081,8.288494 l 0,0.981578 -7.852198,0 0,-0.546103 c 0,-2.5625 -1.036148,-3.271231 -2.890904,-3.271231 -2.344771,0 -2.998628,1.145038 -2.998628,2.726789 0,5.234375 14.123411,1.744793 14.123411,13.196371 0,0.274489 -0.008,0.545275 -0.02508,0.810216 l -8.320663,1.46696 z m -14.175461,-2.767966 7.853111,0 c 0.0539,1.308909 0.163041,2.45394 0.599148,3.32655 0.08516,0.14142 0.180103,0.274489 0.286685,0.399323 l -8.102826,1.428676 C 21.146627,42.963081 20.94103,41.681205 20.94103,40.217159 l 0,-1.308903 z" />
</svg>
