<?xml version="1.0" encoding="UTF-8" standalone="no"?>
<svg
   xmlns:dc="http://purl.org/dc/elements/1.1/"
   xmlns:cc="http://creativecommons.org/ns#"
   xmlns:rdf="http://www.w3.org/1999/02/22-rdf-syntax-ns#"
   xmlns:svg="http://www.w3.org/2000/svg"
   xmlns="http://www.w3.org/2000/svg"
   viewBox="0 0 22 22"
   id="svg2"
   version="1.1">
  <metadata
     id="metadata12">
    <rdf:RDF>
      <cc:Work
         rdf:about="">
        <dc:format>image/svg+xml</dc:format>
        <dc:type
           rdf:resource="http://purl.org/dc/dcmitype/StillImage" />
        <dc:title></dc:title>
      </cc:Work>
    </rdf:RDF>
  </metadata>
  <defs
     id="defs3051">
    <style
       type="text/css"
       id="current-color-scheme">
      .ColorScheme-Text {
        color:#4d4d4d;
      }
      </style>
    <style
       id="current-color-scheme-5"
       type="text/css">
      .ColorScheme-Text {
        color:#4d4d4d;
      }
      </style>
  </defs>
  <rect
     style="color:#4d4d4d;opacity:1;fill:currentColor;fill-opacity:1;stroke:none"
     id="rect4142"
     width="0"
     height="10.999983"
     x="-38.258236"
     y="-27.660368"
     class="ColorScheme-Text" />
  <g
     id="g4541"
     transform="matrix(-1,0,0,1,36.005538,38.907192)">
    <path
       style="color:#000000;font-style:normal;font-variant:normal;font-weight:normal;font-stretch:normal;font-size:medium;line-height:normal;font-family:sans-serif;text-indent:0;text-align:start;text-decoration:none;text-decoration-line:none;text-decoration-style:solid;text-decoration-color:#000000;letter-spacing:normal;word-spacing:normal;text-transform:none;direction:ltr;block-progression:tb;writing-mode:lr-tb;baseline-shift:baseline;text-anchor:start;white-space:normal;clip-rule:nonzero;display:inline;overflow:visible;visibility:visible;opacity:1;isolation:auto;mix-blend-mode:normal;color-interpolation:sRGB;color-interpolation-filters:linearRGB;solid-color:#000000;solid-opacity:1;fill:#4d4d4d;fill-opacity:1;fill-rule:evenodd;stroke:none;stroke-width:2;stroke-linecap:butt;stroke-linejoin:miter;stroke-miterlimit:4;stroke-dasharray:none;stroke-dashoffset:0;stroke-opacity:1;marker:none;color-rendering:auto;image-rendering:auto;shape-rendering:auto;text-rendering:auto;enable-background:accumulate"
       d="m 16.005538,-36.790981 0,2 c 2.460818,0 4.730529,1.312227 5.960938,3.44336 0.328491,0.568963 0.561752,1.174816 0.714844,1.794921 a 1.6973559,1.6973559 0 0 1 1.291015,1.646485 1.6973559,1.6973559 0 0 1 -1.291015,1.644531 c -0.15307,0.620761 -0.386023,1.227341 -0.714844,1.796875 -1.230409,2.131131 -3.50012,3.441407 -5.960938,3.441407 l 0,2 c 3.172142,0 6.107289,-1.694251 7.69336,-4.441407 0.499067,-0.86441 0.822814,-1.794646 1.007812,-2.746094 a 1.6973559,1.6973559 0 0 0 1.615235,-1.695312 1.6973559,1.6973559 0 0 0 -1.615235,-1.69336 c -0.184912,-0.952106 -0.508415,-1.883067 -1.007812,-2.748046 -1.586071,-2.747157 -4.521218,-4.44336 -7.69336,-4.44336 z"
       id="path4168" />
  </g>
</svg>
