<?xml version="1.0" encoding="UTF-8" standalone="no"?>
<svg
   xmlns:dc="http://purl.org/dc/elements/1.1/"
   xmlns:cc="http://creativecommons.org/ns#"
   xmlns:rdf="http://www.w3.org/1999/02/22-rdf-syntax-ns#"
   xmlns:svg="http://www.w3.org/2000/svg"
   xmlns="http://www.w3.org/2000/svg"
   version="1.1"
   id="svg2"
   viewBox="0 0 22 22">
  <metadata
     id="metadata12">
    <rdf:RDF>
      <cc:Work
         rdf:about="">
        <dc:format>image/svg+xml</dc:format>
        <dc:type
           rdf:resource="http://purl.org/dc/dcmitype/StillImage" />
        <dc:title></dc:title>
      </cc:Work>
    </rdf:RDF>
  </metadata>
  <defs
     id="defs3051">
    <style
       id="current-color-scheme"
       type="text/css">
      .ColorScheme-Text {
        color:#4d4d4d;
      }
      </style>
  </defs>
  <rect
     class="ColorScheme-Text"
     y="-27.660368"
     x="-38.258236"
     height="10.999983"
     width="0"
     id="rect4142"
     style="color:#4d4d4d;opacity:1;fill:currentColor;fill-opacity:1;stroke:none" />
  <path
     id="path4148"
     d="m 16.043724,20.331419 c -0.857945,-3.646131 -0.293065,-3.820249 0.665145,-5.27885 0.258192,-0.444435 0.467694,1.13643 0.801631,0.755494 1.061925,-1.211379 0.260613,-1.727686 0.665144,-2.977765 0.21797,-0.673581 0.578253,-2.148515 -0.06537,-2.445266 -0.416798,-0.192171 -0.627983,1.317151 -0.667066,0.955421 C 17.216853,9.2456444 18.173096,7.2971976 17.064504,5.2734263 15.304886,3.0067024 13.412094,2.029785 11.014328,2.0743414 8.7168974,2.1170334 6.0599836,3.327507 4.9342972,5.2734263 3.8257057,7.2971976 4.7819471,9.2456444 4.5555884,11.340453 c -0.039084,0.36173 -0.2483468,-1.147592 -0.6651429,-0.955421 -0.6436159,0.296751 -0.2852516,1.771685 -0.067283,2.445266 0.4045304,1.250079 -0.3948587,1.766386 0.6670656,2.977765 0.3339379,0.380936 0.5415143,-1.199929 0.7997098,-0.755494 0.9582095,1.458601 1.5230885,1.632719 0.6651429,5.27885"
     style="color:#000000;clip-rule:nonzero;display:inline;overflow:visible;visibility:visible;opacity:1;isolation:auto;mix-blend-mode:normal;color-interpolation:sRGB;color-interpolation-filters:linearRGB;solid-color:#000000;solid-opacity:1;fill:none;fill-opacity:1;fill-rule:evenodd;stroke:#4d4d4d;stroke-width:1.04905224;stroke-linecap:butt;stroke-linejoin:miter;stroke-miterlimit:4;stroke-dasharray:none;stroke-dashoffset:0;stroke-opacity:1;marker:none;color-rendering:auto;image-rendering:auto;shape-rendering:auto;text-rendering:auto;enable-background:accumulate" />
  <path
     id="path4183"
     d="M 10.920185,18.343859 C 10.322963,17.206083 10.672825,15.883806 10.458456,14.671306 10.337432,14.109258 10.102552,13.581863 9.9083371,13.043189 9.5340985,12.798927 8.8104208,12.982325 8.7479999,12.378009 8.3748362,12.629257 7.9247952,12.119851 8.3540358,11.954255 c 0.2598577,0.673162 0.099652,-0.705808 0.4837842,-0.120898 -0.00306,0.08804 0.2124421,-0.592144 0.5685081,-0.570578 0.3207643,-0.15429 1.0391859,-0.588372 0.8468529,0.112625 -0.234498,0.231866 -0.2541234,0.985449 0.04157,0.397328 2.4e-5,-0.287057 0.326832,-1.167753 0.535585,-0.696831 -0.370952,0.400224 0.0067,1.765413 0.490559,0.956934 0.168079,-0.319115 -0.396759,-1.482664 0.233374,-0.958653 0.114386,0.198987 0.290284,1.209254 0.410022,0.783345 -0.452413,-0.552436 0.02642,-1.279636 0.583728,-0.620642 0.349565,0.0044 0.731985,0.599423 0.658909,0.625586 0.321797,-0.660071 0.263339,0.752055 0.514853,0.08603 0.319905,0.119254 0.0825,0.704679 -0.324018,0.434746 -0.344733,0.07223 -0.328048,0.636219 -0.815205,0.514538 -0.6162,-0.01701 -0.601926,0.744776 -0.818853,1.156662 -0.45814,1.147336 -0.101394,2.405277 -0.380971,3.586481 -0.09097,0.169552 -0.141344,0.943539 -0.46256,0.702927 z M 9.9057623,14.043016 C 9.5564049,13.920362 8.5560256,13.282572 9.4726298,13.520044 c 0.2277583,-0.05394 0.9471372,0.535974 0.4331325,0.522972 z m 2.0428567,0.04333 c -0.234678,-0.627121 1.514579,-0.722661 0.808246,-0.407045 -0.25412,0.159409 -0.485798,0.409292 -0.808246,0.407045 z M 9.6787202,13.414319 c -0.3356036,-0.24163 -1.3960566,0.08991 -1.0715979,-0.613579 -0.1403754,-0.507733 0.3585749,0.424982 0.6655438,0.213047 0.2473673,-0.08423 0.8385329,0.273853 0.4060541,0.400532 z m 2.5420408,-0.08748 c 0.176403,-0.568107 1.090172,-0.150351 1.266908,-0.707307 0.03443,0.340009 -0.0155,0.803975 -0.585741,0.697149 -0.167478,-0.118525 -0.740119,0.205076 -0.681167,0.01003 z M 6.7712539,11.858362 C 6.3485534,11.627724 7.3432932,10.924215 6.6692759,11.133749 6.5906613,11.625606 6.1393563,12.057088 5.807213,11.503343 5.9490354,11.260352 6.391181,10.846079 5.790442,11.106609 5.3006025,11.208707 5.4017486,10.333847 5.8479857,10.396686 5.2477674,10.244311 5.4983666,9.1953082 6.1630079,9.4371126 6.6920374,9.2685312 7.4778998,10.146829 7.7593939,9.6226779 7.5466589,9.5772073 6.6390686,9.464913 6.919838,9.1529579 7.1969017,9.1704812 8.0330073,9.1332591 7.4143691,8.8723845 6.8099307,8.755499 5.7253945,9.8009594 5.4891754,8.9398118 5.3498787,8.5100491 5.9210489,8.2342181 6.0047546,8.1053539 5.2843557,8.0625949 5.4698651,7.2828139 6.1198085,7.4133979 6.5803644,7.3735799 6.4157087,6.8823205 6.0531339,7.1906216 5.4078489,7.2027305 5.7023058,6.5930525 6.0287104,6.398504 5.9411643,6.0361385 6.1858756,5.5708421 6.4496289,6.0598655 6.9040553,6.2572419 7.2124114,6.8543406 7.5709434,6.9599738 8.1836544,6.3186536 6.6620617,6.2627705 6.4565085,5.6935069 6.135501,5.3606453 6.5121881,5.2326904 6.8027339,5.3150448 6.7726029,4.6901574 7.2848213,4.9142401 7.4119335,5.3591353 7.7455736,5.5962103 7.8441283,6.1425598 8.1772133,6.2884805 8.1566266,6.0576263 8.020214,5.8004774 8.4600495,5.908267 8.6429214,5.5413637 7.4905852,5.4103433 7.4898518,4.8471802 7.327034,3.8951235 8.5048211,3.7983447 9.169991,3.7042454 9.9797976,3.2365106 9.7898245,4.287462 9.5250815,4.6924522 9.2893356,5.397346 10.107754,4.5102263 10.031192,4.1739293 9.9428862,3.5973995 10.587011,2.8926957 10.898969,3.7071751 c 0.15524,0.5207539 -0.04179,0.998264 -0.433457,1.3434535 0.883156,0.1024908 -0.279526,0.8537051 -0.5690765,1.0737371 -0.2950841,0.1887362 -0.3969529,0.6506648 0.05714,0.3196421 0.2913925,-0.225295 1.0127225,-1.1985255 0.9509315,-0.2891101 0.110778,0.4506134 -0.642735,0.56249 -0.03186,0.7711092 0.04452,0.2669248 -0.742235,0.091423 -0.244209,0.3706901 0.291717,0.00131 0.820737,0.1699036 0.954421,-0.1822883 -0.565235,0.030767 -0.356389,-0.2463564 -0.128282,-0.4706119 -0.688652,-0.080067 -0.194127,-1.5798983 0.224035,-0.5706657 0.105292,0.258323 1.040073,0.7540917 0.606695,0.180782 C 12.003409,5.9312198 11.0265,5.4731624 11.331565,5.1084405 11.963256,4.9566723 10.921525,4.7224599 11.136958,4.2651816 c -0.263037,-0.5325009 0.484335,-1.404165 0.76719,-0.598831 0.121642,0.3487116 0.273459,1.5066873 0.676085,1.2312416 -0.05362,-0.3920945 -0.71676,-1.4581051 0.119194,-1.2752975 0.637209,0.2566928 1.625614,0.079203 1.866985,0.9088221 0.272916,0.8148515 -0.90337,0.8227432 -0.997076,1.349471 0.187442,0.011376 0.458291,-0.087294 0.267405,0.2999752 0.195707,0.3607512 0.464607,-0.6408637 0.728664,-0.7848076 0.26439,-0.3194791 0.588416,-0.8087307 0.714135,-0.1383719 0.233812,0.1363938 0.56475,0.013263 0.328798,0.4263021 -0.200114,0.5746089 -1.752156,0.6176712 -1.127053,1.2853923 0.365393,-0.2325446 0.889588,-0.7707217 1.312656,-1.1291834 0.375956,-0.00242 0.07343,0.6492219 0.477951,0.782995 0.332106,0.478625 -0.235914,0.7585278 -0.611871,0.452014 -0.103961,0.6566683 1.286061,0.108643 0.722501,0.9181886 -0.263832,0.1602632 -0.553475,0.093021 -0.115142,0.3389543 0.64569,0.286555 0.1775,1.3563877 -0.48849,0.8616006 -0.412357,-0.089399 -1.110037,-0.6266945 -1.376879,-0.116977 0.07888,0.1648175 0.962076,-0.1189055 0.776561,0.2748233 -0.170248,0.2022678 -1.387196,0.2763486 -0.634399,0.4405758 0.591803,-0.1374117 1.705724,-0.8004561 1.984173,0.024702 0.01108,0.2897439 -0.05842,0.5019829 -0.300255,0.5829289 0.581768,0.112473 0.454503,0.95892 -0.13407,0.667286 -0.576801,-0.160391 0.61107,0.513473 -0.118835,0.643575 -0.652306,0.39056 -0.318908,-0.977353 -0.893683,-0.529951 0.701455,0.458202 -0.09052,0.951571 -0.626238,0.668427 -0.2996,0.110224 -0.515301,-0.03366 -0.484077,-0.189249 -0.185634,0.07329 -0.54623,-0.06244 -0.251015,-0.243785 -0.819013,0.17287 -1.187377,-0.747361 -1.771333,-1.095649 -0.175354,-0.30654 -0.713961,-1.0775132 -0.210617,-1.1182282 0.02743,-0.643486 -0.951708,-0.8246699 -1.314453,-0.3526592 -0.38569,0.348892 0.403314,0.4113846 0.0099,0.8432943 -0.231305,0.7164561 -0.9571796,1.0856361 -1.395178,1.6326271 -0.1983195,0.122636 -0.9408035,0.02871 -0.5707293,0.282022 -0.113898,0.04765 -0.6852513,0.0019 -0.3749655,0.216653 -0.4193444,0.03872 -0.9361819,0.08511 -1.3215715,0.03431 z M 8.7040707,9.7885554 C 8.8996639,9.2314093 9.3209165,8.8212042 9.9038915,8.7004132 10.504623,8.5103667 10.765087,7.7349572 10.062957,7.4968406 9.2606992,6.9568536 8.7591845,8.0596313 8.8123323,8.7277974 8.8065704,8.9540204 8.3534698,9.8046065 8.7040703,9.7885554 Z M 13.513795,9.745546 C 13.271922,9.0542683 13.224383,8.3063342 12.966953,7.622804 12.545307,6.9233083 10.985029,7.8070972 11.743994,8.4320575 c 0.417837,0.4433448 1.284537,0.3455763 1.403,1.0072575 0.04495,0.1692791 0.137021,0.4867538 0.366801,0.3062309 z m -2.571921,0.690816 c -0.532769,0.17956 -0.537324,-0.6543756 -0.0048,-0.370935 0.367486,-0.2452106 0.961522,0.278763 0.352222,0.326042 -0.111884,0.01086 -0.237046,0.118647 -0.347565,0.04487 z"
     style="color:#000000;clip-rule:nonzero;display:inline;overflow:visible;visibility:visible;opacity:1;isolation:auto;mix-blend-mode:normal;color-interpolation:sRGB;color-interpolation-filters:linearRGB;solid-color:#000000;solid-opacity:1;fill:#4d4d4d;fill-opacity:1;fill-rule:nonzero;stroke:none;stroke-width:0.48745012;stroke-linecap:butt;stroke-linejoin:miter;stroke-miterlimit:4;stroke-dasharray:none;stroke-dashoffset:0;stroke-opacity:1;color-rendering:auto;image-rendering:auto;shape-rendering:auto;text-rendering:auto;enable-background:accumulate" />
</svg>
