<?xml version="1.0" encoding="UTF-8" standalone="no"?>
<svg
   xmlns:dc="http://purl.org/dc/elements/1.1/"
   xmlns:cc="http://creativecommons.org/ns#"
   xmlns:rdf="http://www.w3.org/1999/02/22-rdf-syntax-ns#"
   xmlns:svg="http://www.w3.org/2000/svg"
   xmlns="http://www.w3.org/2000/svg"
   version="1.1"
   id="svg2"
   viewBox="0 0 22 22">
  <metadata
     id="metadata12">
    <rdf:RDF>
      <cc:Work
         rdf:about="">
        <dc:format>image/svg+xml</dc:format>
        <dc:type
           rdf:resource="http://purl.org/dc/dcmitype/StillImage" />
        <dc:title></dc:title>
      </cc:Work>
    </rdf:RDF>
  </metadata>
  <defs
     id="defs3051">
    <style
       id="current-color-scheme"
       type="text/css">
      .ColorScheme-Text {
        color:#4d4d4d;
      }
      </style>
    <style
       type="text/css"
       id="current-color-scheme-5">
      .ColorScheme-Text {
        color:#4d4d4d;
      }
      </style>
  </defs>
  <rect
     class="ColorScheme-Text"
     y="-27.660368"
     x="-38.258236"
     height="10.999983"
     width="0"
     id="rect4142"
     style="color:#4d4d4d;opacity:1;fill:currentColor;fill-opacity:1;stroke:none" />
  <path
     id="path4140"
     d="m 10.996094,1.7273481 0,0.00195 c -0.370726,0.0097 -0.666576,0.3136799 -0.662109,0.6855469 l 0,1.421875 C 8.0607844,3.7799339 5.6970464,3.2980748 3.1953124,2.2371137 2.5807133,1.9766576 2.1900644,2.8985882 2.8046874,3.1589887 c 2.623289,1.1125117 5.125249,1.6144439 7.5292976,1.6699219 l 0,1.5585938 C 8.3558314,6.3286497 6.303152,5.9236903 4.126953,5.0007856 3.512354,4.7403295 3.121705,5.6622601 3.736328,5.9226606 6.034765,6.8974054 8.2245884,7.3203672 10.333985,7.3777387 l 0,1.5898438 C 8.6315914,8.906637 6.8659395,8.5524097 4.9941405,7.7585981 4.3678025,7.4649677 3.9572695,8.4317751 4.6035155,8.67852 6.5978765,9.5243088 8.5003084,9.8964256 10.333985,9.9558636 l 0,1.6035164 C 8.8764414,11.49695 7.3651327,11.18581 5.7636717,10.506645 c -0.626337,-0.293628 -1.036869,0.673176 -0.390625,0.919922 1.724423,0.731306 3.3720477,1.060184 4.9609383,1.121094 l 0,1.179688 c -0.8090196,0.14813 -1.4216965,0.51977 -2.1210945,0.779296 -1.141545,0.423595 -1.3524099,-1.880696 -2.2480469,-1.767578 -0.127948,0.01616 -0.2690775,0.08109 -0.4296875,0.210938 -1.001152,0.80938 -1.5926861,1.793212 -0.048828,2.857422 1.505041,1.037453 -1.1945193,3.218392 1.8398437,4.384765 C 8.5246164,20.65286 10.063497,18.985839 11,18.971489 c 0.936504,0.01435 2.475384,1.681371 3.673828,1.220703 3.034363,-1.166373 0.334803,-3.347312 1.839844,-4.384765 1.543858,-1.06421 0.952324,-2.048042 -0.04883,-2.857422 -0.16061,-0.129845 -0.30174,-0.194778 -0.429688,-0.210938 -0.895637,-0.113118 -1.106501,2.191173 -2.248046,1.767578 -0.699398,-0.259526 -1.312075,-0.631166 -2.121094,-0.779296 l 0,-1.179688 c 1.58889,-0.06091 3.236514,-0.389788 4.960937,-1.121094 0.646244,-0.246746 0.235712,-1.21355 -0.390625,-0.919922 -1.601461,0.679165 -3.112769,0.990305 -4.570312,1.052735 l 0,-1.6035164 C 13.49969,9.8964236 15.402122,9.5243088 17.396483,8.67852 18.042729,8.4317751 17.632196,7.4649677 17.005858,7.7585981 15.134059,8.5524097 13.368407,8.906637 11.666014,8.9675825 l 0,-1.5898438 c 2.109398,-0.057372 4.299221,-0.4803333 6.597658,-1.4550781 0.614623,-0.2604005 0.223974,-1.1823311 -0.390625,-0.921875 -2.176199,0.9229047 -4.228878,1.3278641 -6.207031,1.3867188 l 0,-1.5585938 c 2.404048,-0.055478 4.906008,-0.5574102 7.529297,-1.6699219 0.614623,-0.2604005 0.223974,-1.1823311 -0.390625,-0.921875 -2.501734,1.0609611 -4.865472,1.5428202 -7.138672,1.5996094 l 0,-1.421875 C 11.670416,2.042961 11.37466,1.7389747 11.003906,1.7293012 l 0,-0.00195 c -0.0013,1.87e-5 -0.0026,-2.64e-5 -0.0039,0 -0.0013,-2.61e-5 -0.0026,1.86e-5 -0.0039,0 z M 9.2695311,15.297661 c 0.2342953,0.04592 0.8158049,0.659859 1.7265629,0.667969 0.0027,2.4e-5 0.0051,-1.4e-5 0.0078,0 0.910786,-0.0081 1.492264,-0.622053 1.726563,-0.667969 0.07862,-0.01541 0.119047,0.0325 0.119141,0.189453 0.0017,0.620493 -0.649941,2.340349 -1.849598,2.384766 -1.1996461,-0.04443 -1.8513076,-1.764276 -1.8496095,-2.384766 9.4e-5,-0.156953 0.040521,-0.204863 0.1191406,-0.189453 z m -1.8222656,1.460938 c 0.691519,1.61e-4 1.6797005,0.914813 1.6796875,1.351562 1.2e-5,0.436749 -0.5604342,0.790854 -1.2519532,0.791016 -0.691519,-1.62e-4 -1.2519651,-0.354267 -1.2519531,-0.791016 -1.3e-5,-0.436749 0.1326998,-1.351402 0.8242188,-1.351562 z m 7.1054695,0 c 0.691519,1.6e-4 0.824231,0.914813 0.824218,1.351562 1.2e-5,0.436749 -0.560434,0.790854 -1.251953,0.791016 -0.691519,-1.62e-4 -1.251965,-0.354267 -1.251953,-0.791016 -1.3e-5,-0.436749 0.988169,-1.351401 1.679688,-1.351562 z"
     style="color:#000000;font-style:normal;font-variant:normal;font-weight:normal;font-stretch:normal;font-size:medium;line-height:normal;font-family:sans-serif;text-indent:0;text-align:start;text-decoration:none;text-decoration-line:none;text-decoration-style:solid;text-decoration-color:#000000;letter-spacing:normal;word-spacing:normal;text-transform:none;direction:ltr;block-progression:tb;writing-mode:lr-tb;baseline-shift:baseline;text-anchor:start;white-space:normal;clip-rule:nonzero;display:inline;overflow:visible;visibility:visible;opacity:1;isolation:auto;mix-blend-mode:normal;color-interpolation:sRGB;color-interpolation-filters:linearRGB;solid-color:#000000;solid-opacity:1;fill:#4d4d4d;fill-opacity:1;fill-rule:evenodd;stroke:none;stroke-width:1.35883772;stroke-linecap:round;stroke-linejoin:miter;stroke-miterlimit:4;stroke-dasharray:none;stroke-dashoffset:0;stroke-opacity:1;marker:none;color-rendering:auto;image-rendering:auto;shape-rendering:auto;text-rendering:auto;enable-background:accumulate" />
</svg>
