<?xml version="1.0" encoding="UTF-8" standalone="no"?>
<svg
   xmlns:dc="http://purl.org/dc/elements/1.1/"
   xmlns:cc="http://creativecommons.org/ns#"
   xmlns:rdf="http://www.w3.org/1999/02/22-rdf-syntax-ns#"
   xmlns:svg="http://www.w3.org/2000/svg"
   xmlns="http://www.w3.org/2000/svg"
   version="1.1"
   id="svg2"
   viewBox="0 0 16 16">
  <metadata
     id="metadata11">
    <rdf:RDF>
      <cc:Work
         rdf:about="">
        <dc:format>image/svg+xml</dc:format>
        <dc:type
           rdf:resource="http://purl.org/dc/dcmitype/StillImage" />
        <dc:title></dc:title>
      </cc:Work>
    </rdf:RDF>
  </metadata>
  <defs
     id="defs3051">
    <style
       id="current-color-scheme"
       type="text/css">
      .ColorScheme-Text {
        color:#4d4d4d;
      }
      </style>
  </defs>
  <g
     id="g6"
     transform="translate(-3,-1033.3622)">
    <path
       id="rect4161"
       d="m 4,1041.3622 c -0.5540096,0 -1,0.446 -1,1 l 0,6 c 0,0.554 0.4459904,1 1,1 l 5,0 c 0.55401,0 1,-0.446 1,-1 l 0,-1 1,0 0,-1 -2,0 0,-2 2,0 0,-1 -1,0 0,-1 c 0,-0.554 -0.44599,-1 -1,-1 l -5,0 z m 0,1 3,0 2,0 0,1 c -0.5540096,0 -1,0.446 -1,1 l 0,2 c 0,0.554 0.4459904,1 1,1 l 0,1 -2,0 -3,0 0,-6 z"
       style="color:#4d4d4d;fill:currentColor;fill-opacity:1;stroke:none" />
    <path
       id="path4139"
       d="m 13,1033.3622 c -0.55401,0 -1,0.446 -1,1 l 0,1 -1,0 0,1 2,0 0,2 -2,0 0,1 1,0 0,1 c 0,0.554 0.44599,1 1,1 l 5,0 c 0.55401,0 1,-0.446 1,-1 l 0,-6 c 0,-0.554 -0.44599,-1 -1,-1 l -5,0 z m 0,1 3,0 2,0 0,6 -2,0 -3,0 0,-1 c 0.55401,0 1,-0.446 1,-1 l 0,-2 c 0,-0.554 -0.44599,-1 -1,-1 l 0,-1 z"
       style="color:#4d4d4d;fill:currentColor;fill-opacity:1;stroke:none" />
  </g>
</svg>
