<?xml version="1.0" encoding="UTF-8" standalone="no"?>
<svg
   xmlns:dc="http://purl.org/dc/elements/1.1/"
   xmlns:cc="http://creativecommons.org/ns#"
   xmlns:rdf="http://www.w3.org/1999/02/22-rdf-syntax-ns#"
   xmlns:svg="http://www.w3.org/2000/svg"
   xmlns="http://www.w3.org/2000/svg"
   version="1.1"
   id="svg2"
   viewBox="0 0 16 16">
  <metadata
     id="metadata10">
    <rdf:RDF>
      <cc:Work
         rdf:about="">
        <dc:format>image/svg+xml</dc:format>
        <dc:type
           rdf:resource="http://purl.org/dc/dcmitype/StillImage" />
        <dc:title></dc:title>
      </cc:Work>
    </rdf:RDF>
  </metadata>
  <defs
     id="defs3051">
    <style
       id="current-color-scheme"
       type="text/css">
      .ColorScheme-Text {
        color:#4d4d4d;
      }
      </style>
  </defs>
  <path
     id="path4142"
     d="M 5,5 C 3.338,5 2,6.338 2,8 L 3,8 C 3,6.892 3.892,6 5,6 l 6,0 c 1.108,0 2,0.892 2,2 0,1.108 -0.892,2 -2,2 l -6,0 0,-1.5 -3,2 3,2 0,-1.5 6,0 c 0.20775,0 0.409824,-0.02071 0.605469,-0.06055 C 12.97498,10.660629 14,9.45425 14,8 14,6.338 12.662,5 11,5 L 5,5 Z"
     style="color:#4d4d4d;fill:currentColor;fill-opacity:1;stroke:none" />
</svg>
