<?xml version="1.0" encoding="UTF-8" standalone="no"?>
<svg
   xmlns:dc="http://purl.org/dc/elements/1.1/"
   xmlns:cc="http://creativecommons.org/ns#"
   xmlns:rdf="http://www.w3.org/1999/02/22-rdf-syntax-ns#"
   xmlns:svg="http://www.w3.org/2000/svg"
   xmlns="http://www.w3.org/2000/svg"
   id="svg6"
   version="1.1"
   viewBox="0 0 22 22">
  <metadata
     id="metadata10">
    <rdf:RDF>
      <cc:Work
         rdf:about="">
        <dc:format>image/svg+xml</dc:format>
        <dc:type
           rdf:resource="http://purl.org/dc/dcmitype/StillImage" />
        <dc:title></dc:title>
      </cc:Work>
    </rdf:RDF>
  </metadata>
  <path
     id="path1189"
     d="M 2 2 L 2 3 L 12 3 L 12 2 L 2 2 z M 2 4 L 2 5 L 6 5 L 6 4 L 2 4 z M 18 8 L 18 20 L 20 20 L 20 8 L 18 8 z M 10.050781 8.0058594 C 6.6041642 8.1385214 3.5414094 10.64394 4.0566406 12.205078 C 5.0053549 15.079655 5.8008164 14.40439 9.1191406 14.714844 C 10.616929 14.854969 10.058509 18.03764 12.417969 18 C 14.757213 17.962674 14.834544 16.706182 15.728516 14.421875 C 16.88151 11.475717 14.250779 7.8441984 10.050781 8.0058594 z "
     style="opacity:1;vector-effect:none;fill:#4d4d4d;fill-opacity:1;stroke:none;stroke-width:6.61007071;stroke-linecap:butt;stroke-linejoin:miter;stroke-miterlimit:4;stroke-dasharray:none;stroke-dashoffset:0;stroke-opacity:1" />
</svg>
