<?xml version="1.0" encoding="UTF-8" standalone="no"?>
<svg
   xmlns:dc="http://purl.org/dc/elements/1.1/"
   xmlns:cc="http://creativecommons.org/ns#"
   xmlns:rdf="http://www.w3.org/1999/02/22-rdf-syntax-ns#"
   xmlns:svg="http://www.w3.org/2000/svg"
   xmlns="http://www.w3.org/2000/svg"
   viewBox="0 0 22 22"
   id="svg2"
   version="1.1">
  <metadata
     id="metadata12">
    <rdf:RDF>
      <cc:Work
         rdf:about="">
        <dc:format>image/svg+xml</dc:format>
        <dc:type
           rdf:resource="http://purl.org/dc/dcmitype/StillImage" />
        <dc:title></dc:title>
      </cc:Work>
    </rdf:RDF>
  </metadata>
  <defs
     id="defs3051">
    <style
       type="text/css"
       id="current-color-scheme">
      .ColorScheme-Text {
        color:#4d4d4d;
      }
      </style>
  </defs>
  <rect
     style="color:#4d4d4d;opacity:1;fill:currentColor;fill-opacity:1;stroke:none"
     id="rect4142"
     width="0"
     height="10.999983"
     x="-38.258236"
     y="-27.660368"
     class="ColorScheme-Text" />
  <path
     id="path4157"
     d="M 13.183594 1.2910156 C 11.859663 1.2562355 9.3409022 1.3339815 7.5917969 2.3203125 C 6.5909717 2.8846841 5.572726 3.5675205 4.8398438 4.5117188 C 4.1069615 5.455917 3.6872173 6.6856023 3.9160156 8.171875 C 3.9720962 8.5361738 3.8792208 8.8846866 3.7070312 9.234375 L 4.875 8.8671875 C 4.9257682 8.5967433 4.9500884 8.3169929 4.9042969 8.0195312 C 4.7142754 6.7851528 5.0309479 5.8953711 5.6289062 5.125 C 6.2268647 4.3546289 7.1319976 3.7271362 8.0820312 3.1914062 C 9.4688472 2.4093726 11.927842 2.2586936 13.158203 2.2910156 C 14.773696 2.3334556 16.084874 3.0753901 17.074219 4.09375 C 17.29843 4.3245367 17.499676 4.5727708 17.6875 4.8261719 L 18.685547 4.5117188 C 18.420863 4.1250405 18.131508 3.7469621 17.791016 3.3964844 C 16.660041 2.2323408 15.093151 1.3411804 13.183594 1.2910156 z M 19.919922 7.3125 L 18.957031 7.6171875 C 19.296285 9.3034328 19.179625 10.196783 18.865234 10.853516 C 18.539688 11.533545 17.929364 12.054683 17.238281 12.925781 C 16.460735 13.905864 16.043013 14.76415 15.931641 15.861328 C 15.820269 16.958506 15.978021 18.264158 16.230469 20.328125 L 17.222656 20.207031 C 16.970578 18.146108 16.832839 16.878513 16.925781 15.962891 C 17.018721 15.047269 17.304448 14.452639 18.021484 13.548828 C 18.645711 12.762001 19.328321 12.202714 19.767578 11.285156 C 20.201107 10.379564 20.311682 9.1906196 19.919922 7.3125 z M 4.3164062 12.236328 L 2.5117188 12.804688 C 2.7045597 12.881349 2.900116 12.935172 3.0976562 12.976562 C 3.3987196 13.039642 3.6993058 13.090738 3.8964844 13.142578 C 3.9241534 13.149878 3.9245646 13.152886 3.9472656 13.160156 C 3.9896996 13.613158 3.9400153 13.980288 3.8476562 14.232422 C 3.7945833 14.377305 3.7360356 14.481561 3.6914062 14.660156 C 3.6690913 14.749456 3.6326895 14.884089 3.7109375 15.076172 C 3.7846605 15.257147 3.9793454 15.368985 4.1132812 15.408203 C 4.0179032 15.470433 3.9130774 15.551791 3.859375 15.683594 C 3.79616 15.838743 3.8100718 15.995729 3.8398438 16.101562 C 3.8993868 16.313232 3.9930487 16.413224 4.0820312 16.527344 C 4.2599966 16.755584 4.4681899 16.985186 4.6035156 17.220703 C 4.6704926 17.337268 4.7296837 17.571182 4.7734375 17.798828 C 4.7953145 17.912651 4.8119816 18.021111 4.8535156 18.148438 C 4.8742826 18.212097 4.8990635 18.283741 4.9648438 18.375 C 5.0306238 18.46626 5.1761495 18.593948 5.3671875 18.615234 C 6.091312 18.695924 6.8044116 18.536104 7.3789062 18.449219 C 7.6661537 18.405779 7.9178114 18.381255 8.0878906 18.390625 C 8.2579698 18.400025 8.3159753 18.435235 8.3339844 18.453125 C 8.7924765 18.908575 8.9208681 19.159706 9.0039062 19.451172 C 9.0869443 19.742638 9.1049877 20.137529 9.2441406 20.728516 L 10.21875 20.498047 C 10.09992 19.993371 10.091799 19.62335 9.9648438 19.177734 C 9.8378884 18.732118 9.5739168 18.273492 9.0390625 17.742188 C 8.7831438 17.487965 8.445806 17.407318 8.1425781 17.390625 C 7.8393503 17.373932 7.5385553 17.414344 7.2304688 17.460938 C 6.7097965 17.539681 6.2011367 17.599695 5.75 17.595703 C 5.7061588 17.365991 5.6553484 17.044007 5.4707031 16.722656 C 5.2758543 16.383547 5.049905 16.13739 4.9121094 15.966797 C 4.9973522 15.884668 5.1174971 15.832835 5.1679688 15.71875 C 5.2747795 15.477317 5.2286215 15.186042 5.1269531 15.005859 C 5.0224328 14.820622 4.8655163 14.80613 4.7324219 14.720703 C 4.7541299 14.663973 4.7572834 14.657593 4.7871094 14.576172 C 4.921951 14.208072 5.0789242 13.605077 4.9453125 12.830078 C 4.8980579 12.555982 4.7026226 12.405862 4.5625 12.328125 C 4.4788631 12.281725 4.3977619 12.263135 4.3164062 12.236328 z "
     style="color:#000000;font-style:normal;font-variant:normal;font-weight:normal;font-stretch:normal;font-size:medium;line-height:normal;font-family:sans-serif;text-indent:0;text-align:start;text-decoration:none;text-decoration-line:none;text-decoration-style:solid;text-decoration-color:#000000;letter-spacing:normal;word-spacing:normal;text-transform:none;direction:ltr;block-progression:tb;writing-mode:lr-tb;baseline-shift:baseline;text-anchor:start;white-space:normal;clip-rule:nonzero;display:inline;overflow:visible;visibility:visible;opacity:1;isolation:auto;mix-blend-mode:normal;color-interpolation:sRGB;color-interpolation-filters:linearRGB;solid-color:#000000;solid-opacity:1;fill:#4d4d4d;fill-opacity:1;fill-rule:evenodd;stroke:none;stroke-width:1;stroke-linecap:butt;stroke-linejoin:miter;stroke-miterlimit:4;stroke-dasharray:none;stroke-dashoffset:0;stroke-opacity:1;color-rendering:auto;image-rendering:auto;shape-rendering:auto;text-rendering:auto;enable-background:accumulate" />
  <g
     id="g4151"
     transform="matrix(0.48745012,0,0,0.48745012,-11.648754,7.3686039)"
     style="fill:#4d4d4d;fill-opacity:1;stroke:none">
    <path
       id="path4155"
       transform="matrix(2.051492,0,0,2.051492,23.897325,-15.116632)"
       d="M 13.904297 2.7441406 C 13.821879 2.7350209 13.744471 2.7378782 13.679688 2.7519531 C 12.85188 2.7129001 13.154981 3.9670304 13.667969 4.2207031 C 13.746463 4.2675878 13.831749 4.3272143 13.929688 4.3085938 C 14.024426 3.9959039 14.310488 3.7999681 14.666016 3.78125 C 15.355609 3.3896655 14.481225 2.8079785 13.904297 2.7441406 z M 12.808594 2.7890625 C 12.392174 2.6798157 11.374831 3.1636091 11.994141 3.6230469 C 12.607893 3.9886169 11.377484 3.6889217 11.294922 3.9628906 C 11.163647 3.904866 11.56656 3.0881455 10.986328 3.078125 C 10.396895 3.096845 9.4512873 3.0889909 9.2910156 3.7890625 C 9.0861954 3.6823254 8.67166 3.3835677 8.390625 3.7363281 C 8.0858824 4.2974031 7.4668704 4.0684194 7.0449219 4.5058594 C 6.5118669 4.6875967 6.1827629 5.3991716 6.8945312 5.6054688 C 7.6357698 5.7491184 6.6920256 5.9820433 6.4355469 5.6777344 C 6.0776191 5.3301472 6.1049643 5.7053831 5.8652344 5.9433594 C 5.3664272 6.2066232 5.237835 7.0689569 5.9179688 7.1757812 C 6.4470413 7.4896031 5.7315567 7.4299147 5.5253906 7.5644531 C 5.7942212 7.8532907 5.4488208 8.3015874 5.5429688 8.65625 L 9.21875 7.4960938 C 9.1919203 7.1887157 9.3321665 6.7818443 9.6132812 6.6835938 C 10.252533 6.4457941 10.934847 6.2797224 11.623047 6.3007812 C 11.907568 6.3328901 12.244355 6.3593179 12.542969 6.4492188 L 15.445312 5.5332031 C 15.51873 5.4340219 15.564591 5.3350182 15.527344 5.2539062 C 15.658324 5.1511483 15.663914 5.2931162 15.615234 5.4785156 L 17.060547 5.0234375 C 17.043615 4.9357477 17.006233 4.847038 16.916016 4.7519531 C 16.904452 4.4356711 15.948497 4.0735678 16.152344 4.4570312 C 16.527633 5.1093437 14.996436 4.4528517 15.025391 5.1601562 C 15.446455 5.5399643 14.572227 5.4370762 14.615234 5.140625 C 14.700085 4.6456791 15.952029 4.481943 15.361328 4.03125 C 14.99918 4.1120377 14.797995 4.3209503 14.419922 4.3378906 C 14.356944 4.7929324 14.058816 5.1073391 13.675781 5.3710938 C 13.477625 5.8823524 13.358037 5.1375017 13.714844 5.0449219 C 14.273252 4.5573503 13.235808 4.6304659 13.013672 4.9023438 C 12.46496 5.4163587 11.983079 4.7595275 11.417969 4.9238281 C 10.795658 5.1984453 10.19339 5.2406773 9.5878906 4.96875 C 9.1808152 5.1041477 8.7141304 4.8683343 8.3925781 5.1269531 C 8.2918719 5.7437953 8.0084782 6.207175 7.6210938 6.6992188 C 7.2743169 6.908138 7.9417617 7.8927989 7.4394531 7.4707031 C 6.8863011 6.963802 7.662576 6.3222901 7.9082031 5.8398438 C 8.3837078 5.3305883 7.4225797 5.3958749 7.5332031 4.9589844 C 7.8884919 5.7327916 8.4018978 4.2885777 8.7597656 4.9335938 C 9.115051 4.7349107 9.4723224 4.7327294 9.7441406 4.3457031 C 9.8831809 4.5304446 9.9067502 5.3031366 10.458984 4.9609375 C 10.880625 4.699037 11.408383 4.770941 11.828125 4.4550781 C 12.12939 4.568651 12.876304 5.0759273 13.085938 4.3945312 C 12.966586 3.8788294 13.03008 3.2653276 12.808594 2.7890625 z M 13.964844 3.2382812 C 13.97587 3.262662 13.955081 3.3186513 13.873047 3.421875 L 13.861328 3.4238281 L 13.828125 3.4296875 C 13.613609 3.373018 13.931764 3.165139 13.964844 3.2382812 z M 10.072266 3.5390625 C 10.209787 3.6208202 10.272341 4.2318838 10.460938 4.328125 C 10.027798 4.7300873 9.9567105 3.9340088 9.9023438 3.671875 C 9.9725061 3.542761 10.026425 3.5118099 10.072266 3.5390625 z M 8.8945312 4.2207031 C 8.9528596 4.1831646 9.0769525 4.2210223 9.09375 4.4472656 C 8.8436391 4.3711764 8.8362029 4.2582417 8.8945312 4.2207031 z M 14.189453 5.5625 C 14.21054 5.5687783 14.206233 5.6082955 14.148438 5.7050781 L 14.068359 5.7441406 C 13.834112 5.8224763 14.126191 5.543665 14.189453 5.5625 z M 6.2011719 6.7246094 C 6.9098454 6.7172719 6.5168319 7.9304133 7.2871094 8.0136719 C 7.3860193 8.212752 7.0368282 7.9631274 6.9921875 7.9433594 C 6.3726462 7.8190576 6.636897 7.1945666 6.28125 6.8710938 C 5.9965942 6.9307654 5.7373446 6.6584147 6.2011719 6.7246094 z M 18.732422 7.6875 L 17.794922 7.9824219 C 17.816906 8.0099812 17.82657 8.009666 17.857422 8.0605469 L 17.886719 8.1679688 L 17.908203 8.2753906 C 17.808481 8.2287097 17.74377 8.1063106 17.712891 8.0097656 L 15.808594 8.609375 C 16.035881 8.9306519 16.287907 9.2337065 16.583984 9.5 C 16.726968 9.9183333 16.967909 9.1071762 17.003906 9.6660156 C 16.855646 10.322163 18.161018 10.308409 17.845703 9.6367188 C 17.895363 10.154885 18.439229 9.7747742 18.529297 9.4863281 C 18.932038 8.9509476 18.88836 8.3008067 18.732422 7.6875 z M 17.529297 8.4023438 C 17.552338 8.4137307 17.57802 8.4805809 17.603516 8.6445312 C 17.428213 8.8303271 17.460174 8.3681828 17.529297 8.4023438 z M 15.431641 8.7285156 L 13.880859 9.21875 C 14.029089 9.4978487 13.850266 9.6138692 13.605469 9.3046875 L 11.585938 9.9414062 C 11.613631 10.434471 11.690416 10.926988 12.181641 11.220703 C 12.963613 11.582372 13.230735 12.45217 13.757812 13.066406 C 14.124609 12.919939 14.141122 12.469572 14.123047 12.134766 C 14.027559 11.391346 14.32039 12.276041 14.580078 12.417969 C 15.495883 12.659082 15.409333 11.446295 14.916016 11.011719 C 14.873898 10.629949 15.263076 11.045391 15.183594 11.291016 C 15.551153 11.805022 16.006019 11.139287 15.744141 10.726562 C 15.62327 10.542035 16.005432 11.388639 16.330078 10.990234 C 16.812368 10.745514 16.248132 10.321416 16.394531 10.099609 C 16.78552 9.7474812 16.064022 9.9354482 16.273438 9.609375 C 16.430386 8.9915128 15.62487 9.9199739 15.900391 9.2597656 C 15.912644 8.7047605 15.481009 9.1148847 15.511719 9.4375 C 15.219188 9.4916007 15.465914 9.0157119 15.431641 8.7285156 z M 16.355469 8.8945312 C 16.389398 8.8842811 16.441468 8.9315648 16.515625 9.0898438 C 16.323388 9.4731473 16.253682 8.9252817 16.355469 8.8945312 z M 18.050781 8.8945312 C 18.14615 8.8184275 18.365874 9.0937002 18.097656 9.2441406 C 17.981512 9.3944825 17.9757 9.1731753 18.019531 9.1054688 C 18.000718 8.9842722 18.018992 8.9198992 18.050781 8.8945312 z M 14.070312 9.9121094 C 14.183972 9.9391059 14.295 9.9977656 14.380859 10.087891 C 15.171719 10.401185 13.974298 10.560363 14.140625 11.027344 C 14.004498 11.732082 13.681801 10.649275 13.638672 10.476562 C 13.369884 10.029852 13.729335 9.8311198 14.070312 9.9121094 z "
       style="fill:#4d4d4d;fill-opacity:1;stroke:none" />
  </g>
  <path
     id="path4140"
     d="M 1.7646236,11.411367 20.258164,5.5779439"
     style="fill:none;fill-rule:evenodd;stroke:#3daee9;stroke-width:1;stroke-linecap:butt;stroke-linejoin:miter;stroke-miterlimit:4;stroke-dasharray:none;stroke-opacity:1" />
</svg>
