<?xml version="1.0" encoding="UTF-8" standalone="no"?>
<svg
   xmlns:dc="http://purl.org/dc/elements/1.1/"
   xmlns:cc="http://creativecommons.org/ns#"
   xmlns:rdf="http://www.w3.org/1999/02/22-rdf-syntax-ns#"
   xmlns:svg="http://www.w3.org/2000/svg"
   xmlns="http://www.w3.org/2000/svg"
   version="1.1"
   id="svg2"
   viewBox="0 0 22 22">
  <metadata
     id="metadata12">
    <rdf:RDF>
      <cc:Work
         rdf:about="">
        <dc:format>image/svg+xml</dc:format>
        <dc:type
           rdf:resource="http://purl.org/dc/dcmitype/StillImage" />
        <dc:title></dc:title>
      </cc:Work>
    </rdf:RDF>
  </metadata>
  <defs
     id="defs3051">
    <style
       id="current-color-scheme"
       type="text/css">
      .ColorScheme-Text {
        color:#4d4d4d;
      }
      </style>
  </defs>
  <rect
     class="ColorScheme-Text"
     y="-27.660368"
     x="-38.258236"
     height="10.999983"
     width="0"
     id="rect4142"
     style="color:#4d4d4d;opacity:1;fill:currentColor;fill-opacity:1;stroke:none" />
  <path
     id="path4157"
     d="m 16.726488,20.267297 c -0.504529,-4.12489 -0.590926,-5.146098 0.903656,-7.029992 1.31531,-1.657926 2.585486,-2.160098 1.789037,-5.8881757 C 18.929085,5.0550486 16.696018,1.8833841 13.170968,1.7907797 11.893822,1.7572286 9.4051958,1.8712906 7.8372352,2.755473 5.8863764,3.8555746 3.9907144,5.374337 4.4095342,8.0949882 4.6444363,9.6209109 3.0507958,10.80413 2.4128618,11.786401 c -0.5427735,0.835746 1.9597561,0.6595 2.0405533,1.128153 0.2318705,1.344937 -0.5281074,1.951436 -0.2039759,2.024969 0.2753543,0.06246 0.8561488,0.484572 0.1437942,0.862049 -0.2929638,0.155241 0.2996242,0.570917 0.6439704,1.170208 0.2544852,0.442898 0.2205564,1.127998 0.3859493,1.146427 1.2146624,0.135355 2.7147395,-0.564575 3.2625951,-0.02035 0.9933464,0.986755 0.7876684,1.41971 1.0456516,2.515373"
     style="fill:none;fill-rule:evenodd;stroke:#4d4d4d;stroke-width:1;stroke-linecap:butt;stroke-linejoin:miter;stroke-opacity:1;stroke-miterlimit:4;stroke-dasharray:none" />
  <g
     style="fill:#4d4d4d;fill-opacity:1;stroke:none"
     transform="matrix(0.48745012,0,0,0.48745012,-11.648754,7.3686039)"
     id="g4151">
    <path
       id="path4155"
       d="M 52.120789,11.687032 C 51.039494,10.426932 50.493144,8.6438625 48.888934,7.9019024 47.43962,7.0353239 47.719056,5.3277776 47.583439,3.9816519 46.998359,3.0403674 46.054212,3.9242466 45.507936,4.2390921 46.090705,3.1168427 45.243455,3.485932 44.698469,3.8933568 44.84331,3.1812142 44.517934,4.7547687 43.899192,4.5854176 42.47096,4.8927717 41.035466,5.6565338 39.645358,4.7432106 38.71958,4.3871634 37.078798,5.3704057 36.547782,4.2671233 36.899312,4.1016543 38.454232,3.6618241 37.320194,3.5094449 36.586012,4.0308773 35.672015,4.0582502 35.605826,3.1483618 34.61217,2.4027912 35.924068,1.1432807 35.234065,0.4019261 c 0.422948,-0.27600457 1.88887,-0.15516761 0.803482,-0.7989707 -1.395289,-0.2191493 -1.130396,-1.9886941 -0.107097,-2.5287778 0.491804,-0.4882064 0.43354,-1.2554853 1.167826,-0.542413 0.526164,0.6242874 2.462007,0.1440872 0.941362,-0.150609 -1.460187,-0.4232169 -0.785256,-1.8824458 0.308302,-2.2552784 0.865624,-0.8974045 2.138699,-0.4254876 2.763876,-1.5765285 0.576541,-0.7236852 1.42708,-0.1098966 1.847267,0.1090738 0.328796,-1.4361913 2.266889,-1.4221223 3.476107,-1.4605262 1.190341,0.020557 0.365983,1.6973046 0.635292,1.8163417 0.169376,-0.5620451 2.693418,0.052574 1.43431,-0.6973899 -1.270509,-0.9425328 0.814142,-1.9374944 1.668423,-1.7133754 0.454378,0.9770541 0.325687,2.2357654 0.570535,3.2937236 -0.430062,1.3978786 -1.963446,0.3571834 -2.581489,0.1241895 -0.861097,0.6479902 -1.944204,0.5039628 -2.809196,1.0412495 -1.132904,0.7020188 -1.178557,-0.8857074 -1.463797,-1.2647031 -0.557633,0.7939813 -1.291459,0.7987048 -2.020324,1.2063015 -0.734163,-1.3232452 -1.789312,1.6408033 -2.518184,0.053344 -0.226943,0.8962774 1.74605,0.7620493 0.770556,1.8067827 -0.503902,0.9897349 -2.098772,2.3061677 -0.963985,3.34607135 1.030482,0.86592605 -0.337764,-1.15469185 0.373646,-1.58328795 0.794716,-1.0094237 1.378855,-1.9593416 1.585453,-3.2247883 0.659662,-0.5305545 1.615613,-0.046241 2.450725,-0.3240083 1.242178,0.5578567 2.475729,0.469271 3.752395,-0.094104 1.159319,-0.3370614 2.149211,1.0108446 3.274889,-0.043653 0.45571,-0.5577552 2.583869,-0.7081135 1.438298,0.2921356 -0.731987,0.1899268 -0.486495,1.718946 -0.07998,0.670103 0.785793,-0.5410905 1.398915,-1.1879691 1.528114,-2.1214837 0.775614,-0.034753 1.186669,-0.4631837 1.929613,-0.6289191 1.211819,0.9245931 -1.35446,1.2629004 -1.52853,2.2782779 -0.08823,0.6081672 1.702484,0.8197301 0.838673,0.040557 -0.0594,-1.4510296 3.082341,-0.1069023 2.312439,-1.445116 -0.418189,-0.7866721 1.543554,-0.044175 1.567277,0.6046751 0.990585,1.0440319 -0.571158,1.8027262 -0.414862,3.0044466 -0.186111,0.6061289 -0.448324,1.8402712 0.157095,0.6424389 0.242787,-1.0407146 1.463329,-0.1171132 1.835323,-1.064139 1.356342,0.4252323 0.760552,2.4152618 2.021903,2.92707541 C 62.625022,1.5379652 62.850272,3.09791 61.911574,4.3457609 61.7268,4.9375056 60.608249,5.717443 60.506372,4.6544295 61.153238,6.0323971 58.475562,6.0610188 58.779717,4.7149375 58.705868,3.5684829 58.213892,5.2301451 57.920563,4.3719378 56.834685,3.3952947 55.977987,2.2173576 55.337369,0.91335778 54.898573,0.48187135 53.962062,-0.9594869 53.534592,-0.461388 c -0.08134,1.7731278 -2.275423,1.17331734 -2.447604,-0.2400073 -0.518961,-1.2889033 -2.151852,-1.3538233 -3.343714,-1.4883273 -1.411837,-0.043202 -2.813338,0.2985542 -4.124758,0.7863983 -1.03731,0.3625432 -1.186509,2.7923878 0.03381,2.34927111 0.468245,-1.44488961 1.514308,-0.53050656 1.577042,0.49910799 0.943468,-0.95185113 1.800097,-2.5383405 3.377086,-2.3923452 1.297212,0.1320577 2.62189,1.30401525 2.337926,2.5637725 0.809086,0.5162316 1.119291,1.4750085 0.789562,2.2799574 0.610678,0.8742382 1.133368,0.4371297 0.51208,-0.3432276 0.09583,-0.9167703 1.991579,-0.04706 1.265495,-1.1915264 0.268942,-0.710829 0.881628,-1.0484593 0.775533,-0.044465 0.367561,1.2924263 0.536073,-1.40118629 1.072219,0.1110359 0.620199,0.3544645 -0.395714,1.9567373 0.361185,1.8167562 -0.063,-0.6618427 0.820731,-1.5025668 0.795594,-0.3639782 -0.565228,1.3544119 1.086921,-0.5524791 0.764943,0.7150602 -0.429614,0.6689365 1.049863,0.2832213 0.247753,1.0056094 -0.300336,0.4550344 0.858645,1.3241547 -0.130769,1.8261965 -0.666009,0.8173239 -1.449016,-0.9174181 -1.201051,-0.5388622 0.537241,0.846701 -0.395714,2.2141896 -1.149759,1.1597097 0.163057,-0.5038972 -0.63664,-1.3563893 -0.550237,-0.573191 1.012037,0.8915298 1.191762,3.377879 -0.687005,2.883238 -0.532749,-0.291164 -1.135245,-2.1059783 -0.939352,-0.5808583 0.03708,0.6868533 0.0027,1.6086193 -0.74978,1.9090953 z M 52.906897,7.5071864 C 52.565679,6.5491782 55.021465,6.2214047 53.399022,5.5786833 52.694465,4.83912 51.141611,5.1540617 51.876833,6.375958 c 0.08848,0.3543173 0.7508,2.5769939 1.030064,1.1312284 z M 61.02536,3.8479844 C 61.759023,3.4364814 60.709544,2.568378 60.863921,3.5629132 60.774001,3.7018126 60.787091,4.1564095 61.02536,3.8479844 Z M 57.779115,3.5302956 c -0.608527,-1.2988319 -0.525829,1.048459 0,0 z m 2.233391,-0.9125399 c -0.209214,-1.3453717 -0.479508,0.5082115 0,0 z m 0.520806,-1.1964921 c -0.56578,-0.93309929 -0.379233,0.2132278 0.103173,0.439047 l -0.046,-0.2208139 -0.05717,-0.2182331 z M 40.138327,3.0754163 c -1.125855,0.1235082 -2.309373,-1.8785155 -3.254298,-0.6487396 1.19665,-0.2123163 2.055215,0.7860136 3.254298,0.6487396 z M 57.351749,0.34603189 c 0.654243,-0.56407531 -1.168985,-0.078155 -0.983853,-0.77005289 -0.595676,0.53189804 0.591143,1.04929525 0.983853,0.77005289 z M 38.84538,1.3220549 c -1.580218,-0.1708042 -0.774142,-2.6576184 -2.22798,-2.6425657 -0.951538,-0.1357978 -0.41791,0.4240955 0.166059,0.3016796 0.729607,0.663602 0.188681,1.94226778 1.459665,2.1972718 0.09158,0.040554 0.805169,0.5520256 0.602256,0.1436143 z m 16.023597,-1.8268975 c 0.644093,-1.5933213 -0.803768,0.85739136 0,0 z m 2.572163,-0.5526519 c -0.580929,-0.5219664 -1.067446,0.5667697 0,0 z m -3.129439,-1.6197319 c 0.206155,-1.0512019 -0.895928,0.418515 0,0 z m 1.134697,-0.2160554 c 0.359516,-0.2856595 0.84145,-1.8649454 0.306266,-1.4450763 0.298971,0.6510653 -1.970869,1.8675839 -0.306266,1.4450763 z m -2.522447,-0.5191741 c 0.474265,-0.7941949 -0.805366,0.2954233 -0.164625,0.08115 l 0.164625,-0.08115 z m -7.566614,-2.8255444 c -0.515872,-0.2632506 -0.569378,-2.4049905 -1.145128,-1.345485 0.111533,0.5377653 0.256546,2.1701074 1.145128,1.345485 z m -2.803442,0.2442243 c -0.06892,-0.9282727 -1.026201,-0.3121928 0,0 z M 43.20264,5.2999505 c 0.0053,-0.8595155 1.852933,-0.449616 0.468388,-0.061904 -0.139004,0.073348 -0.314105,0.1473869 -0.468388,0.061904 z m 8.734335,-11.7584428 c -1.05239,-0.5204075 -1.673541,-3.093557 0.0247,-3.01344 1.06322,-0.230997 3.640947,1.1961283 2.024152,2.1142225 -0.729363,0.0384 -1.31764,0.4404823 -1.511995,1.081963 -0.20092,0.0382 -0.375835,-0.086562 -0.536865,-0.1827455 z m 0.419528,-1.6394463 c 0.673169,-0.8470506 -0.67567,-0.1358235 -0.0889,0.019186 l 0.06767,-0.014609 0.02122,-0.00458 z"
       style="fill:#4d4d4d;fill-opacity:1;stroke:none" />
  </g>
</svg>
