<?xml version="1.0" encoding="UTF-8" standalone="no"?>
<svg
   xmlns:dc="http://purl.org/dc/elements/1.1/"
   xmlns:cc="http://creativecommons.org/ns#"
   xmlns:rdf="http://www.w3.org/1999/02/22-rdf-syntax-ns#"
   xmlns:svg="http://www.w3.org/2000/svg"
   xmlns="http://www.w3.org/2000/svg"
   version="1.1"
   id="svg2"
   viewBox="0 0 16 16">
  <metadata
     id="metadata10">
    <rdf:RDF>
      <cc:Work
         rdf:about="">
        <dc:format>image/svg+xml</dc:format>
        <dc:type
           rdf:resource="http://purl.org/dc/dcmitype/StillImage" />
        <dc:title></dc:title>
      </cc:Work>
    </rdf:RDF>
  </metadata>
  <defs
     id="defs3051">
    <style
       id="current-color-scheme"
       type="text/css">
      .ColorScheme-Text {
        color:#4d4d4d;
      }
      </style>
    <style
       id="current-color-scheme-0"
       type="text/css">
      .ColorScheme-Text {
        color:#4d4d4d;
      }
      </style>
  </defs>
  <path
     id="path6"
     class="ColorScheme-Text"
     d="M 7 2 L 7 3 L 13 3 L 13 13 L 7 13 L 7 14 L 13 14 L 14 14 L 14 3 L 14 2 L 7 2 z M 2 6 L 2 7 L 7 7 L 7 6 L 2 6 z M 3 8 L 3 9 L 7 9 L 7 8 L 3 8 z M 5 10 L 5 11 L 7 11 L 7 10 L 5 10 z "
     style="fill:currentColor;fill-opacity:1;stroke:none" />
  <g
     id="text4138"
     style="color:#4d4d4d;font-style:normal;font-weight:normal;font-size:6.49471474px;line-height:125%;font-family:sans-serif;letter-spacing:0px;word-spacing:0px;clip-rule:nonzero;display:inline;overflow:visible;visibility:visible;opacity:1;isolation:auto;mix-blend-mode:normal;color-interpolation:sRGB;color-interpolation-filters:linearRGB;solid-color:#000000;solid-opacity:1;fill:currentColor;fill-opacity:1;fill-rule:nonzero;stroke:none;stroke-width:1;stroke-linecap:butt;stroke-linejoin:miter;stroke-miterlimit:4;stroke-dasharray:none;stroke-dashoffset:0;stroke-opacity:1;color-rendering:auto;image-rendering:auto;shape-rendering:auto;text-rendering:auto;enable-background:accumulate"
     transform="translate(3.0000002,1)">
    <path
       id="path4157"
       d="m 4.9999998,9.9980011 c 0,-2.0521494 0,-4.1042987 0,-6.1564481 0.6194617,0.00435 1.239362,-0.00938 1.8585079,0.00819 C 7.5736155,3.884588 8.2675772,4.2731853 8.6265854,4.9007451 8.96454,5.4558315 9.0162602,6.1215189 8.9999998,6.7563221 8.9989398,7.395899 9.0374608,8.0597677 8.7734208,8.6595197 8.5040139,9.3318681 7.873067,9.8362573 7.1572873,9.9493722 6.670427,10.03093 6.17489,9.9865461 5.6836984,9.9980011 c -0.2278995,0 -0.4557991,0 -0.6836986,0 z M 6.1414339,4.8774938 c 0,1.3629316 0,2.7258632 0,4.0887948 0.4195218,-0.01129 0.8865986,0.063073 1.240982,-0.2149346 C 7.760981,8.382419 7.9405144,7.8400467 7.9094132,7.3166284 7.9003991,6.9062516 7.9331557,6.4932224 7.8791756,6.0854582 7.808273,5.7167226 7.6494366,5.3473087 7.374207,5.0860033 7.0215732,4.8091387 6.5567133,4.8910297 6.1414339,4.8774938 Z"
       style="color:#4d4d4d;font-style:normal;font-variant:normal;font-weight:bold;font-stretch:normal;font-size:8.65961933px;font-family:'Roboto Condensed';-inkscape-font-specification:'Roboto Condensed,  Bold';clip-rule:nonzero;display:inline;overflow:visible;visibility:visible;isolation:auto;mix-blend-mode:normal;color-interpolation:sRGB;color-interpolation-filters:linearRGB;solid-color:#000000;solid-opacity:1;fill:currentColor;fill-opacity:1;fill-rule:nonzero;stroke:none;stroke-width:1;stroke-linecap:butt;stroke-linejoin:miter;stroke-miterlimit:4;stroke-dasharray:none;stroke-dashoffset:0;stroke-opacity:1;color-rendering:auto;image-rendering:auto;shape-rendering:auto;text-rendering:auto;enable-background:accumulate" />
  </g>
</svg>
