<?xml version="1.0" encoding="UTF-8" standalone="no"?>
<svg
   xmlns:dc="http://purl.org/dc/elements/1.1/"
   xmlns:cc="http://creativecommons.org/ns#"
   xmlns:rdf="http://www.w3.org/1999/02/22-rdf-syntax-ns#"
   xmlns:svg="http://www.w3.org/2000/svg"
   xmlns="http://www.w3.org/2000/svg"
   version="1.1"
   id="svg2"
   viewBox="0 0 16 16">
  <metadata
     id="metadata10">
    <rdf:RDF>
      <cc:Work
         rdf:about="">
        <dc:format>image/svg+xml</dc:format>
        <dc:type
           rdf:resource="http://purl.org/dc/dcmitype/StillImage" />
        <dc:title></dc:title>
      </cc:Work>
    </rdf:RDF>
  </metadata>
  <defs
     id="defs3051">
    <style
       id="current-color-scheme"
       type="text/css">
      .ColorScheme-Text {
        color:#4d4d4d;
      }
      </style>
    <style
       type="text/css"
       id="current-color-scheme-8">
      .ColorScheme-Text {
        color:#4d4d4d;
      }
      .ColorScheme-NegativeText {
        color:#da4453;
      }
      </style>
  </defs>
  <path
     id="path6"
     class="ColorScheme-Text"
     d="M 8 2 L 6 5 L 10 5 L 8 2 z M 5 6 L 2 8 L 5 10 L 5 6 z M 11 6 L 11 10 L 14 8 L 11 6 z M 8 7 C 7.4477153 7 7 7.4477153 7 8 C 7 8.5522847 7.4477153 9 8 9 C 8.5522847 9 9 8.5522847 9 8 C 9 7.4477153 8.5522847 7 8 7 z M 6 11 L 8 14 L 10 11 L 6 11 z "
     style="fill:currentColor;fill-opacity:1;stroke:none" />
  <path
     id="path4144"
     d="m 10,13 5,0 0,1 -5,0 z"
     class="ColorScheme-NegativeText"
     style="color:#da4453;fill:currentColor;fill-opacity:1;stroke:none" />
</svg>
