<?xml version="1.0" encoding="UTF-8" standalone="no"?>
<svg
   xmlns:dc="http://purl.org/dc/elements/1.1/"
   xmlns:cc="http://creativecommons.org/ns#"
   xmlns:rdf="http://www.w3.org/1999/02/22-rdf-syntax-ns#"
   xmlns:svg="http://www.w3.org/2000/svg"
   xmlns="http://www.w3.org/2000/svg"
   viewBox="0 0 22 22"
   id="svg2"
   version="1.1">
  <metadata
     id="metadata12">
    <rdf:RDF>
      <cc:Work
         rdf:about="">
        <dc:format>image/svg+xml</dc:format>
        <dc:type
           rdf:resource="http://purl.org/dc/dcmitype/StillImage" />
        <dc:title></dc:title>
      </cc:Work>
    </rdf:RDF>
  </metadata>
  <defs
     id="defs3051">
    <style
       type="text/css"
       id="current-color-scheme">
      .ColorScheme-Text {
        color:#4d4d4d;
      }
      </style>
  </defs>
  <rect
     style="color:#4d4d4d;opacity:1;fill:currentColor;fill-opacity:1;stroke:none"
     id="rect4142"
     width="0"
     height="10.999983"
     x="-38.258236"
     y="-27.660368"
     class="ColorScheme-Text" />
  <path
     id="path4149"
     d="m 18.049065,10.901125 c 0.764338,5.045784 -2.946885,9.339302 -6.988613,9.339302 -4.0417284,0 -7.7142464,-4.266866 -7.1534044,-9.339302 0.626209,-5.6636391 3.111676,-9.1415517 7.1534044,-9.1415519 4.041728,-5e-7 6.065779,3.0494536 6.988613,9.1415519 z"
     style="color:#000000;clip-rule:nonzero;display:inline;overflow:visible;visibility:visible;opacity:1;isolation:auto;mix-blend-mode:normal;color-interpolation:sRGB;color-interpolation-filters:linearRGB;solid-color:#000000;solid-opacity:1;fill:none;fill-opacity:1;fill-rule:evenodd;stroke:#4d4d4d;stroke-width:1;stroke-linecap:butt;stroke-linejoin:miter;stroke-miterlimit:4;stroke-dasharray:none;stroke-dashoffset:0;stroke-opacity:1;marker:none;color-rendering:auto;image-rendering:auto;shape-rendering:auto;text-rendering:auto;enable-background:accumulate" />
  <path
     id="path4176"
     d="m 12.001268,18.987592 c -0.421815,-0.146966 0.129613,-1.330153 -0.4959,-0.748183 0.04837,0.364418 -0.161142,0.99845 -0.361113,0.341946 -0.104909,-0.82622 0.12467,-1.659337 -0.04755,-2.486127 -0.206234,-0.632627 0.380878,-1.560072 -0.153721,-1.976065 -0.232835,0.719217 0.1207,1.527606 -0.05915,2.276518 -0.231548,0.763562 0.316411,1.770818 -0.207032,2.389097 -0.197815,-0.174872 -0.169972,-1.01625 -0.581848,-0.630331 0.621443,0.835649 -1.0170904,1.272131 -1.0964684,0.341869 0.07106,-0.471297 -0.232513,-0.702827 -0.567101,-0.401297 -0.444231,-0.499724 0.105478,-1.210431 -0.129055,-1.795642 -0.05634,-0.494474 -0.663155,-0.289467 -0.309796,0.119686 0.06583,0.497573 0.0077,1.259205 -0.162987,1.591763 -0.440655,-0.231987 -1.471789,-1.066937 -0.824561,-1.455067 0.422133,-0.67717 -0.2854,-0.188388 -0.564034,-0.101501 -0.536636,-0.15726 -0.122431,-0.757902 -0.04268,-0.90565 -0.491215,0.180313 -0.869028,-0.315846 -0.685677,-0.722364 0.274248,-0.130847 1.463769,0.254916 1.077784,-0.245129 -0.49989,-0.02944 -0.550178,-0.461092 -0.01461,-0.442561 0.768505,-0.372517 -0.327633,-0.56988 -0.541872,-0.117093 -0.267008,0.410634 -0.75268,0.70119 -0.912111,0.08864 -0.611749,-0.349382 0.599364,-1.185548 -0.271916,-1.096675 -0.106854,-0.375942 0.11636,-1.163397 0.553127,-0.560564 0.639894,0.402136 0.04747,-0.733828 -0.338439,-0.72431 -0.03981,-0.524932 0.02317,-1.532851 0.745467,-0.987558 0.416208,-0.283368 -0.872122,-0.440708 -0.519142,-0.961643 -0.115627,-0.4835513 0.267504,-1.1289833 0.629322,-0.4931316 0.252606,0.383096 0.855944,0.2700467 0.372514,-0.1713278 -0.463745,-0.1823629 -1.183148,-0.9537822 -0.393353,-1.209333 0.64845,-0.050082 1.18244,0.9741504 1.825961,0.3812376 C 7.6233456,8.0807188 6.9291346,7.8931521 6.4824016,7.648989 6.1453336,7.6043938 5.7792656,7.7961231 5.9558746,7.2874868 6.2311056,6.673994 6.2336936,5.3743895 7.1048896,5.4280276 c 0.842429,0.062932 -0.235357,0.7490798 0.187077,0.9024229 0.167485,-0.3920371 1.175662,0.066574 0.76494,-0.4482863 -0.310381,-0.3757149 -0.50781,-0.8488881 -1.09677,-0.7641131 -0.353137,-0.4669243 0.717744,-1.0782545 1.099957,-1.0781737 0.232482,0.1514946 0.58669,1.2631931 0.705356,0.5310682 C 8.5383456,4.1467884 7.8722446,3.4859939 8.7490396,3.347155 9.3190656,3.1054186 10.264439,2.9245479 10.681053,3.43655 10.658143,4.058247 10.889971,4.7035891 10.704773,5.3087082 10.489701,5.7007508 9.5333496,5.4305193 9.6937076,6.0730353 10.126806,5.9638924 11.05717,5.493526 10.79469,6.3675482 c 0.206009,0.597864 -0.9444974,0.3605985 -0.327275,0.8612378 0.33248,0.2632656 1.591687,-8.081e-4 1.149378,-0.432588 -0.789425,0.3853694 -0.576559,-1.5954969 0.08899,-0.8782677 0.300919,0.3020365 1.041245,0.06325 0.412244,-0.2050177 -0.682596,-0.095098 -1.198454,-0.5904589 -1.002746,-1.2999733 -0.214983,-0.7238058 0.196795,-1.4218903 0.961133,-1.3163725 0.58129,-0.0378 1.403032,0.187042 1.699302,0.6747091 -0.187521,0.2261884 -0.952764,1.1269391 -0.291054,0.983189 0.2038,-0.4131065 0.556106,-1.0669191 0.989469,-0.5176146 0.614266,0.101005 1.016813,1.1284348 0.09315,0.9584614 -0.363626,0.1407396 -0.567708,0.75782 -0.710151,0.9538948 0.368296,-0.056614 0.657513,0.01532 0.957248,0.1692678 0.103122,-0.2565786 -0.635237,-0.7740567 0.03049,-0.866609 0.898352,-0.2129715 0.815443,1.0540096 1.166538,1.5731208 0.300682,0.5207093 -0.123622,0.8384281 -0.617718,0.6535168 -0.431595,0.1806919 -0.915189,0.5213558 -1.313407,0.5461859 0.419128,0.6416383 1.12512,-0.1639489 1.583168,-0.2787237 0.879032,-0.241898 0.616816,1.0346884 -0.06383,1.0941883 -0.415771,0.1649517 -0.308524,0.8088126 0.115247,0.3669554 0.252599,-0.350062 0.866811,-0.6464565 0.798749,0.055897 0.165915,0.4880222 -0.0061,0.8794592 -0.514291,0.9714272 -0.353041,0.57861 0.398696,0.180573 0.617424,0.112205 0.281206,0.572694 0.188137,1.258449 -0.362527,1.579124 -0.357963,0.362481 0.04102,0.668244 0.273757,0.179781 0.491641,-0.418679 0.686217,1.043074 0.05428,0.771867 0.448876,0.472085 0.220343,1.219268 -0.330161,1.447903 -0.234035,-0.355642 -0.930967,-1.060863 -1.296657,-0.615144 0.163447,0.122763 1.133363,0.547091 0.363582,0.627815 -0.667444,0.273483 0.405971,0.456281 0.643258,0.216388 0.892778,0.04299 0.142123,1.098957 -0.399734,0.856914 0.546925,0.228599 0.211624,1.196478 -0.314955,0.757675 -0.303395,-0.424073 -0.550659,-0.04562 -0.167173,0.21339 0.581684,0.439937 -0.414804,1.167709 -0.837129,1.463087 -0.317623,-0.368492 -0.311934,-1.380541 -0.144141,-1.983161 -0.670973,-0.110555 -0.441531,1.035069 -0.353007,1.49322 0.178999,0.559262 -0.354534,0.48363 -0.631404,0.504319 -0.123175,0.581698 -0.37392,1.32626 -1.113466,0.927776 z M 9.5002276,16.628941 c -0.517462,-0.836773 0.8306094,-0.967455 1.0181034,-1.277968 -0.6249304,-0.477389 -1.0111754,0.532586 -1.5916624,0.345726 -0.132899,0.2663 0.206149,1.154361 0.573559,0.932242 z m 3.2565504,-0.0067 c 0.418464,-0.226629 0.465921,-1.146049 -0.06725,-0.923375 -0.186056,-0.388256 -1.226398,-0.639544 -1.176753,-0.237642 0.524769,0.200094 1.426709,0.434821 0.98049,1.182643 0.02308,0.145683 0.204634,0.0045 0.263509,-0.02163 z M 9.5233796,13.931118 C 10.257451,13.46962 11.081289,12.807957 10.786125,11.82499 10.62143,11.16809 10.595393,13.199818 10.3366,12.156256 9.8089006,11.596202 9.0825176,12.747954 8.8300196,13.19818 c -0.163464,0.462167 0.1292,1.261595 0.69336,0.732938 z m 3.5949834,-0.04002 c 0.386734,-0.733071 -0.404504,-1.347605 -0.861691,-1.813459 -0.472109,-0.417638 -0.61796,0.223725 -0.786483,0.377327 -0.102393,-0.288141 -0.193122,-1.289183 -0.270688,-0.410497 -0.170212,0.833248 0.499998,1.340744 1.092973,1.752744 0.212779,0.197973 0.642439,0.505067 0.825889,0.09389 z m -2.053155,-1.670355 c 0.05512,-0.252057 -0.09171,-1.223757 -0.11612,-0.439469 0.03628,0.250818 -0.137348,1.246883 0.120256,1.024849 0.0054,-0.195131 -0.0027,-0.390259 -0.0041,-0.58538 z m -3.7675374,0.622903 c 0.215672,-0.700041 -1.58953,-0.09455 -0.520392,0.03507 0.173649,0.01178 0.351673,0.01408 0.520392,-0.03507 z m 8.2627774,-0.01944 c 0.18379,-0.691729 -1.590566,-0.04192 -0.517958,0.05713 0.173778,0.0046 0.352114,0.0013 0.517958,-0.05713 z m -8.1482354,-0.72228 c -0.09822,-0.554082 -1.261174,-0.808309 -1.38607,-0.443014 0.433783,0.17872 0.940265,0.469414 1.386072,0.44301 l -2e-6,4e-6 z m 7.5894274,-0.02107 c 0.151042,-0.329753 1.254549,-0.169627 0.889081,-0.582616 -0.416581,-0.07562 -1.411232,0.186125 -1.200786,0.661742 0.110907,0.02631 0.218795,-0.02585 0.311705,-0.07913 z M 8.1365606,11.531727 C 7.7057316,10.984662 7.4693336,10.114484 7.9690666,9.5489893 7.6509286,8.948282 7.2539206,10.152068 7.3890526,10.492829 c 0.02991,0.287644 0.317222,1.436403 0.747508,1.038898 z m 6.1550454,-0.04004 c 0.310343,-0.605628 0.660245,-1.8928063 -0.208943,-2.1155512 0.105137,0.4996842 0.456929,1.0759222 0.09763,1.5977452 -0.162089,0.222706 -0.549503,0.994798 0.111317,0.517806 z M 10.627269,9.957146 c 0.496218,-0.5610688 0.517375,-1.6633314 -0.08051,-2.1393455 -0.518681,-0.3421174 -0.437882,0.1031787 -0.131027,0.3738233 0.362318,0.5967634 -0.281545,1.2194596 0.09371,1.7854602 -0.0018,0.08952 0.134788,0.06289 0.117815,-0.01994 z m 0.881,-0.0407 C 11.770381,9.1989326 11.169459,8.3429579 11.854502,7.7381815 11.101848,7.6550805 10.903349,8.6219171 11.05351,9.2226881 11.09846,9.4471943 11.13695,10.06912 11.508269,9.916435 Z M 9.9785236,7.5909996 c -0.230819,-0.392013 -0.29684,0.092605 0,0 z m 2.2176594,-0.038358 c 0.09152,-0.3305293 -0.359405,0.2810605 0,0 z"
     style="color:#000000;clip-rule:nonzero;display:inline;overflow:visible;visibility:visible;opacity:1;isolation:auto;mix-blend-mode:normal;color-interpolation:sRGB;color-interpolation-filters:linearRGB;solid-color:#000000;solid-opacity:1;fill:#4d4d4d;fill-opacity:1;fill-rule:nonzero;stroke:none;stroke-width:0.48745012;stroke-linecap:butt;stroke-linejoin:miter;stroke-miterlimit:4;stroke-dasharray:none;stroke-dashoffset:0;stroke-opacity:1;color-rendering:auto;image-rendering:auto;shape-rendering:auto;text-rendering:auto;enable-background:accumulate" />
</svg>
