<?xml version="1.0" encoding="UTF-8" standalone="no"?>
<svg
   xmlns:dc="http://purl.org/dc/elements/1.1/"
   xmlns:cc="http://creativecommons.org/ns#"
   xmlns:rdf="http://www.w3.org/1999/02/22-rdf-syntax-ns#"
   xmlns:svg="http://www.w3.org/2000/svg"
   xmlns="http://www.w3.org/2000/svg"
   viewBox="0 0 16 16"
   id="svg2"
   version="1.1">
  <metadata
     id="metadata10">
    <rdf:RDF>
      <cc:Work
         rdf:about="">
        <dc:format>image/svg+xml</dc:format>
        <dc:type
           rdf:resource="http://purl.org/dc/dcmitype/StillImage" />
        <dc:title></dc:title>
      </cc:Work>
    </rdf:RDF>
  </metadata>
  <defs
     id="defs3051">
    <style
       type="text/css"
       id="current-color-scheme">
      .ColorScheme-Text {
        color:#4d4d4d;
      }
      </style>
    <style
       id="current-color-scheme-0"
       type="text/css">
      .ColorScheme-Text {
        color:#4d4d4d;
      }
      </style>
  </defs>
  <path
     style="color:#4d4d4d;fill:currentColor;fill-opacity:1;stroke:none"
     d="m 3,2 0,1 0,1 -1,0 0,2 1,0 0,4 -1,0 0,2 1,0 0,1.5 0,0.5 11,0 0,-1 0,-10 0,-1 z m 1,1 9,0 0,10 -9,0 z"
     class="ColorScheme-Text"
     id="path6" />
  <path
     style="color:#4d4d4d;fill:currentColor;fill-opacity:1;stroke:none"
     d="m 8.5000001,4.857423 c -0.986223,0 -1.7851564,0.7989335 -1.7851564,1.7851562 0,0.9862226 0.7989334,1.7871094 1.7851564,1.7871094 0.9862298,0 1.7871199,-0.8008868 1.7871199,-1.7871094 0,-0.9862227 -0.8008901,-1.7851562 -1.7871199,-1.7851562 z m 0,4.2851566 C 7.1192881,9.1425796 6,10.422042 6,12 l 0.7148437,0 3.5722763,0 0.712891,0 c 0,-1.577958 -1.1192883,-2.8574204 -2.5000109,-2.8574204 z"
     id="path4157" />
</svg>
