<?xml version="1.0" encoding="UTF-8" standalone="no"?>
<svg
   xmlns:dc="http://purl.org/dc/elements/1.1/"
   xmlns:cc="http://creativecommons.org/ns#"
   xmlns:rdf="http://www.w3.org/1999/02/22-rdf-syntax-ns#"
   xmlns:svg="http://www.w3.org/2000/svg"
   xmlns="http://www.w3.org/2000/svg"
   height="16"
   width="16"
   version="1.1"
   id="svg2"
   viewBox="0 0 16 16">
  <metadata
     id="metadata10">
    <rdf:RDF>
      <cc:Work
         rdf:about="">
        <dc:format>image/svg+xml</dc:format>
        <dc:type
           rdf:resource="http://purl.org/dc/dcmitype/StillImage" />
        <dc:title></dc:title>
      </cc:Work>
    </rdf:RDF>
  </metadata>
  <defs
     id="defs3051">
    <style
       id="current-color-scheme"
       type="text/css">
      .ColorScheme-Text {
        color:#4d4d4d;
      }
      .ColorScheme-Highlight {
        color:#3daee9;
      }
      </style>
    <style
       type="text/css"
       id="current-color-scheme-7">
      .ColorScheme-Text {
        color:#4d4d4d;
      }
      </style>
  </defs>
  <path
     id="path6"
     d="M 6,0 0,2 2,8 12,13 16,5 6,0 Z M 0,2 0,8 8,16 10.705078,13.294922 1,8 0,2 Z M 3.5,2 C 4.331,2 5,2.669 5,3.5 5,4.331 4.331,5 3.5,5 2.669,5 2,4.331 2,3.5 2,2.669 2.669,2 3.5,2 Z m 3.515625,0.4511719 1.251953,0.6308593 c 0.553274,0.2781761 0.90574,0.6751912 1.056641,1.1914063 0.15307,0.5173058 0.07847,1.0821375 -0.222657,1.6972656 L 8.716797,6.7402344 C 8.403713,7.362938 7.991122,7.768968 7.482422,7.958984 6.9769827,8.147922 6.4365152,8.096816 5.859375,7.806641 L 4.6328125,7.189453 7.015625,2.4511719 Z M 7.570312,3.7304688 5.9882812,6.8769531 6.2753906,7.021484 C 6.5943365,7.181845 6.8600384,7.210989 7.074219,7.109374 7.28949,7.005591 7.504972,6.7488128 7.71875,6.3398428 L 8.132812,5.515625 C 8.355353,5.0730063 8.448511,4.7338034 8.412109,4.4980469 8.376799,4.2601205 8.212807,4.0624269 7.919922,3.9042969 L 7.570312,3.7304688 Z m 4.056641,1.125 c 0.24949,0.014674 0.505045,0.086753 0.767578,0.21875 0.516388,0.2596306 0.835246,0.6006884 0.957031,1.0234374 0.123956,0.4238401 0.06873,0.9158088 -0.166015,1.4746098 L 12.226562,7.089844 C 12.385881,6.7513468 12.448212,6.4941542 12.416016,6.3203125 12.387081,6.1453919 12.247779,5.9956832 11.996094,5.8691406 11.740069,5.7404161 11.513265,5.7386027 11.316406,5.8652344 11.120638,5.9896963 10.915812,6.255309 10.703125,6.6621094 L 10.253906,7.556641 C 10.017184,8.027465 9.906091,8.37736 9.921875,8.605469 c 0.01795,0.229199 0.156085,0.408385 0.412109,0.537109 0.251685,0.126543 0.454772,0.153582 0.611328,0.08008 0.157648,-0.07567 0.323578,-0.271367 0.498047,-0.585937 L 12.400391,9.11719 C 12.104893,9.645445 11.747649,9.978239 11.328125,10.115236 10.9086,10.252233 10.443473,10.193856 9.933594,9.937502 9.397678,9.668053 9.07452,9.284553 8.964844,8.789064 8.858427,8.292497 8.970444,7.717535 9.298828,7.064455 L 9.699219,6.2675801 c 0.327266,-0.6509098 0.727416,-1.0781189 1.199219,-1.28125 0.236446,-0.1026502 0.479025,-0.1455329 0.728515,-0.1308593 z"
     style="color:#4d4d4d;clip-rule:nonzero;display:inline;overflow:visible;visibility:visible;opacity:1;isolation:auto;mix-blend-mode:normal;color-interpolation:sRGB;color-interpolation-filters:linearRGB;solid-color:#000000;solid-opacity:1;fill:currentColor;fill-opacity:1;fill-rule:nonzero;stroke:none;stroke-width:1;stroke-linecap:butt;stroke-linejoin:miter;stroke-miterlimit:4;stroke-dasharray:none;stroke-dashoffset:0;stroke-opacity:1;color-rendering:auto;image-rendering:auto;shape-rendering:auto;text-rendering:auto;enable-background:accumulate" />
  <g
     id="text4179"
     style="font-style:normal;font-weight:normal;font-size:7.46036243px;line-height:125%;font-family:sans-serif;letter-spacing:0px;word-spacing:0px;fill:#ffffff;fill-opacity:1;stroke:none;stroke-width:1px;stroke-linecap:butt;stroke-linejoin:miter;stroke-opacity:1"
     transform="matrix(0.89343073,0.44920098,-0.44920098,0.89343073,0,-6)" />
</svg>
