<?xml version="1.0" encoding="UTF-8" standalone="no"?>
<svg
   xmlns:dc="http://purl.org/dc/elements/1.1/"
   xmlns:cc="http://creativecommons.org/ns#"
   xmlns:rdf="http://www.w3.org/1999/02/22-rdf-syntax-ns#"
   xmlns:svg="http://www.w3.org/2000/svg"
   xmlns="http://www.w3.org/2000/svg"
   id="svg6"
   version="1.1"
   viewBox="0 0 16 16">
  <metadata
     id="metadata10">
    <rdf:RDF>
      <cc:Work
         rdf:about="">
        <dc:format>image/svg+xml</dc:format>
        <dc:type
           rdf:resource="http://purl.org/dc/dcmitype/StillImage" />
        <dc:title></dc:title>
      </cc:Work>
    </rdf:RDF>
  </metadata>
  <defs
     id="defs3051">
    <style
       id="current-color-scheme"
       type="text/css">
      .ColorScheme-Text {
        color:#4d4d4d;
      }
      </style>
  </defs>
  <path
     id="path4"
     class="ColorScheme-Text"
     d="m 3.5512253,2 c -0.393,0 -0.75,0.357 -0.75,0.75 0,0.393 0.357,0.75 0.75,0.75 0.393,0 0.75,-0.357 0.75,-0.75 0,-0.393 -0.357,-0.75 -0.75,-0.75 m 0.75,2.25 0.005,9.75 2.995,-4 h 4.4999997 z"
     style="color:#4d4d4d;fill:currentColor;fill-opacity:1;stroke:none" />
  <g
     id="text4489"
     style="font-style:normal;font-weight:normal;font-size:7.5px;line-height:25px;font-family:sans-serif;letter-spacing:0px;word-spacing:0px;opacity:1;vector-effect:none;fill:#4d4d4d;fill-opacity:1;stroke:none;stroke-width:1;stroke-linecap:butt;stroke-linejoin:miter;stroke-miterlimit:4;stroke-dasharray:none;stroke-dashoffset:0;stroke-opacity:1"
     aria-label="73">
    <path
       id="path4505"
       style="font-style:normal;font-variant:normal;font-weight:bold;font-stretch:normal;font-size:5.33333349px;font-family:Roboto;-inkscape-font-specification:'Roboto Bold';vector-effect:none;fill:#4d4d4d;fill-opacity:1;stroke:none;stroke-width:1;stroke-linecap:butt;stroke-linejoin:miter;stroke-miterlimit:4;stroke-dasharray:none;stroke-dashoffset:0;stroke-opacity:1"
       d="M 10.172733,2.5793621 8.706587,5.9491539 H 7.9123162 l 1.46875,-3.1822918 H 7.4956495 v -0.609375 h 2.6770835 z" />
    <path
       id="path4507"
       style="font-style:normal;font-variant:normal;font-weight:bold;font-stretch:normal;font-size:5.33333349px;font-family:Roboto;-inkscape-font-specification:'Roboto Bold';vector-effect:none;fill:#4d4d4d;fill-opacity:1;stroke:none;stroke-width:1;stroke-linecap:butt;stroke-linejoin:miter;stroke-miterlimit:4;stroke-dasharray:none;stroke-dashoffset:0;stroke-opacity:1"
       d="m 11.422733,3.7199872 h 0.401042 q 0.286458,0 0.424479,-0.1432292 0.138021,-0.1432292 0.138021,-0.3802083 0,-0.2291667 -0.138021,-0.3567709 -0.135417,-0.1276042 -0.375,-0.1276042 -0.216146,0 -0.361979,0.1197917 -0.145834,0.1171875 -0.145834,0.3072917 h -0.752604 q 0,-0.296875 0.158854,-0.53125 0.161459,-0.2369792 0.447917,-0.3697917 0.289062,-0.1328125 0.635417,-0.1328125 0.601562,0 0.942708,0.2890625 0.341146,0.2864583 0.341146,0.7916667 0,0.2604167 -0.158854,0.4791667 -0.158855,0.21875 -0.416667,0.3359375 0.320312,0.1145833 0.476562,0.34375 0.158855,0.2291667 0.158855,0.5416667 0,0.5052083 -0.369792,0.8098958 -0.367188,0.3046875 -0.973958,0.3046875 -0.567709,0 -0.929688,-0.2994791 -0.359375,-0.2994792 -0.359375,-0.7916667 h 0.752604 q 0,0.2135416 0.158854,0.3489583 0.161459,0.1354167 0.395834,0.1354167 0.268229,0 0.419271,-0.140625 0.153645,-0.1432292 0.153645,-0.3776042 0,-0.5677083 -0.625,-0.5677083 h -0.398437 z" />
  </g>
</svg>
