<?xml version="1.0" encoding="UTF-8" standalone="no"?>
<svg
   xmlns:dc="http://purl.org/dc/elements/1.1/"
   xmlns:cc="http://creativecommons.org/ns#"
   xmlns:rdf="http://www.w3.org/1999/02/22-rdf-syntax-ns#"
   xmlns:svg="http://www.w3.org/2000/svg"
   xmlns="http://www.w3.org/2000/svg"
   xmlns:xlink="http://www.w3.org/1999/xlink"
   id="svg2"
   viewBox="0 0 32 32"
   height="32"
   version="1.1"
   width="32">
  <defs
     id="defs5455">
    <linearGradient
       id="linearGradient4172-5">
      <stop
         id="stop4174-6"
         style="stop-color:#3daee9" />
      <stop
         id="stop4176-6"
         style="stop-color:#6cc1ef"
         offset="1" />
    </linearGradient>
    <linearGradient
       x2="0"
       gradientUnits="userSpaceOnUse"
       y2="8"
       y1="29"
       xlink:href="#linearGradient4172-5"
       id="linearGradient4342" />
  </defs>
  <metadata
     id="metadata5458">
    <rdf:RDF>
      <cc:Work
         rdf:about="">
        <dc:format>image/svg+xml</dc:format>
        <dc:type
           rdf:resource="http://purl.org/dc/dcmitype/StillImage" />
        <dc:title></dc:title>
      </cc:Work>
    </rdf:RDF>
  </metadata>
  <g
     id="layer1-4"
     transform="translate(-384.57144,-515.798)">
    <path
       style="fill:#147eb8;fill-rule:evenodd"
       id="path4308"
       d="m 386.57144,518.798 0,7 0,1 28,0 0,-6 -14.00001,0 -2,-2 z" />
    <path
       style="fill-opacity:0.235294;fill-rule:evenodd"
       id="path4306"
       d="m 397.57143,523.798 -1.99999,1 -9,0 0,1 6.99999,0 3,0 z" />
    <path
       style="fill:url(#linearGradient4342)"
       id="rect4294"
       d="m 13,8 -2,2 -9,0 -1,0 0,19 11,0 1,0 18,0 0,-21 -18,0 z"
       transform="translate(384.57143,515.798)" />
    <path
       style="fill:#ffffff;fill-opacity:0.235294;fill-rule:evenodd"
       id="path4304"
       d="m 397.57143,523.798 -2,2 -10,0 0,1 11,0 z" />
    <path
       style="fill:#ffffff;fill-opacity:0.235294;fill-rule:evenodd"
       id="path4310"
       d="m 398.57143,518.798 1,3 15.00001,0 0,-1 -14.00001,0 z" />
    <rect
       width="30"
       x="385.57144"
       y="543.79797"
       height="1"
       style="fill-opacity:0.235294"
       id="rect4292" />
  </g>
  <g
     id="text4145"
     style="color:#000000;font-style:normal;font-weight:normal;font-size:14.70450974px;line-height:125%;font-family:sans-serif;letter-spacing:0px;word-spacing:0px;clip-rule:nonzero;display:inline;overflow:visible;visibility:visible;opacity:1;isolation:auto;mix-blend-mode:normal;color-interpolation:sRGB;color-interpolation-filters:linearRGB;solid-color:#000000;solid-opacity:1;fill:#1272a5;fill-opacity:1;fill-rule:nonzero;stroke:none;stroke-width:0.77320296;stroke-linecap:butt;stroke-linejoin:miter;stroke-miterlimit:4;stroke-dasharray:none;stroke-dashoffset:0;stroke-opacity:1;color-rendering:auto;image-rendering:auto;shape-rendering:auto;text-rendering:auto;enable-background:accumulate"
     transform="scale(1.0646764,0.93925252)">
    <path
       id="path4164"
       style="color:#000000;font-style:normal;font-variant:normal;font-weight:normal;font-stretch:normal;font-family:'Roboto Condensed';-inkscape-font-specification:'Roboto Condensed, ';clip-rule:nonzero;display:inline;overflow:visible;visibility:visible;isolation:auto;mix-blend-mode:normal;color-interpolation:sRGB;color-interpolation-filters:linearRGB;solid-color:#000000;solid-opacity:1;fill:#1272a5;fill-opacity:1;fill-rule:nonzero;stroke-width:0.77320296;stroke-linecap:butt;stroke-linejoin:miter;stroke-miterlimit:4;stroke-dasharray:none;stroke-dashoffset:0;stroke-opacity:1;color-rendering:auto;image-rendering:auto;shape-rendering:auto;text-rendering:auto;enable-background:accumulate"
       d="m 7.5573166,25.486616 0,-10.453987 2.4914384,0 q 1.830883,0 2.843254,1.14879 1.012371,1.141609 1.012371,3.216611 l 0,1.751905 q 0,2.075001 -1.026731,3.209431 -1.02673,1.12725 -2.9796731,1.12725 l -2.3406593,0 z m 1.3139284,-9.319557 0,8.192307 1.0554506,0 q 1.3857274,0 2.0247424,-0.789793 0.639014,-0.796973 0.653374,-2.355019 l 0,-1.852424 q 0,-1.651385 -0.639014,-2.419638 -0.631835,-0.775433 -1.917043,-0.775433 l -1.17751,0 z" />
    <path
       id="path4166"
       style="color:#000000;font-style:normal;font-variant:normal;font-weight:normal;font-stretch:normal;font-family:'Roboto Condensed';-inkscape-font-specification:'Roboto Condensed, ';clip-rule:nonzero;display:inline;overflow:visible;visibility:visible;isolation:auto;mix-blend-mode:normal;color-interpolation:sRGB;color-interpolation-filters:linearRGB;solid-color:#000000;solid-opacity:1;fill:#1272a5;fill-opacity:1;fill-rule:nonzero;stroke-width:0.77320296;stroke-linecap:butt;stroke-linejoin:miter;stroke-miterlimit:4;stroke-dasharray:none;stroke-dashoffset:0;stroke-opacity:1;color-rendering:auto;image-rendering:auto;shape-rendering:auto;text-rendering:auto;enable-background:accumulate"
       d="m 22.498764,22.169486 q -0.08616,1.680105 -0.947751,2.570417 -0.854413,0.890312 -2.419639,0.890312 -1.572406,0 -2.498618,-1.19187 -0.926212,-1.199049 -0.926212,-3.245331 l 0,-1.895503 q 0,-2.039102 0.947752,-3.223791 0.954931,-1.18469 2.599137,-1.18469 1.514966,0 2.340659,0.911852 0.832873,0.904672 0.904672,2.591957 l -1.328288,0 q -0.08616,-1.278029 -0.538495,-1.823704 -0.452336,-0.545675 -1.378548,-0.545675 -1.069811,0 -1.644206,0.840053 -0.574394,0.832872 -0.574394,2.448358 l 0,1.917043 q 0,1.586766 0.531315,2.433998 0.538495,0.847233 1.565226,0.847233 1.026731,0 1.479067,-0.509776 0.452336,-0.509775 0.560035,-1.830883 l 1.328288,0 z" />
  </g>
</svg>
