<?xml version="1.0" encoding="UTF-8" standalone="no"?>
<svg
   xmlns:dc="http://purl.org/dc/elements/1.1/"
   xmlns:cc="http://creativecommons.org/ns#"
   xmlns:rdf="http://www.w3.org/1999/02/22-rdf-syntax-ns#"
   xmlns:svg="http://www.w3.org/2000/svg"
   xmlns="http://www.w3.org/2000/svg"
   viewBox="0 0 22 22"
   id="svg2"
   version="1.1">
  <metadata
     id="metadata12">
    <rdf:RDF>
      <cc:Work
         rdf:about="">
        <dc:format>image/svg+xml</dc:format>
        <dc:type
           rdf:resource="http://purl.org/dc/dcmitype/StillImage" />
        <dc:title></dc:title>
      </cc:Work>
    </rdf:RDF>
  </metadata>
  <defs
     id="defs3051">
    <style
       type="text/css"
       id="current-color-scheme">
      .ColorScheme-Text {
        color:#4d4d4d;
      }
      </style>
    <style
       id="current-color-scheme-5"
       type="text/css">
      .ColorScheme-Text {
        color:#4d4d4d;
      }
      </style>
  </defs>
  <rect
     style="color:#4d4d4d;opacity:1;fill:currentColor;fill-opacity:1;stroke:none"
     id="rect4142"
     width="0"
     height="10.999983"
     x="-38.258236"
     y="-27.660368"
     class="ColorScheme-Text" />
  <path
     id="circle4140"
     d="M 10.46875 2.0195312 A 9 9 0 0 0 6.3808594 3.2871094 C 7.7315938 3.6183683 9.049615 3.8038531 10.333984 3.8359375 L 10.333984 2.4140625 C 10.332184 2.2641845 10.387742 2.1325315 10.46875 2.0195312 z M 11.535156 2.0273438 C 11.613076 2.1390404 11.667752 2.2672993 11.666016 2.4140625 L 11.666016 3.8359375 C 12.949811 3.8038656 14.267089 3.6180747 15.617188 3.2871094 A 9 9 0 0 0 11.535156 2.0273438 z M 6.3789062 3.2890625 A 9 9 0 0 0 5.7050781 3.7363281 A 9 9 0 0 1 6.3789062 3.2890625 z M 15.625 3.2929688 A 9 9 0 0 1 16.646484 4.0019531 A 9 9 0 0 0 15.625 3.2929688 z M 5.5683594 3.8339844 A 9 9 0 0 0 5.3164062 4.0292969 A 9 9 0 0 1 5.5683594 3.8339844 z M 5.3125 4.03125 A 9 9 0 0 0 4.2597656 5.0488281 C 6.3861565 5.9318811 8.3965932 6.3290768 10.333984 6.3867188 L 10.333984 4.828125 C 8.7086334 4.7906169 7.0345982 4.5276245 5.3125 4.03125 z M 4.2597656 5.0488281 A 9 9 0 0 0 3.7792969 5.6464844 A 9 9 0 0 1 4.2597656 5.0488281 z M 16.685547 4.03125 C 14.964098 4.5272806 13.290786 4.7906303 11.666016 4.828125 L 11.666016 6.3867188 C 13.602683 6.3290983 15.612772 5.9331362 17.738281 5.0507812 A 9 9 0 0 0 16.6875 4.03125 C 16.686885 4.0314273 16.686162 4.0310728 16.685547 4.03125 z M 17.816406 5.140625 A 9 9 0 0 1 18.363281 5.84375 A 9 9 0 0 0 17.816406 5.140625 z M 3.625 5.8476562 A 9 9 0 0 0 2 11 A 9 9 0 0 0 5.8164062 18.349609 C 5.8315215 17.398182 6.360675 16.409344 5.4863281 15.806641 C 3.94247 14.742431 4.5340042 13.758599 5.5351562 12.949219 C 5.6957663 12.819371 5.8368958 12.754441 5.9648438 12.738281 C 6.8604806 12.625163 7.0713456 14.929454 8.2128906 14.505859 C 8.9122886 14.246333 9.5249652 13.874694 10.333984 13.726562 L 10.333984 12.546875 C 8.7450942 12.485965 7.0974699 12.157087 5.3730469 11.425781 C 4.7268029 11.179035 5.1373349 10.212231 5.7636719 10.505859 C 7.3651329 11.185024 8.8764412 11.496164 10.333984 11.558594 L 10.333984 9.9550781 C 8.5003082 9.8956401 6.5978766 9.5235232 4.6035156 8.6777344 C 3.9572696 8.4309895 4.3678026 7.4641821 4.9941406 7.7578125 C 6.8659396 8.5516241 8.6315912 8.9058514 10.333984 8.9667969 L 10.333984 7.3769531 C 8.2245882 7.3195816 6.0347651 6.8966198 3.7363281 5.921875 C 3.6903813 5.9024085 3.6600374 5.8737463 3.625 5.8476562 z M 5.8164062 18.349609 A 9 9 0 0 0 6.5449219 18.8125 A 9 9 0 0 1 5.8164062 18.349609 z M 18.369141 5.8515625 C 18.335419 5.8759855 18.3072 5.903433 18.263672 5.921875 C 15.965235 6.8966198 13.775414 7.3195811 11.666016 7.3769531 L 11.666016 8.9667969 C 13.368409 8.9058514 15.13406 8.5516241 17.005859 7.7578125 C 17.632197 7.4641821 18.04273 8.4309895 17.396484 8.6777344 C 15.402123 9.5235232 13.499692 9.8956381 11.666016 9.9550781 L 11.666016 11.558594 C 13.123559 11.496164 14.634867 11.185024 16.236328 10.505859 C 16.862665 10.212231 17.273197 11.179035 16.626953 11.425781 C 14.90253 12.157087 13.254906 12.485965 11.666016 12.546875 L 11.666016 13.726562 C 12.475035 13.874693 13.087711 14.246333 13.787109 14.505859 C 14.928654 14.929454 15.139519 12.625163 16.035156 12.738281 C 16.163104 12.754441 16.304234 12.819374 16.464844 12.949219 C 17.465998 13.758599 18.05753 14.742431 16.513672 15.806641 C 15.641114 16.408111 16.166355 17.394119 16.183594 18.34375 A 9 9 0 0 0 20 11 A 9 9 0 0 0 18.369141 5.8515625 z M 9.2695312 15.296875 C 9.1909118 15.281465 9.1504846 15.329375 9.1503906 15.486328 C 9.1486925 16.106818 9.8003539 17.826664 11 17.871094 C 12.199657 17.826677 12.851309 16.106821 12.849609 15.486328 C 12.849515 15.329375 12.809089 15.281465 12.730469 15.296875 C 12.49617 15.342791 11.914692 15.956744 11.003906 15.964844 C 11.001206 15.96483 10.998794 15.964868 10.996094 15.964844 C 10.085336 15.956734 9.5038266 15.342795 9.2695312 15.296875 z M 7.4472656 16.757812 C 6.7557466 16.757973 6.6230339 17.672626 6.6230469 18.109375 C 6.6230349 18.546124 7.183481 18.900229 7.875 18.900391 C 8.566519 18.900229 9.1269651 18.546124 9.1269531 18.109375 C 9.1269661 17.672626 8.1387846 16.757973 7.4472656 16.757812 z M 14.552734 16.757812 C 13.861215 16.757974 12.873034 17.672626 12.873047 18.109375 C 12.873035 18.546124 13.433481 18.900229 14.125 18.900391 C 14.816519 18.900229 15.376965 18.546124 15.376953 18.109375 C 15.376966 17.672626 15.244253 16.757973 14.552734 16.757812 z M 16.111328 18.394531 A 9 9 0 0 1 15.345703 18.869141 A 9 9 0 0 0 16.111328 18.394531 z M 15.345703 18.869141 A 9 9 0 0 1 14.539062 19.263672 A 9 9 0 0 0 15.345703 18.869141 z M 14.539062 19.263672 A 9 9 0 0 1 13.695312 19.576172 A 9 9 0 0 0 14.539062 19.263672 z M 13.695312 19.576172 A 9 9 0 0 1 12.824219 19.802734 A 9 9 0 0 0 13.695312 19.576172 z M 12.824219 19.802734 C 12.141686 19.432427 11.488529 18.978189 11 18.970703 C 10.509073 18.978226 9.8521926 19.437339 9.1660156 19.808594 A 9 9 0 0 0 11 20 A 9 9 0 0 0 12.824219 19.802734 z M 6.5820312 18.835938 A 9 9 0 0 0 7.3339844 19.210938 A 9 9 0 0 1 6.5820312 18.835938 z M 7.3886719 19.238281 A 9 9 0 0 0 8.078125 19.501953 A 9 9 0 0 1 7.3886719 19.238281 z M 8.2480469 19.564453 A 9 9 0 0 0 8.828125 19.722656 A 9 9 0 0 1 8.2480469 19.564453 z "
     style="color:#000000;clip-rule:nonzero;display:inline;overflow:visible;visibility:visible;opacity:1;isolation:auto;mix-blend-mode:normal;color-interpolation:sRGB;color-interpolation-filters:linearRGB;solid-color:#000000;solid-opacity:1;fill:#4d4d4d;fill-opacity:1;fill-rule:evenodd;stroke:none;stroke-width:1.35883772;stroke-linecap:round;stroke-linejoin:miter;stroke-miterlimit:4;stroke-dasharray:none;stroke-dashoffset:0;stroke-opacity:1;marker:none;color-rendering:auto;image-rendering:auto;shape-rendering:auto;text-rendering:auto;enable-background:accumulate" />
</svg>
