<?xml version="1.0" encoding="UTF-8" standalone="no"?>
<svg
   xmlns:dc="http://purl.org/dc/elements/1.1/"
   xmlns:cc="http://creativecommons.org/ns#"
   xmlns:rdf="http://www.w3.org/1999/02/22-rdf-syntax-ns#"
   xmlns:svg="http://www.w3.org/2000/svg"
   xmlns="http://www.w3.org/2000/svg"
   xmlns:sodipodi="http://sodipodi.sourceforge.net/DTD/sodipodi-0.dtd"
   xmlns:inkscape="http://www.inkscape.org/namespaces/inkscape"
   version="1.1"
   id="svg2"
   viewBox="0 0 22 22"
   inkscape:version="0.91 r13725"
   sodipodi:docname="thick-slab.svg">
  <sodipodi:namedview
     pagecolor="#ffffff"
     bordercolor="#666666"
     borderopacity="1"
     objecttolerance="10"
     gridtolerance="10"
     guidetolerance="10"
     inkscape:pageopacity="0"
     inkscape:pageshadow="2"
     inkscape:window-width="1807"
     inkscape:window-height="1414"
     id="namedview13"
     showgrid="false"
     inkscape:zoom="42.90909"
     inkscape:cx="10.51794"
     inkscape:cy="10.324498"
     inkscape:window-x="0"
     inkscape:window-y="0"
     inkscape:window-maximized="0"
     inkscape:current-layer="svg2" />
  <metadata
     id="metadata12">
    <rdf:RDF>
      <cc:Work
         rdf:about="">
        <dc:format>image/svg+xml</dc:format>
        <dc:type
           rdf:resource="http://purl.org/dc/dcmitype/StillImage" />
        <dc:title />
      </cc:Work>
    </rdf:RDF>
  </metadata>
  <defs
     id="defs3051">
    <style
       id="current-color-scheme"
       type="text/css">
      .ColorScheme-Text {
        color:#4d4d4d;
      }
      </style>
    <style
       type="text/css"
       id="current-color-scheme-5">
      .ColorScheme-Text {
        color:#4d4d4d;
      }
      </style>
  </defs>
  <rect
     class="ColorScheme-Text"
     y="-27.660368"
     x="-38.258236"
     height="10.999983"
     width="0"
     id="rect4142"
     style="color:#4d4d4d;opacity:1;fill:currentColor;fill-opacity:1;stroke:none" />
  <path
     id="path4214"
     d="M 11.060547 1.2597656 C 8.8962655 1.2597657 7.0879359 2.2222811 5.8046875 3.9023438 C 5.4566859 4.3579567 5.1471626 4.8680384 4.8710938 5.421875 L 6.0097656 5.421875 C 6.1946578 5.0955802 6.3885554 4.7860831 6.5996094 4.5097656 C 7.7260788 3.0349622 9.1830993 2.2597657 11.060547 2.2597656 C 12.955662 2.2597654 14.275798 2.928243 15.322266 4.34375 C 15.556845 4.6610552 15.773258 5.0245217 15.976562 5.421875 L 17.087891 5.421875 C 16.804432 4.8014023 16.488963 4.2377202 16.126953 3.7480469 C 14.920254 2.1158024 13.20716 1.2597654 11.060547 1.2597656 z M 11.806641 3.09375 C 11.218716 3.166575 10.927124 3.7787793 11.115234 4.4121094 C 10.99456 4.8495995 11.162404 5.1908584 11.455078 5.421875 L 14.291016 5.421875 C 14.372156 5.322519 14.460716 5.2362193 14.566406 5.1953125 C 15.490069 5.3652859 15.088878 4.3373331 14.474609 4.2363281 C 14.041249 3.6870236 13.688175 4.3407998 13.484375 4.7539062 C 12.822665 4.8976564 13.58787 3.9976728 13.775391 3.7714844 C 13.479121 3.2838173 12.657462 3.0579031 12.076172 3.0957031 C 11.98063 3.0825134 11.89063 3.0833465 11.806641 3.09375 z M 9.7734375 3.109375 C 9.4137641 3.1208095 9.035013 3.2267881 8.75 3.3476562 C 7.873205 3.4864952 8.538521 4.1461553 8.765625 4.5703125 C 8.646959 5.3024374 8.2930289 4.1905571 8.0605469 4.0390625 C 7.6783339 4.0389817 6.6078005 4.6502632 6.9609375 5.1171875 C 7.3050036 5.0676626 7.5100974 5.2212366 7.6875 5.421875 L 10.599609 5.421875 C 10.642899 5.391375 10.679559 5.3551099 10.705078 5.3085938 C 10.890276 4.7034746 10.658731 4.059197 10.681641 3.4375 C 10.473334 3.1814989 10.133111 3.0979405 9.7734375 3.109375 z "
     style="color:#000000;font-style:normal;font-variant:normal;font-weight:normal;font-stretch:normal;font-size:medium;line-height:normal;font-family:sans-serif;text-indent:0;text-align:start;text-decoration:none;text-decoration-line:none;text-decoration-style:solid;text-decoration-color:#000000;letter-spacing:normal;word-spacing:normal;text-transform:none;direction:ltr;block-progression:tb;writing-mode:lr-tb;baseline-shift:baseline;text-anchor:start;white-space:normal;clip-rule:nonzero;display:inline;overflow:visible;visibility:visible;opacity:1;isolation:auto;mix-blend-mode:normal;color-interpolation:sRGB;color-interpolation-filters:linearRGB;solid-color:#000000;solid-opacity:1;fill:#4d4d4d;fill-opacity:1;fill-rule:evenodd;stroke:none;stroke-width:1;stroke-linecap:butt;stroke-linejoin:miter;stroke-miterlimit:4;stroke-dasharray:none;stroke-dashoffset:0;stroke-opacity:1;marker:none;color-rendering:auto;image-rendering:auto;shape-rendering:auto;text-rendering:auto;enable-background:accumulate" />
  <path
     id="path4212"
     d="M 3.8964844,8.4091802 C 3.6825379,9.2551383 3.5173581,10.160316 3.4101562,11.129883 c -0.09356,0.846185 -0.064996,1.669187 0.048828,2.460938 l 1.0117187,0 C 4.3486014,12.840651 4.3144363,12.053939 4.4042969,11.241211 4.5176081,10.216388 4.6943283,9.2702217 4.9277344,8.4091802 l -1.03125,0 z m 1.9023437,0 c -0.1885878,0.3345026 0.3261106,0.8458176 0.6933594,0.9902344 0.48343,0.4413745 -0.1184877,0.554971 -0.3710937,0.171875 -0.3618181,-0.6358517 -0.7464864,0.00864 -0.6308594,0.4921874 -0.35298,0.520935 0.9357392,0.677569 0.5195312,0.960937 -0.722297,-0.545293 -0.7859037,0.46335 -0.7460937,0.988282 0.385909,-0.0095 0.9797377,1.126745 0.3398437,0.724609 -0.436767,-0.602833 -0.6595884,0.184605 -0.5527344,0.560547 0.3775384,-0.03851 0.3582937,0.09918 0.2714844,0.292969 l 3.4960938,0 c 0.00708,-0.03569 9.51e-5,-0.07651 0.011719,-0.109375 0.252498,-0.450226 0.978159,-1.60107 1.5058596,-1.041016 0.226442,0.913117 0.275676,-0.528344 0.394531,-0.462891 0.01698,0.0094 0.0341,0.04875 0.05469,0.13086 0.184094,0.613076 -0.08364,1.089551 -0.476562,1.482422 l 1.378906,0 c -0.345168,-0.328511 -0.598406,-0.72262 -0.488281,-1.261719 0.01939,-0.219672 0.03953,-0.322441 0.06055,-0.347656 0.06304,-0.07565 0.134142,0.541706 0.210937,0.757812 0.168523,-0.153602 0.313047,-0.794591 0.785156,-0.376953 0.329706,0.335956 0.826965,0.749495 0.9375,1.228516 l 3.541016,0 c -0.03805,-0.08049 -0.08501,-0.157703 -0.152344,-0.228516 0.631937,0.271207 0.436957,-1.192118 -0.05469,-0.773437 -0.232741,0.488462 -0.631401,0.182793 -0.273438,-0.179688 0.550664,-0.320675 0.644488,-1.005431 0.363282,-1.578125 C 16.398459,10.899423 15.646959,11.296384 16,10.717774 16.508191,10.625806 16.679587,10.235093 16.513672,9.7470708 16.581734,9.0447173 15.967443,9.3403682 15.714844,9.6904302 15.291073,10.132288 15.183838,9.4901475 15.599609,9.3251958 16.048482,9.2859568 16.306,8.7224666 16.183594,8.4091802 l -0.894532,0 c -0.413368,0.2453379 -0.892482,0.5841378 -1.208984,0.099609 0.119508,-0.00745 0.247733,-0.048127 0.378906,-0.099609 l -2.865234,0 C 11.384219,8.96198 11.718183,9.6243258 11.50781,10.200196 11.136493,10.352881 11.097682,9.7313427 11.052732,9.5068364 10.968782,9.1709483 10.999992,8.726454 11.16992,8.4091802 l -0.371094,0 c 0.31699,0.5440745 0.237085,1.3696241 -0.171875,1.8320318 0.01697,0.08283 -0.118987,0.109051 -0.117187,0.01953 -0.375255,-0.5660009 0.268568,-1.188393 -0.09375,-1.7851566 -0.02309,-0.020363 -0.03432,-0.044475 -0.05469,-0.066406 l -2.7910155,0 C 7.6941468,8.4628052 7.8454326,8.5164581 7.9257812,8.5712896 7.5010058,8.9626616 7.1222666,8.652944 6.7285156,8.4091802 l -0.9296875,0 z m 11.1542969,0 c 0.231352,0.8635289 0.440771,1.7901008 0.601563,2.8515618 0.121943,0.80501 0.114443,1.584564 0.01367,2.330079 l 1.00586,0 c 0.09444,-0.798626 0.09782,-1.628423 -0.03125,-2.480469 -0.147821,-0.975853 -0.326556,-1.8708687 -0.535156,-2.7011718 l -1.054687,0 z"
     style="color:#000000;font-style:normal;font-variant:normal;font-weight:normal;font-stretch:normal;font-size:medium;line-height:normal;font-family:sans-serif;text-indent:0;text-align:start;text-decoration:none;text-decoration-line:none;text-decoration-style:solid;text-decoration-color:#000000;letter-spacing:normal;word-spacing:normal;text-transform:none;direction:ltr;block-progression:tb;writing-mode:lr-tb;baseline-shift:baseline;text-anchor:start;white-space:normal;clip-rule:nonzero;display:inline;overflow:visible;visibility:visible;opacity:1;isolation:auto;mix-blend-mode:normal;color-interpolation:sRGB;color-interpolation-filters:linearRGB;solid-color:#000000;solid-opacity:1;fill:#3daee9;fill-opacity:1;fill-rule:evenodd;stroke:none;stroke-width:1;stroke-linecap:butt;stroke-linejoin:miter;stroke-miterlimit:4;stroke-dasharray:none;stroke-dashoffset:0;stroke-opacity:1;marker:none;color-rendering:auto;image-rendering:auto;shape-rendering:auto;text-rendering:auto;enable-background:accumulate"
     inkscape:connector-curvature="0" />
  <path
     id="path4149"
     d="M 4.5546875 16.568359 C 5.9512118 19.067395 8.4027061 20.740234 11.060547 20.740234 C 13.712915 20.740234 16.174698 19.063467 17.539062 16.568359 L 16.371094 16.568359 C 15.123221 18.495527 13.117561 19.740234 11.060547 19.740234 C 9.0009141 19.740234 7.0030681 18.499308 5.7304688 16.568359 L 4.5546875 16.568359 z M 6.9941406 16.568359 C 6.3817945 16.960799 7.3933107 17.781778 7.8300781 18.011719 C 7.9859899 17.707948 8.0348739 17.05988 7.9941406 16.568359 L 6.9941406 16.568359 z M 8.3574219 16.568359 C 8.3915449 17.092032 8.0536699 17.670517 8.4316406 18.095703 C 8.7662286 17.794173 9.0691069 18.024793 8.9980469 18.496094 C 9.0774249 19.426356 10.717146 18.989946 10.095703 18.154297 C 10.507579 17.768378 10.479919 18.610284 10.677734 18.785156 C 11.163313 18.211602 10.734354 17.306269 10.853516 16.568359 L 9.4765625 16.568359 C 9.4877465 16.589639 9.486233 16.606636 9.5 16.628906 C 9.3921029 16.694136 9.2910698 16.650679 9.1992188 16.568359 L 8.3574219 16.568359 z M 11.146484 16.568359 C 11.183554 17.239471 11.059631 17.912993 11.144531 18.582031 C 11.344502 19.238535 11.554229 18.604651 11.505859 18.240234 C 12.131372 17.658264 11.580139 18.841315 12.001953 18.988281 C 12.741499 19.386765 12.992059 18.642245 13.115234 18.060547 C 13.392104 18.039857 13.925093 18.113947 13.746094 17.554688 C 13.700514 17.31881 13.62062 16.903176 13.642578 16.568359 L 12.822266 16.568359 C 12.799846 16.586569 12.780989 16.609437 12.755859 16.623047 C 12.696989 16.649177 12.517221 16.790218 12.494141 16.644531 C 12.510581 16.616981 12.512521 16.594549 12.525391 16.568359 L 11.146484 16.568359 z M 14.007812 16.568359 C 13.949302 17.12582 14.005012 17.76747 14.244141 18.044922 C 14.666466 17.749544 15.661762 17.021968 15.080078 16.582031 C 15.073678 16.577731 15.074379 16.572729 15.068359 16.568359 L 14.007812 16.568359 z "
     style="color:#000000;font-style:normal;font-variant:normal;font-weight:normal;font-stretch:normal;font-size:medium;line-height:normal;font-family:sans-serif;text-indent:0;text-align:start;text-decoration:none;text-decoration-line:none;text-decoration-style:solid;text-decoration-color:#000000;letter-spacing:normal;word-spacing:normal;text-transform:none;direction:ltr;block-progression:tb;writing-mode:lr-tb;baseline-shift:baseline;text-anchor:start;white-space:normal;clip-rule:nonzero;display:inline;overflow:visible;visibility:visible;opacity:1;isolation:auto;mix-blend-mode:normal;color-interpolation:sRGB;color-interpolation-filters:linearRGB;solid-color:#000000;solid-opacity:1;fill:#4d4d4d;fill-opacity:1;fill-rule:evenodd;stroke:none;stroke-width:1;stroke-linecap:butt;stroke-linejoin:miter;stroke-miterlimit:4;stroke-dasharray:none;stroke-dashoffset:0;stroke-opacity:1;marker:none;color-rendering:auto;image-rendering:auto;shape-rendering:auto;text-rendering:auto;enable-background:accumulate" />
  <path
     id="path4177"
     d="m 2.2200885,6.9155273 17.9055965,0"
     style="color:#000000;clip-rule:nonzero;display:inline;overflow:visible;visibility:visible;opacity:1;isolation:auto;mix-blend-mode:normal;color-interpolation:sRGB;color-interpolation-filters:linearRGB;solid-color:#000000;solid-opacity:1;fill:none;fill-opacity:1;fill-rule:evenodd;stroke:#4d4d4d;stroke-width:1;stroke-linecap:butt;stroke-linejoin:miter;stroke-miterlimit:4;stroke-dasharray:none;stroke-dashoffset:0;stroke-opacity:1;color-rendering:auto;image-rendering:auto;shape-rendering:auto;text-rendering:auto;enable-background:accumulate"
     inkscape:connector-curvature="0" />
  <path
     style="color:#000000;clip-rule:nonzero;display:inline;overflow:visible;visibility:visible;opacity:1;isolation:auto;mix-blend-mode:normal;color-interpolation:sRGB;color-interpolation-filters:linearRGB;solid-color:#000000;solid-opacity:1;fill:none;fill-opacity:1;fill-rule:evenodd;stroke:#4d4d4d;stroke-width:1;stroke-linecap:butt;stroke-linejoin:miter;stroke-miterlimit:4;stroke-dasharray:none;stroke-dashoffset:0;stroke-opacity:1;color-rendering:auto;image-rendering:auto;shape-rendering:auto;text-rendering:auto;enable-background:accumulate"
     d="m 2.2666987,15.07959 17.8123763,0"
     id="path4206"
     inkscape:connector-curvature="0" />
</svg>
