<?xml version="1.0" encoding="UTF-8" standalone="no"?>
<svg
   xmlns:dc="http://purl.org/dc/elements/1.1/"
   xmlns:cc="http://creativecommons.org/ns#"
   xmlns:rdf="http://www.w3.org/1999/02/22-rdf-syntax-ns#"
   xmlns:svg="http://www.w3.org/2000/svg"
   xmlns="http://www.w3.org/2000/svg"
   version="1.1"
   id="svg2"
   viewBox="0 0 1024 1024"
   height="1024"
   width="1024">
  <defs
     id="defs4" />
  <metadata
     id="metadata7">
    <rdf:RDF>
      <cc:Work
         rdf:about="">
        <dc:format>image/svg+xml</dc:format>
        <dc:type
           rdf:resource="http://purl.org/dc/dcmitype/StillImage" />
        <dc:title></dc:title>
      </cc:Work>
    </rdf:RDF>
  </metadata>
  <path
     id="path5096"
     style="fill:#ffffff;fill-opacity:1;fill-rule:evenodd;stroke:none;stroke-width:6;stroke-miterlimit:4;stroke-dasharray:none"
     d="m 562.26644,668.08304 c 1.78024,-5.36688 2.67652,-11.21656 2.67652,-17.3884 0,-21.9772 -10.54624,-43.08872 -54.52556,-58.04192 C 393.4452,553.07264 337.15854,530.20336 337.15854,429.9384 c 0,-94.9922 66.83282,-143.36044 181.17614,-143.36044 133.68452,0 172.39016,65.07904 172.39016,133.68668 l 0,15.83208 -126.64956,0 0,-8.80152 c 0,-41.33776 -16.71228,-52.76892 -46.628,-52.76892 -37.81924,0 -48.36556,18.47516 -48.36556,43.98084 0,84.42624 227.79932,28.14872 227.79932,212.8468 0,4.42736 -0.1436,8.79496 -0.40448,13.06824 L 562.2696,668.08304 Z m -228.63876,-44.64512 126.66444,0 c 0.86872,21.1116 2.62972,39.58008 9.66376,53.65456 1.37292,2.28096 2.90492,4.42728 4.624,6.44088 L 343.88736,706.5834 c -6.9438,-17.751 -10.25992,-38.43332 -10.25992,-62.04044 l 0,-21.11152 z" />
  <path
     id="path5094"
     style="fill:#231f20;fill-opacity:1;fill-rule:nonzero;stroke:#ffffff;stroke-width:24;stroke-miterlimit:4;stroke-dasharray:none;stroke-opacity:1"
     d="m 12,258.94572 c 0,-39.78136 32.249552,-72.03576 72.039068,-72.03576 l 855.921852,0 c 39.78464,0 72.03908,32.2544 72.03908,72.03576 l 0,506.1084 c 0,39.77456 -32.25444,72.03592 -72.03908,72.03592 l -855.921844,0 c -39.78952,0 -72.039073,-32.26136 -72.039073,-72.03592 l 0,-506.1084 z" />
  <path
     d="m 562.26644,668.08304 c 1.78024,-5.36688 2.67652,-11.21656 2.67652,-17.3884 0,-21.9772 -10.5462,-43.08872 -54.52556,-58.04192 C 393.44516,553.07264 337.15854,530.20336 337.15854,429.9384 c 0,-94.9922 66.83282,-143.36044 181.17622,-143.36044 133.68444,0 172.39016,65.07904 172.39016,133.68668 l 0,15.83208 -126.64964,0 0,-8.80816 c 0,-41.33112 -16.71228,-52.76228 -46.628,-52.76228 -37.81924,0 -48.36544,18.46844 -48.36544,43.98084 0,84.42624 227.79928,28.14216 227.79928,212.8468 0,4.42736 -0.1292,8.79496 -0.40456,13.06824 l -134.2056,23.66088 z m -228.63876,-44.64512 126.66436,0 c 0.86936,21.1116 2.62972,39.58008 9.66376,53.65456 1.3736,2.28096 2.90492,4.42728 4.62404,6.44088 l -130.6921,23.04324 c -6.94394,-17.75092 -10.26006,-38.42652 -10.26006,-62.04044 l 0,-21.11152 z"
     style="fill:#ffffff;fill-opacity:1;fill-rule:evenodd;stroke:none;stroke-width:6;stroke-miterlimit:4;stroke-dasharray:none"
     id="path5100" />
</svg>
