<?xml version="1.0" encoding="UTF-8" standalone="no"?>
<svg
   xmlns:dc="http://purl.org/dc/elements/1.1/"
   xmlns:cc="http://creativecommons.org/ns#"
   xmlns:rdf="http://www.w3.org/1999/02/22-rdf-syntax-ns#"
   xmlns:svg="http://www.w3.org/2000/svg"
   xmlns="http://www.w3.org/2000/svg"
   width="16"
   height="16"
   viewBox="0 0 16 16.000001"
   id="svg2"
   version="1.1">
  <defs
     id="defs4" />
  <metadata
     id="metadata7">
    <rdf:RDF>
      <cc:Work
         rdf:about="">
        <dc:format>image/svg+xml</dc:format>
        <dc:type
           rdf:resource="http://purl.org/dc/dcmitype/StillImage" />
        <dc:title></dc:title>
      </cc:Work>
    </rdf:RDF>
  </metadata>
  <path
     d="m 8.7569169,10.339199 c 0.026696,-0.0805 0.04015,-0.168245 0.04015,-0.26082 0,-0.3296471 -0.1581893,-0.6463136 -0.8178629,-0.8706064 C 6.2246617,8.6140857 5.3803821,8.2710555 5.3803821,6.7671161 c 0,-1.4248483 1.002468,-2.1503536 2.7175768,-2.1503536 2.0052191,0 2.5857891,0.9761619 2.5857891,2.0052526 l 0,0.2374746 -1.8996986,0 0,-0.1320198 c 0,-0.6200505 -0.2506767,-0.7915153 -0.6994012,-0.7915153 -0.5672747,0 -0.7254652,0.277121 -0.7254652,0.6596967 0,1.2663641 3.416905,0.422222 3.416905,3.1926261 0,0.066412 -0.0021,0.1319193 -0.0061,0.1960173 L 8.7569321,10.339199 Z m -3.4294974,-0.6696589 1.8999198,0 c 0.013041,0.3166665 0.039445,0.5936869 0.1449522,0.8047979 0.020607,0.03421 0.043581,0.06641 0.06935,0.09661 L 5.4813114,10.91669 C 5.3771566,10.650431 5.3274164,10.340205 5.3274164,9.986106 l 0,-0.3166665 z"
     style="fill:#ffffff;fill-opacity:1;fill-rule:evenodd;stroke:none"
     id="path5096" />
  <path
     d="m 0.50312207,4.2022886 c 0,-0.5967055 0.48373147,-1.0805099 1.08055973,-1.0805099 l 12.8385122,0 c 0.596757,0 1.080562,0.4838044 1.080562,1.0805099 l 0,7.5914424 c 0,0.596605 -0.483805,1.08051 -1.080562,1.08051 l -12.8385122,0 c -0.59682826,0 -1.08055973,-0.483905 -1.08055973,-1.08051 l 0,-7.5914424 z"
     style="fill:#231f20;fill-opacity:1;fill-rule:nonzero;stroke:#ffffff;stroke-width:1.00036764;stroke-miterlimit:4;stroke-dasharray:none;stroke-opacity:1"
     id="path5094" />
  <path
     id="path5100"
     style="fill:#ffffff;fill-opacity:1;fill-rule:evenodd;stroke:none"
     d="m 8.7569163,10.610387 c 0.026696,-0.0805 0.040153,-0.168245 0.040153,-0.26082 0,-0.329649 -0.1581891,-0.646315 -0.817863,-0.8706078 C 6.2246637,8.885272 5.3803844,8.542242 5.3803844,7.0383025 c 0,-1.4248483 1.0024685,-2.1503536 2.7175771,-2.1503536 2.0052185,0 2.5857895,0.9761619 2.5857895,2.0052526 l 0,0.2374746 -1.8996994,0 0,-0.1321204 c 0,-0.6199499 -0.2506761,-0.7914147 -0.6994009,-0.7914147 -0.5672749,0 -0.7254654,0.2770203 -0.7254654,0.6596967 0,1.2663641 3.4169057,0.4221214 3.4169057,3.1926263 0,0.06641 -0.002,0.13192 -0.0061,0.196018 l -2.0130559,0.354905 z m -3.4294969,-0.6696606 1.8999192,0 c 0.013047,0.3166676 0.039448,0.5936886 0.1449524,0.8047996 0.020611,0.03421 0.043582,0.06641 0.069354,0.09661 L 5.481314,11.187777 C 5.3771598,10.921519 5.3274198,10.611393 5.3274198,10.257193 l 0,-0.3166676 z" />
</svg>
