<?xml version="1.0" encoding="UTF-8" standalone="no"?>
<svg
   xmlns:dc="http://purl.org/dc/elements/1.1/"
   xmlns:cc="http://creativecommons.org/ns#"
   xmlns:rdf="http://www.w3.org/1999/02/22-rdf-syntax-ns#"
   xmlns:svg="http://www.w3.org/2000/svg"
   xmlns="http://www.w3.org/2000/svg"
   version="1.1"
   id="svg2"
   viewBox="0 0 22 22.000001"
   height="22"
   width="22">
  <defs
     id="defs4" />
  <metadata
     id="metadata7">
    <rdf:RDF>
      <cc:Work
         rdf:about="">
        <dc:format>image/svg+xml</dc:format>
        <dc:type
           rdf:resource="http://purl.org/dc/dcmitype/StillImage" />
        <dc:title></dc:title>
      </cc:Work>
    </rdf:RDF>
  </metadata>
  <path
     id="path5096"
     style="fill:#ffffff;fill-opacity:1;fill-rule:evenodd;stroke:none;stroke-width:1.00000012;stroke-miterlimit:4;stroke-dasharray:none"
     d="m 12.055555,14.277621 c 0.03738,-0.112698 0.05621,-0.235539 0.05621,-0.365142 0,-0.461501 -0.221463,-0.904829 -1.144994,-1.218833 -2.4563267,-0.831151 -3.6383025,-1.311387 -3.6383025,-3.4168737 0,-1.9947614 1.4034366,-3.010455 3.8045565,-3.010455 2.80727,0 3.620058,1.3666074 3.620058,2.8073162 l 0,0.3324605 -2.659542,0 0,-0.1848261 c 0,-0.8680597 -0.350944,-1.1081062 -0.97915,-1.1081062 -0.794174,0 -1.015638,0.3879644 -1.015638,0.9235621 0,1.7728862 4.783605,0.5911028 4.783605,4.4696172 0,0.09297 -0.003,0.184686 -0.0085,0.274422 l -2.818241,0.496858 z m -4.8012333,-0.93751 2.6598529,0 c 0.018254,0.443328 0.055224,0.831151 0.2029314,1.126703 0.02884,0.0479 0.06101,0.09297 0.0971,0.135252 L 7.4697675,15.086099 C 7.3239527,14.713341 7.2543173,14.27903 7.2543173,13.783299 l 0,-0.443327 z" />
  <path
     id="path5094"
     style="fill:#231f20;fill-opacity:1;fill-rule:nonzero;stroke:#ffffff;stroke-width:1.00000012;stroke-miterlimit:4;stroke-dasharray:none;stroke-opacity:1"
     d="m 0.50039423,5.6860614 c 0,-0.8353772 0.67721517,-1.5126944 1.51276367,-1.5126944 l 17.9736801,0 c 0.835449,0 1.512767,0.6773172 1.512767,1.5126944 l 0,10.6278786 c 0,0.835236 -0.677318,1.512694 -1.512767,1.512694 l -17.9736801,0 c -0.8355485,0 -1.51276367,-0.677458 -1.51276367,-1.512694 l 0,-10.6278786 z" />
  <path
     d="m 12.055555,14.557281 c 0.03738,-0.112698 0.05621,-0.235539 0.05621,-0.365142 0,-0.461501 -0.221462,-0.904829 -1.144994,-1.218833 -2.456327,-0.831151 -3.6383024,-1.311387 -3.6383024,-3.4168728 0,-1.9947611 1.4034374,-3.010455 3.8045574,-3.010455 2.807269,0 3.620058,1.3666077 3.620058,2.8073162 l 0,0.3324605 -2.659543,0 0,-0.1849676 c 0,-0.8679185 -0.350943,-1.107965 -0.97915,-1.107965 -0.794174,0 -1.015637,0.3878235 -1.015637,0.9235624 0,1.7728853 4.783605,0.590963 4.783605,4.4696163 0,0.09297 -0.0027,0.184686 -0.0085,0.274422 l -2.818241,0.496858 z m -4.8012335,-0.93751 2.6598521,0 c 0.018264,0.443328 0.055224,0.831151 0.2029314,1.126703 0.02885,0.0479 0.06101,0.09297 0.0971,0.135252 L 7.4697751,15.365618 C 7.3239572,14.992861 7.2543221,14.55869 7.2543221,14.062816 l 0,-0.443326 z"
     style="fill:#ffffff;fill-opacity:1;fill-rule:evenodd;stroke:none;stroke-width:1.00000012;stroke-miterlimit:4;stroke-dasharray:none"
     id="path5100" />
</svg>
