<?xml version="1.0" encoding="UTF-8" standalone="no"?>
<svg
   xmlns:dc="http://purl.org/dc/elements/1.1/"
   xmlns:cc="http://creativecommons.org/ns#"
   xmlns:rdf="http://www.w3.org/1999/02/22-rdf-syntax-ns#"
   xmlns:svg="http://www.w3.org/2000/svg"
   xmlns="http://www.w3.org/2000/svg"
   width="48"
   height="48"
   viewBox="0 0 48 48.000001"
   id="svg2"
   version="1.1">
  <defs
     id="defs4" />
  <metadata
     id="metadata7">
    <rdf:RDF>
      <cc:Work
         rdf:about="">
        <dc:format>image/svg+xml</dc:format>
        <dc:type
           rdf:resource="http://purl.org/dc/dcmitype/StillImage" />
        <dc:title></dc:title>
      </cc:Work>
    </rdf:RDF>
  </metadata>
  <path
     d="m 26.337366,31.252561 c 0.08278,-0.249555 0.124456,-0.521568 0.124456,-0.808554 0,-1.021923 -0.490395,-2.003601 -2.535412,-2.698914 -5.439149,-1.840457 -8.056451,-2.903868 -8.056451,-7.56614 0,-4.417092 3.107692,-6.66619 8.424602,-6.66619 6.216264,0 8.016057,3.026145 8.016057,6.216368 l 0,0.736183 -5.889144,0 0,-0.409266 c 0,-1.922185 -0.777112,-2.453733 -2.168177,-2.453733 -1.758577,0 -2.248975,0.859089 -2.248975,2.045091 0,3.92578 10.592556,1.308903 10.592556,9.897274 0,0.205867 -0.0067,0.408956 -0.01881,0.607662 l -6.240557,1.100219 z m -10.63159,-2.075974 5.889834,0 c 0.04039,0.981682 0.12228,1.840455 0.449359,2.494912 0.06384,0.106065 0.135077,0.205866 0.215014,0.299492 l -6.077137,1.071817 c -0.322884,-0.825413 -0.477082,-1.787131 -0.477082,-2.884847 l 0,-0.981681 z"
     style="fill:#ffffff;fill-opacity:1;fill-rule:evenodd;stroke:none;stroke-width:1.5;stroke-miterlimit:4;stroke-dasharray:none"
     id="path5096" />
  <path
     d="m 0.75024694,12.227878 c 0,-1.849812 1.49958836,-3.3496279 3.34978146,-3.3496279 l 39.7999406,0 c 1.849968,0 3.349784,1.4998159 3.349784,3.3496279 l 0,23.533795 c 0,1.849501 -1.499816,3.34963 -3.349784,3.34963 l -39.7999404,0 c -1.8501932,0 -3.34978166,-1.500129 -3.34978166,-3.34963 l 0,-23.533795 z"
     style="fill:#231f20;fill-opacity:1;fill-rule:nonzero;stroke:#ffffff;stroke-width:1.5;stroke-miterlimit:4;stroke-dasharray:none;stroke-opacity:1"
     id="path5094" />
  <path
     id="path5100"
     style="fill:#ffffff;fill-opacity:1;fill-rule:evenodd;stroke:none;stroke-width:1.5;stroke-miterlimit:4;stroke-dasharray:none"
     d="m 26.337366,31.252561 c 0.08278,-0.249555 0.124456,-0.521568 0.124456,-0.808554 0,-1.021923 -0.490393,-2.003601 -2.535412,-2.698914 -5.439151,-1.840457 -8.056451,-2.903868 -8.056451,-7.56614 0,-4.417092 3.107693,-6.66619 8.424604,-6.66619 6.216262,0 8.016058,3.026145 8.016058,6.216368 l 0,0.736183 -5.889147,0 0,-0.409577 c 0,-1.921874 -0.77711,-2.453422 -2.168177,-2.453422 -1.758577,0 -2.24897,0.858778 -2.24897,2.045091 0,3.92578 10.592554,1.308594 10.592554,9.897274 0,0.205867 -0.006,0.408956 -0.01881,0.607662 l -6.240494,1.100219 z m -10.631591,-2.075974 5.889832,0 c 0.04042,0.981682 0.12228,1.840455 0.44936,2.494912 0.06387,0.106065 0.135077,0.205866 0.215013,0.299492 l -6.077116,1.071506 c -0.322891,-0.825413 -0.477088,-1.78682 -0.477088,-2.884854 l 0,-0.981676 z" />
</svg>
