<?xml version="1.0" encoding="UTF-8" standalone="no"?>
<svg
   xmlns:dc="http://purl.org/dc/elements/1.1/"
   xmlns:cc="http://creativecommons.org/ns#"
   xmlns:rdf="http://www.w3.org/1999/02/22-rdf-syntax-ns#"
   xmlns:svg="http://www.w3.org/2000/svg"
   xmlns="http://www.w3.org/2000/svg"
   version="1.1"
   id="svg2"
   viewBox="0 0 512 512"
   height="512"
   width="512">
  <defs
     id="defs4" />
  <metadata
     id="metadata7">
    <rdf:RDF>
      <cc:Work
         rdf:about="">
        <dc:format>image/svg+xml</dc:format>
        <dc:type
           rdf:resource="http://purl.org/dc/dcmitype/StillImage" />
        <dc:title></dc:title>
      </cc:Work>
    </rdf:RDF>
  </metadata>
  <path
     id="path5096"
     style="fill:#ffffff;fill-opacity:1;fill-rule:evenodd;stroke:none;stroke-width:6;stroke-miterlimit:4;stroke-dasharray:none"
     d="m 281.13322,334.04152 c 0.89012,-2.68344 1.33826,-5.60828 1.33826,-8.6942 0,-10.9886 -5.27312,-21.54436 -27.26278,-29.02096 -58.4861,-19.79004 -86.62943,-31.22468 -86.62943,-81.35716 0,-47.4961 33.41641,-71.68022 90.58807,-71.68022 66.84226,0 86.19508,32.53952 86.19508,66.84334 l 0,7.91604 -63.32478,0 0,-4.40076 c 0,-20.66888 -8.35614,-26.38446 -23.314,-26.38446 -18.90962,0 -24.18278,9.23758 -24.18278,21.99042 0,42.21312 113.89966,14.07436 113.89966,106.4234 0,2.21368 -0.0718,4.39748 -0.20224,6.53412 l -67.10348,11.83044 z m -114.31938,-22.32256 63.33222,0 c 0.43436,10.5558 1.31486,19.79004 4.83188,26.82728 0.68646,1.14048 1.45246,2.21364 2.312,3.22044 l -65.34626,11.52502 c -3.4719,-8.8755 -5.12996,-19.21666 -5.12996,-31.02022 l 0,-10.55576 z" />
  <path
     id="path5094"
     style="fill:#231f20;fill-opacity:1;fill-rule:nonzero;stroke:#ffffff;stroke-width:12;stroke-miterlimit:4;stroke-dasharray:none;stroke-opacity:1"
     d="m 6.0000004,129.47286 c 0,-19.89068 16.1247756,-36.01788 36.0195336,-36.01788 l 427.960926,0 c 19.89232,0 36.01954,16.1272 36.01954,36.01788 l 0,253.0542 c 0,19.88728 -16.12722,36.01796 -36.01954,36.01796 l -427.960922,0 c -19.89476,0 -36.0195364,-16.13068 -36.0195364,-36.01796 l 0,-253.0542 z" />
  <path
     d="m 281.13322,334.04152 c 0.89012,-2.68344 1.33826,-5.60828 1.33826,-8.6942 0,-10.9886 -5.2731,-21.54436 -27.26278,-29.02096 -58.48612,-19.79004 -86.62943,-31.22468 -86.62943,-81.35716 0,-47.4961 33.41641,-71.68022 90.58811,-71.68022 66.84222,0 86.19508,32.53952 86.19508,66.84334 l 0,7.91604 -63.32482,0 0,-4.40408 c 0,-20.66556 -8.35614,-26.38114 -23.314,-26.38114 -18.90962,0 -24.18272,9.23422 -24.18272,21.99042 0,42.21312 113.89964,14.07108 113.89964,106.4234 0,2.21368 -0.0646,4.39748 -0.20228,6.53412 l -67.1028,11.83044 z m -114.31938,-22.32256 63.33218,0 c 0.43468,10.5558 1.31486,19.79004 4.83188,26.82728 0.6868,1.14048 1.45246,2.21364 2.31202,3.22044 l -65.34605,11.52162 c -3.47197,-8.87546 -5.13003,-19.21326 -5.13003,-31.02022 l 0,-10.55576 z"
     style="fill:#ffffff;fill-opacity:1;fill-rule:evenodd;stroke:none;stroke-width:6;stroke-miterlimit:4;stroke-dasharray:none"
     id="path5100" />
</svg>
